<?xml version="1.0" encoding="UTF-8"?>
<!DOCTYPE svg PUBLIC "-//W3C//DTD SVG 1.1//EN" "http://www.w3.org/Graphics/SVG/1.1/DTD/svg11.dtd">

<svg xmlns="http://www.w3.org/2000/svg" xmlns:xlink="http://www.w3.org/1999/xlink" xmlns:xs="http://www.w3.org/2001/XMLSchema" xmlns:wb="http://www.ti.com/webench" version="1.1" width="100%" height="100%" viewBox="0 0 1560.0 530.0" preserveAspectRatio="xMidYMid meet">
  <defs>
    <g id="WB_CONTINUATION">
      <circle xmlns="" opacity="0.01" fill="#ffffff" stroke="#000000" stroke-width="0" cx="0" cy="0" r="14" />
      <line fill="none" stroke="#CC0000" stroke-width="2" x1="0" y1="10" x2="0" y2="-10" />
      <line fill="none" stroke="#CC0000" stroke-width="2" x1="-10" y1="-10" x2="10" y2="-10" />
    </g>
    <g id="WB_BLOCK_IO">
      <circle xmlns="" opacity="0.01" fill="#ffffff" stroke="#000000" stroke-width="0" cx="0" cy="0" r="14" />
      <line stroke="#CC0000" fill="none" stroke-width="2" x1="-5" y1="0" x2="5" y2="0" />
    </g>
    <g id="WB_STARTUP_VOLTAGE_SOURCE">
      <circle xmlns="" opacity="0.01" fill="#ffffff" stroke="#000000" stroke-width="0" cx="0" cy="0" r="14" />
      <circle fill-opacity="0.01" fill="#CC0000" stroke="#CC0000" stroke-width="2" cx="0" cy="0" r="14" />
      <polyline fill="none" stroke="#CC0000" stroke-width="2" points="-6,-11 -6,7 5,9 5,12 " />
      <line fill="none" stroke="#CC0000" stroke-width="2" x1="16" y1="-12" x2="16" y2="-18" />
      <line fill="none" stroke="#CC0000" stroke-width="2" x1="-17" y1="-12" x2="-17" y2="-18" />
      <line fill="none" stroke="#CC0000" stroke-width="2" x1="-14" y1="-15" x2="-20" y2="-15" />
      <line fill="none" stroke="#CC0000" stroke-width="2" x1="-15" y1="0" x2="-30" y2="0" />
      <line fill="none" stroke="#CC0000" stroke-width="2" x1="30" y1="0" x2="15" y2="0" />
    </g>
    <g id="WB_SOURCE_RESISTOR">
      <circle xmlns="" opacity="0.01" fill="#ffffff" stroke="#000000" stroke-width="0" cx="0" cy="0" r="14" />
      <polyline fill="none" stroke="#CC0000" stroke-width="2" stroke-linecap="round" stroke-linejoin="round" points="30,0 20,0 15,-6 7.5,6 0,-6 -7.5,6 -15,-6 -20,0 -30,0" />
    </g>
    <g id="WB_PRIM_STARTUP_VOLTAGE_SOURCE">
      <circle xmlns="" opacity="0.01" fill="#ffffff" stroke="#000000" stroke-width="0" cx="0" cy="0" r="14" />
      <circle fill-opacity="0.01" fill="#CC0000" stroke="#CC0000" stroke-width="2" cx="0" cy="0" r="14" />
      <polyline fill="none" stroke="#CC0000" stroke-width="2" points="-6,-11 -6,7 5,9 5,12 " />
      <line fill="none" stroke="#CC0000" stroke-width="2" x1="16" y1="-12" x2="16" y2="-18" />
      <line fill="none" stroke="#CC0000" stroke-width="2" x1="-17" y1="-12" x2="-17" y2="-18" />
      <line fill="none" stroke="#CC0000" stroke-width="2" x1="-14" y1="-15" x2="-20" y2="-15" />
      <line fill="none" stroke="#CC0000" stroke-width="2" x1="-15" y1="0" x2="-30" y2="0" />
      <line fill="none" stroke="#CC0000" stroke-width="2" x1="30" y1="0" x2="15" y2="0" />
    </g>
    <g id="WB_CAPACITOR">
      <circle xmlns="" opacity="0.01" fill="#ffffff" stroke="#000000" stroke-width="0" cx="0" cy="0" r="14" />
      <line y1="0" x2="20" stroke="#115566" x1="30" fill="none" stroke-width="2" y2="0" />
      <line y1="0" x2="-20" stroke="#115566" x1="-30" fill="none" stroke-width="2" y2="0" />
      <polyline stroke="#115566" points="3,12 3,-12  " stroke-linejoin="round" fill="none" stroke-width="2" stroke-linecap="round" />
      <polyline stroke="#115566" points="-20,0 -3,0  " stroke-linejoin="round" fill="none" stroke-width="2" stroke-linecap="round" />
      <polyline stroke="#115566" points="3,0 20,0  " stroke-linejoin="round" fill="none" stroke-width="2" stroke-linecap="round" />
      <polyline stroke="#115566" points="-3,12 -3,-12  " stroke-linejoin="round" fill="none" stroke-width="2" stroke-linecap="round" />
    </g>
    <g id="WB_LM60440DRPK">
      <circle xmlns="" opacity="0.01" fill="#ffffff" stroke="#000000" stroke-width="0" cx="0" cy="0" r="14" />
      <line fill="none" stroke="#000000" stroke-width="2" stroke-linecap="round" stroke-linejoin="round" x1="20" y1="130" x2="140" y2="130" />
      <line fill="none" stroke="#000000" stroke-width="2" stroke-linecap="round" stroke-linejoin="round" x1="140" y1="130" x2="140" y2="-20" />
      <line fill="none" stroke="#000000" stroke-width="2" stroke-linecap="round" stroke-linejoin="round" x1="140" y1="-20" x2="20" y2="-20" />
      <line fill="none" stroke="#000000" stroke-width="2" stroke-linecap="round" stroke-linejoin="round" x1="20" y1="-20" x2="20" y2="130" />
      <text id="partNumber_label" x="80" y="-7" style="font-family:arial;font-weight:bold;font-size:12px;text-anchor:middle;">LM60440DRPK</text>
      <line fill="none" stroke="#000000" stroke-width="2" stroke-linecap="round" stroke-linejoin="round" x1="160" y1="100" x2="140" y2="100" />
      <text id="1" x="136" y="104" transform="rotate(0,136,104)" style="font-family:arial;font-weight:normal;font-size:9px;text-anchor:end;">PGND</text>
      <line fill="none" stroke="#000000" stroke-width="2" stroke-linecap="round" stroke-linejoin="round" x1="0" y1="0" x2="20" y2="0" />
      <text id="2" x="24" y="4" transform="rotate(0,24,4)" style="font-family:arial;font-weight:normal;font-size:9px;text-anchor:start;">VIN</text>
      <line fill="none" stroke="#000000" stroke-width="2" stroke-linecap="round" stroke-linejoin="round" x1="160" y1="30" x2="140" y2="30" />
      <text id="3" x="136" y="34" transform="rotate(0,136,34)" style="font-family:arial;font-weight:normal;font-size:9px;text-anchor:end;">SW</text>
      <line fill="none" stroke="#000000" stroke-width="2" stroke-linecap="round" stroke-linejoin="round" x1="160" y1="0" x2="140" y2="0" />
      <text id="4" x="136" y="4" transform="rotate(0,136,4)" style="font-family:arial;font-weight:normal;font-size:9px;text-anchor:end;">BOOT</text>
      <line fill="none" stroke="#000000" stroke-width="2" stroke-linecap="round" stroke-linejoin="round" x1="0" y1="30" x2="20" y2="30" />
      <text id="5" x="24" y="34" transform="rotate(0,24,34)" style="font-family:arial;font-weight:normal;font-size:9px;text-anchor:start;">VCC</text>
      <line fill="none" stroke="#000000" stroke-width="2" stroke-linecap="round" stroke-linejoin="round" x1="160" y1="90" x2="140" y2="90" />
      <text id="6" x="136" y="94" transform="rotate(0,136,94)" style="font-family:arial;font-weight:normal;font-size:9px;text-anchor:end;">AGND</text>
      <line fill="none" stroke="#000000" stroke-width="2" stroke-linecap="round" stroke-linejoin="round" x1="160" y1="50" x2="140" y2="50" />
      <text id="7" x="136" y="54" transform="rotate(0,136,54)" style="font-family:arial;font-weight:normal;font-size:9px;text-anchor:end;">FB</text>
      <line fill="none" stroke="#000000" stroke-width="2" stroke-linecap="round" stroke-linejoin="round" x1="160" y1="70" x2="140" y2="70" />
      <text id="8" x="136" y="74" transform="rotate(0,136,74)" style="font-family:arial;font-weight:normal;font-size:9px;text-anchor:end;">PG</text>
      <line fill="none" stroke="#000000" stroke-width="2" stroke-linecap="round" stroke-linejoin="round" x1="0" y1="50" x2="20" y2="50" />
      <text id="9" x="24" y="54" transform="rotate(0,24,54)" style="font-family:arial;font-weight:normal;font-size:9px;text-anchor:start;">EN</text>
      <line fill="none" stroke="#000000" stroke-width="2" stroke-linecap="round" stroke-linejoin="round" x1="0" y1="10" x2="20" y2="10" />
      <text id="10" x="24" y="14" transform="rotate(0,24,14)" style="font-family:arial;font-weight:normal;font-size:9px;text-anchor:start;">VIN</text>
      <line fill="none" stroke="#000000" stroke-width="2" stroke-linecap="round" stroke-linejoin="round" x1="160" y1="110" x2="140" y2="110" />
      <text id="11" x="136" y="114" transform="rotate(0,136,114)" style="font-family:arial;font-weight:normal;font-size:9px;text-anchor:end;">PGND</text>
      <line fill="none" stroke="#000000" stroke-width="2" stroke-linecap="round" stroke-linejoin="round" x1="160" y1="20" x2="140" y2="20" />
      <text id="12" x="136" y="24" transform="rotate(0,136,24)" style="font-family:arial;font-weight:normal;font-size:9px;text-anchor:end;">SW</text>
      <line fill="none" stroke="#000000" stroke-width="2" stroke-linecap="round" stroke-linejoin="round" x1="160" y1="120" x2="140" y2="120" />
      <text id="13" x="136" y="124" transform="rotate(0,136,124)" style="font-family:arial;font-weight:normal;font-size:9px;text-anchor:end;">PGND</text>
    </g>
    <g id="WB_CURRENT_PROBE">
      <circle xmlns="" opacity="0.01" fill="#ffffff" stroke="#000000" stroke-width="0" cx="0" cy="0" r="14" />
      <line stroke="#CC0000" stroke-width="2" stroke-linecap="square" stroke-linejoin="round" x1="-16" y1="0" x2="-10" y2="0" />
      <polyline stroke="#CC0000" stroke-width="2" stroke-linecap="square" stroke-linejoin="round" points="6,0 3,-3.5 3,3.5 6,0 -6,0 " />
      <line stroke="#CC0000" stroke-width="2" stroke-linecap="square" stroke-linejoin="round" x1="10" y1="0" x2="16" y2="0" />
      <rect stroke-width="1" x="-9.5" y="-7" fill="none" stroke="#CC0000" width="19" height="14" />
    </g>
    <g id="WB_RESISTOR">
      <circle xmlns="" opacity="0.01" fill="#ffffff" stroke="#000000" stroke-width="0" cx="0" cy="0" r="14" />
      <polyline fill="none" stroke="#115566" stroke-width="2" stroke-linecap="round" stroke-linejoin="round" points="30,0 20,0 15,-6 7.5,6 0,-6 -7.5,6 -15,-6 -20,0 -30,0" />
    </g>
    <g id="WB_VOLTAGE_PROBE">
      <circle xmlns="" opacity="0.01" fill="#ffffff" stroke="#000000" stroke-width="0" cx="0" cy="0" r="14" />
      <rect stroke-width="1" width="20" stroke="#CC0000" x="-10" height="19.5" y="-30" fill="#CC0000" fill-opacity="0.01" />
      <polyline stroke="#CC0000" points="7,-27 4,-22 3,-26 0,-18 -1,-22 -5,-14  " stroke-linejoin="round" fill="none" stroke-width="2" stroke-linecap="round" />
      <line y1="0" x2="0" stroke="#CC0000" x1="0" fill="none" stroke-width="2" y2="-10" />
    </g>
    <g id="WB_CAP_OUTPUT">
      <circle xmlns="" opacity="0.01" fill="#ffffff" stroke="#000000" stroke-width="0" cx="0" cy="0" r="14" />
      <path fill="none" stroke="#CC0000" stroke-width="2" stroke-linecap="round" stroke-linejoin="round" d="M-6.5,12c0.2,0,1.1 -1,2.5 -3c1.5 -2,2.3 -5,2.5 -9c-0.2 -4 -1 -7 -2.5 -9c-1.4 -2 -2.3 -3 -2.5 -3" />
      <line fill="none" stroke="#CC0000" stroke-width="2" x1="4" y1="13" x2="4" y2="-13" />
      <line fill="none" stroke="#CC0000" stroke-width="2" x1="-30" y1="0" x2="-2" y2="0" />
      <line fill="none" stroke="#CC0000" stroke-width="2" x1="4" y1="0" x2="30" y2="0" />
      <line fill="none" stroke="#CC0000" stroke-width="2" x1="14" y1="10" x2="14" y2="6" />
      <line fill="none" stroke="#CC0000" stroke-width="2" x1="12" y1="8" x2="16" y2="8" />
    </g>
    <g id="WB_ZERO_VOLT_SOURCE">
      <circle xmlns="" opacity="0.01" fill="#ffffff" stroke="#000000" stroke-width="0" cx="0" cy="0" r="14" />
      <line stroke="#CC0000" fill="none" stroke-width="2" x1="-5" y1="0" x2="5" y2="0" />
    </g>
    <g id="WB_GND">
      <circle xmlns="" opacity="0.01" fill="#ffffff" stroke="#000000" stroke-width="0" cx="0" cy="0" r="14" />
      <line fill="none" stroke="black" stroke-width="2" x1="0" y1="-10" x2="0" y2="0" />
      <line fill="none" stroke="black" stroke-width="2" x1="-13" y1="0" x2="13" y2="0" />
      <line fill="none" stroke="black" stroke-width="2" x1="-9" y1="4" x2="9" y2="4" />
      <line fill="none" stroke="black" stroke-width="2" x1="-3" y1="8" x2="3" y2="8" />
    </g>
    <g id="WB_INDUCTOR">
      <circle xmlns="" opacity="0.01" fill="#ffffff" stroke="#000000" stroke-width="0" cx="0" cy="0" r="14" />
      <path fill="none" stroke="#115566" stroke-width="2" stroke-linecap="round" stroke-linejoin="round" d="M-10,0c0-0.6-0.2-1.8-0.6-3.3c-0.5-2.4-2-3.7-4.4-4c-2.4,0.3-3.8,1.6-4.3,4c-0.6,2.3-0.8,3.6-0.7,3M-20,0H-30" />
      <path fill="none" stroke="#115566" stroke-width="2" stroke-linecap="round" stroke-linejoin="round" d="M0,0c0-0.6-0.2-1.8-0.6-3.3c-0.5-2.4-2-3.7-4.4-4c-2.4,0.3-3.8,1.6-4.3,4c-0.6,2.3-0.8,3.6-0.7,4" />
      <path fill="none" stroke="#115566" stroke-width="2" stroke-linecap="round" stroke-linejoin="round" d="M10,0c0-0.6-0.2-1.8-0.6-3.3c-0.5-2.4-2-3.7-4.4-4c-2.4,0.3-3.8,1.6-4.3,4c-0.6,2.3-0.8,3.6-0.7,4" />
      <path fill="none" stroke="#115566" stroke-width="2" stroke-linecap="round" stroke-linejoin="round" d="M30,0H20c0-0.6-0.2-1.8-0.6-3.3c-0.5-2.4-2-3.7-4.4-4c-2.4,0.3-3.8,1.6-4.3,4c-0.6,2.3-0.8,3.6-0.7,4" />
      <path fill="none" stroke="#115566" stroke-width="2" stroke-linecap="round" stroke-linejoin="round" d=" M10,0 c0.1,0.4,0.1,0.6,0,0.7" />
      <path fill="none" stroke="#115566" stroke-width="2" stroke-linecap="round" stroke-linejoin="round" d=" M0,0  c0.1,0.4,0.1,0.6,0,0.7" />
      <path fill="none" stroke="#115566" stroke-width="2" stroke-linecap="round" stroke-linejoin="round" d=" M-10,0c0.1,0.4,0.1,0.6,0,0.7" />
    </g>
    <g id="WB_PWL_CURRENT_LOAD">
      <circle xmlns="" opacity="0.01" fill="#ffffff" stroke="#000000" stroke-width="0" cx="0" cy="0" r="14" />
      <circle fill-opacity="0.01" fill="#CC0000" stroke="#CC0000" stroke-width="2" cx="0" cy="0" r="14" />
      <line y1="0" x2="-20" stroke="#CC0000" x1="-30" fill="none" stroke-width="2" y2="0" />
      <line y1="0" x2="20" stroke="#CC0000" x1="30" fill="none" stroke-width="2" y2="0" />
      <polyline stroke="#CC0000" points="-7,6 4,8  " stroke-linejoin="round" fill="none" stroke-width="2" stroke-linecap="round" />
      <polyline stroke="#CC0000" points="-7,-6 4,-8  " stroke-linejoin="round" fill="none" stroke-width="2" stroke-linecap="round" />
      <polyline stroke="#CC0000" points="-20,0 -15,0  " stroke-linejoin="round" fill="none" stroke-width="2" stroke-linecap="round" />
      <polyline stroke="#CC0000" points="20,0 15,0  " stroke-linejoin="round" fill="none" stroke-width="2" stroke-linecap="round" />
      <polyline stroke="#CC0000" points="-7,-6 -7,6  " stroke-linejoin="round" fill="none" stroke-width="2" stroke-linecap="round" />
      <polyline stroke="#CC0000" points="4,-8 4,-11  " stroke-linejoin="round" fill="none" stroke-width="2" stroke-linecap="round" />
      <polyline stroke="#CC0000" points="4,8 4,11  " stroke-linejoin="round" fill="none" stroke-width="2" stroke-linecap="round" />
      <line x1="23" y1="-13" x2="23" y2="-7" stroke="#CC0000" fill="none" stroke-width="2" stroke-linecap="round" />
      <line x1="-23" y1="-13" x2="-23" y2="-7" stroke="#CC0000" fill="none" stroke-width="2" stroke-linecap="round" />
      <line x1="-26" y1="-10" x2="-20" y2="-10" stroke="#CC0000" fill="none" stroke-width="2" stroke-linecap="round" />
    </g>
    <g id="WB_CURRENT_LOAD">
      <circle xmlns="" opacity="0.01" fill="#ffffff" stroke="#000000" stroke-width="0" cx="0" cy="0" r="14" />
      <path fill="none" stroke="#CC0000" stroke-width="2" stroke-linecap="round" stroke-linejoin="round" d="M-15,0c 0.1, 4.2, 1.6, 7.7, 4.4, 10.6c 2.8, 2.8, 6.4, 4.3, 10.6, 4.4c 4.3-0.1, 7.8-1.6, 10.6 -4.4c 2.9-2.9, 4.3-6.4, 4.4-10.6" />
      <path fill="none" stroke="#CC0000" stroke-width="2" stroke-linecap="round" stroke-linejoin="round" d="M15,0c -0.1,-4.2,-1.6,-7.7,-4.4,-10.6c-2.8,-2.8,-6.4,-4.3,-10.6,-4.4c-4.3,0.1 -7.8,1.6 -10.6,4.4c-2.9,2.9 -4.3,6.4 -4.4,10.6" />
      <line fill="none" stroke="#CC0000" stroke-width="2" x1="30" y1="0" x2="15" y2="0" />
      <line fill="none" stroke="#CC0000" stroke-width="2" x1="-15" y1="0" x2="-30" y2="0" />
      <line fill="none" stroke="#CC0000" stroke-width="2" stroke-linecap="round" stroke-linejoin="round" x1="3" y1="7" x2="12" y2="0" />
      <line fill="none" stroke="#CC0000" stroke-width="2" stroke-linecap="round" stroke-linejoin="round" x1="3" y1="-7" x2="12" y2="0" />
      <line fill="none" stroke="#CC0000" stroke-width="2" stroke-linecap="round" stroke-linejoin="round" x1="12" y1="0" x2="-12" y2="0" />
    </g>
    <g id="WB_PRIM_AC_VOLTAGE_SOURCE">
      <circle xmlns="" opacity="0.01" fill="#ffffff" stroke="#000000" stroke-width="0" cx="0" cy="0" r="14" />
      <circle fill-opacity="0.01" fill="#CC0000" stroke="#CC0000" stroke-width="2" cx="0" cy="0" r="14" />
      <line y1="0" x2="-20" stroke="#CC0000" x1="-30" fill="none" stroke-width="2" y2="0" />
      <line y1="0" x2="20" stroke="#CC0000" x1="30" fill="none" stroke-width="2" y2="0" />
      <polyline stroke="#CC0000" points="-20,0 -15,0  " stroke-linejoin="round" fill="none" stroke-width="2" stroke-linecap="round" />
      <polyline stroke="#CC0000" points="20,0 15,0  " stroke-linejoin="round" fill="none" stroke-width="2" stroke-linecap="round" />
      <path stroke="#CC0000" d="M0,10A5,5 0 0,1 0,0 " fill="none" stroke-width="2" stroke-linecap="round" />
      <path stroke="#CC0000" d="M0-10A5,5 0 1,1 0,0 " fill="none" stroke-width="2" stroke-linecap="round" />
      <line x1="23" y1="-13" x2="23" y2="-7" stroke="#CC0000" fill="none" stroke-width="2" stroke-linecap="round" />
      <line x1="-23" y1="-13" x2="-23" y2="-7" stroke="#CC0000" fill="none" stroke-width="2" stroke-linecap="round" />
      <line x1="-26" y1="-10" x2="-20" y2="-10" stroke="#CC0000" fill="none" stroke-width="2" stroke-linecap="round" />
    </g>
    <g id="WB_PRIMITIVE_CAPACITOR">
      <circle xmlns="" opacity="0.01" fill="#ffffff" stroke="#000000" stroke-width="0" cx="0" cy="0" r="14" />
      <line y1="0" x2="20" stroke="#CC0000" x1="30" fill="none" stroke-width="2" y2="0" />
      <line y1="0" x2="-20" stroke="#CC0000" x1="-30" fill="none" stroke-width="2" y2="0" />
      <polyline stroke="#CC0000" points="3,12 3,-12  " stroke-linejoin="round" fill="none" stroke-width="2" stroke-linecap="round" />
      <polyline stroke="#CC0000" points="-20,0 -3,0  " stroke-linejoin="round" fill="none" stroke-width="2" stroke-linecap="round" />
      <polyline stroke="#CC0000" points="3,0 20,0  " stroke-linejoin="round" fill="none" stroke-width="2" stroke-linecap="round" />
      <polyline stroke="#CC0000" points="-3,12 -3,-12  " stroke-linejoin="round" fill="none" stroke-width="2" stroke-linecap="round" />
    </g>
    <g id="WB_PRIMITIVE_INDUCTOR">
      <circle xmlns="" opacity="0.01" fill="#ffffff" stroke="#000000" stroke-width="0" cx="0" cy="0" r="14" />
      <path fill="none" stroke="#CC0000" stroke-width="2" stroke-linecap="round" stroke-linejoin="round" d="M-10,0c0-0.6-0.2-1.8-0.6-3.3c-0.5-2.4-2-3.7-4.4-4c-2.4,0.3-3.8,1.6-4.3,4c-0.6,2.3-0.8,3.6-0.7,3M-20,0H-30" />
      <path fill="none" stroke="#CC0000" stroke-width="2" stroke-linecap="round" stroke-linejoin="round" d="M0,0c0-0.6-0.2-1.8-0.6-3.3c-0.5-2.4-2-3.7-4.4-4c-2.4,0.3-3.8,1.6-4.3,4c-0.6,2.3-0.8,3.6-0.7,4" />
      <path fill="none" stroke="#CC0000" stroke-width="2" stroke-linecap="round" stroke-linejoin="round" d="M10,0c0-0.6-0.2-1.8-0.6-3.3c-0.5-2.4-2-3.7-4.4-4c-2.4,0.3-3.8,1.6-4.3,4c-0.6,2.3-0.8,3.6-0.7,4" />
      <path fill="none" stroke="#CC0000" stroke-width="2" stroke-linecap="round" stroke-linejoin="round" d="M30,0H20c0-0.6-0.2-1.8-0.6-3.3c-0.5-2.4-2-3.7-4.4-4c-2.4,0.3-3.8,1.6-4.3,4c-0.6,2.3-0.8,3.6-0.7,4" />
      <path fill="none" stroke="#CC0000" stroke-width="2" stroke-linecap="round" stroke-linejoin="round" d=" M10,0 c0.1,0.4,0.1,0.6,0,0.7" />
      <path fill="none" stroke="#CC0000" stroke-width="2" stroke-linecap="round" stroke-linejoin="round" d=" M0,0  c0.1,0.4,0.1,0.6,0,0.7" />
      <path fill="none" stroke="#CC0000" stroke-width="2" stroke-linecap="round" stroke-linejoin="round" d=" M-10,0c0.1,0.4,0.1,0.6,0,0.7" />
    </g>
    <g id="WB_LOAD_RESISTOR">
      <circle xmlns="" opacity="0.01" fill="#ffffff" stroke="#000000" stroke-width="0" cx="0" cy="0" r="14" />
      <polyline fill="none" stroke="#CC0000" stroke-width="2" stroke-linecap="round" stroke-linejoin="round" points="30,0 20,0 15,-6 7.5,6 0,-6 -7.5,6 -15,-6 -20,0 -30,0" />
    </g>
    <g id="WB_PWL_VOLTAGE_SOURCE">
      <circle xmlns="" opacity="0.01" fill="#ffffff" stroke="#000000" stroke-width="0" cx="0" cy="0" r="14" />
      <circle fill-opacity="0.01" fill="#CC0000" stroke="#CC0000" stroke-width="2" cx="0" cy="0" r="14" />
      <line y1="0" x2="-20" stroke="#CC0000" x1="-30" fill="none" stroke-width="2" y2="0" />
      <line y1="0" x2="20" stroke="#CC0000" x1="30" fill="none" stroke-width="2" y2="0" />
      <polyline stroke="#CC0000" points="-7,6 4,8  " stroke-linejoin="round" fill="none" stroke-width="2" stroke-linecap="round" />
      <polyline stroke="#CC0000" points="-7,-6 4,-8  " stroke-linejoin="round" fill="none" stroke-width="2" stroke-linecap="round" />
      <polyline stroke="#CC0000" points="-20,0 -15,0  " stroke-linejoin="round" fill="none" stroke-width="2" stroke-linecap="round" />
      <polyline stroke="#CC0000" points="20,0 15,0  " stroke-linejoin="round" fill="none" stroke-width="2" stroke-linecap="round" />
      <polyline stroke="#CC0000" points="-7,-6 -7,6  " stroke-linejoin="round" fill="none" stroke-width="2" stroke-linecap="round" />
      <polyline stroke="#CC0000" points="4,-8 4,-11  " stroke-linejoin="round" fill="none" stroke-width="2" stroke-linecap="round" />
      <polyline stroke="#CC0000" points="4,8 4,11  " stroke-linejoin="round" fill="none" stroke-width="2" stroke-linecap="round" />
      <line x1="23" y1="-13" x2="23" y2="-7" stroke="#CC0000" fill="none" stroke-width="2" stroke-linecap="round" />
      <line x1="-23" y1="-13" x2="-23" y2="-7" stroke="#CC0000" fill="none" stroke-width="2" stroke-linecap="round" />
      <line x1="-26" y1="-10" x2="-20" y2="-10" stroke="#CC0000" fill="none" stroke-width="2" stroke-linecap="round" />
    </g>
    <g id="WB_PRIM_PWL_VOLTAGE_SOURCE">
      <circle xmlns="" opacity="0.01" fill="#ffffff" stroke="#000000" stroke-width="0" cx="0" cy="0" r="14" />
      <circle fill-opacity="0.01" fill="#CC0000" stroke="#CC0000" stroke-width="2" cx="0" cy="0" r="14" />
      <line x1="-30" y1="0" x2="-15" y2="0" stroke="#CC0000" fill="none" stroke-width="2" />
      <line x1="30" y1="0" x2="15" y2="0" stroke="#CC0000" fill="none" stroke-width="2" />
      <polyline stroke="#CC0000" points="0,13 0,8 -7,6 -7,0 7,-4 0,-8 0,-13" stroke-linejoin="round" fill="none" stroke-width="2" stroke-linecap="round" />
      <line x1="23" y1="-13" x2="23" y2="-7" stroke="#CC0000" fill="none" stroke-width="2" stroke-linecap="round" />
      <line x1="-23" y1="-13" x2="-23" y2="-7" stroke="#CC0000" fill="none" stroke-width="2" stroke-linecap="round" />
      <line x1="-26" y1="-10" x2="-20" y2="-10" stroke="#CC0000" fill="none" stroke-width="2" stroke-linecap="round" />
    </g>
    <g id="WB_PRIMITIVE_BATTERY">
      <circle xmlns="" opacity="0.01" fill="#ffffff" stroke="#000000" stroke-width="0" cx="0" cy="0" r="14" />
      <line fill="none" stroke="#CC0000" stroke-width="2" x1="-8" y1="0" x2="-30" y2="0" />
      <line fill="none" stroke="#CC0000" stroke-width="2" x1="-7" y1="12" x2="-7" y2="-12" />
      <line fill="none" stroke="#CC0000" stroke-width="2" x1="4" y1="12" x2="4" y2="-12" />
      <line fill="none" stroke="#CC0000" stroke-width="2" x1="30" y1="0" x2="11" y2="0" />
      <line fill="none" stroke="#CC0000" stroke-width="2" x1="-2" y1="5" x2="-2" y2="-5" />
      <line fill="none" stroke="#CC0000" stroke-width="2" x1="-1" y1="5" x2="-1" y2="-5" />
      <line fill="none" stroke="#CC0000" stroke-width="2" x1="-14" y1="-9" x2="-14" y2="-15" />
      <line fill="none" stroke="#CC0000" stroke-width="2" x1="-11" y1="-12" x2="-17" y2="-12" />
      <line fill="none" stroke="#CC0000" stroke-width="2" x1="13" y1="-10" x2="13" y2="-15" />
      <line fill="none" stroke="#CC0000" stroke-width="2" x1="10" y1="5" x2="10" y2="-5" />
      <line fill="none" stroke="#CC0000" stroke-width="2" x1="9" y1="5" x2="9" y2="-5" />
    </g>
    <g id="WB_BATTERY">
      <circle xmlns="" opacity="0.01" fill="#ffffff" stroke="#000000" stroke-width="0" cx="0" cy="0" r="14" />
      <line fill="none" stroke="#CC0000" stroke-width="2" x1="-8" y1="0" x2="-30" y2="0" />
      <line fill="none" stroke="#CC0000" stroke-width="2" x1="-7" y1="12" x2="-7" y2="-12" />
      <line fill="none" stroke="#CC0000" stroke-width="2" x1="4" y1="12" x2="4" y2="-12" />
      <line fill="none" stroke="#CC0000" stroke-width="2" x1="30" y1="0" x2="11" y2="0" />
      <line fill="none" stroke="#CC0000" stroke-width="2" x1="-2" y1="5" x2="-2" y2="-5" />
      <line fill="none" stroke="#CC0000" stroke-width="2" x1="-1" y1="5" x2="-1" y2="-5" />
      <line fill="none" stroke="#CC0000" stroke-width="2" x1="-14" y1="-9" x2="-14" y2="-15" />
      <line fill="none" stroke="#CC0000" stroke-width="2" x1="-11" y1="-12" x2="-17" y2="-12" />
      <line fill="none" stroke="#CC0000" stroke-width="2" x1="13" y1="-10" x2="13" y2="-15" />
      <line fill="none" stroke="#CC0000" stroke-width="2" x1="10" y1="5" x2="10" y2="-5" />
      <line fill="none" stroke="#CC0000" stroke-width="2" x1="9" y1="5" x2="9" y2="-5" />
    </g>
  </defs>
  <use id="Cff" class="comp" xlink:href="#WB_CAPACITOR" x="1025.0" y="255.0" transform="rotate(-90, 1025.0, 255.0)" cap="15pF" partNo="C0402C150J4GACTU" thermalId="0402" esr="0Ohm" manufacturer="Kemet" />
  <text for="Cff" x="1040.0" y="255.0" style="font-family:arial;font-size:13px;stroke-width:0.5;stroke:#115566;fill:#115566;">Cff</text>
  <text for="Cff" x="1040.0" y="265.0" style="font-family:arial;font-size:10px;stroke-width:0.1;stroke:#CC0000;fill:#CC0000;">15pF</text>
  <text for="Cff" x="1040.0" y="275.0" style="font-family:arial;font-size:10px;stroke-width:0.1;stroke:#CC0000;fill:#CC0000;">0Ohm</text>
  <use id="Cboot" class="comp" xlink:href="#WB_CAPACITOR" x="795.0" y="140.0" transform="rotate(-90, 795.0, 140.0)" cap="100nF" partNo="GRM155R71A104KA01D" thermalId="0402" esr="1mOhm" manufacturer="MuRata" />
  <text for="Cboot" x="810.0" y="140.0" style="font-family:arial;font-size:13px;stroke-width:0.5;stroke:#115566;fill:#115566;">Cboot</text>
  <text for="Cboot" x="810.0" y="150.0" style="font-family:arial;font-size:10px;stroke-width:0.1;stroke:#CC0000;fill:#CC0000;">100nF</text>
  <text for="Cboot" x="810.0" y="160.0" style="font-family:arial;font-size:10px;stroke-width:0.1;stroke:#CC0000;fill:#CC0000;">1mOhm</text>
  <use id="Cvcc" class="comp" xlink:href="#WB_CAPACITOR" x="540.0" y="360.0" transform="rotate(-90, 540.0, 360.0)" cap="1uF" partNo="GRM188R60J105KA01D" thermalId="0603" esr="6.065mOhm" manufacturer="MuRata" />
  <text for="Cvcc" x="555.0" y="360.0" style="font-family:arial;font-size:13px;stroke-width:0.5;stroke:#115566;fill:#115566;">Cvcc</text>
  <text for="Cvcc" x="555.0" y="370.0" style="font-family:arial;font-size:10px;stroke-width:0.1;stroke:#CC0000;fill:#CC0000;">1uF</text>
  <text for="Cvcc" x="555.0" y="380.0" style="font-family:arial;font-size:10px;stroke-width:0.1;stroke:#CC0000;fill:#CC0000;">6.065mOhm</text>
  <use id="Cout" class="comp" xlink:href="#WB_CAPACITOR" x="1170.0" y="300.0" transform="rotate(-90, 1170.0, 300.0)" cap="100uF" partNo="GRM32EC80J107ME20L" thermalId="1210_270" esr="1mOhm" manufacturer="MuRata" />
  <text for="Cout" x="1185.0" y="300.0" style="font-family:arial;font-size:13px;stroke-width:0.5;stroke:#115566;fill:#115566;">Cout</text>
  <text for="Cout" x="1185.0" y="310.0" style="font-family:arial;font-size:10px;stroke-width:0.1;stroke:#CC0000;fill:#CC0000;">100uF</text>
  <text for="Cout" x="1185.0" y="320.0" style="font-family:arial;font-size:10px;stroke-width:0.1;stroke:#CC0000;fill:#CC0000;">1mOhm</text>
  <use id="Coutx" class="comp" xlink:href="#WB_CAPACITOR" x="1255.0" y="300.0" transform="rotate(-90, 1255.0, 300.0)" cap="100nF" partNo="GRM188R71H104KA93D" thermalId="0603" esr="20mOhm" manufacturer="MuRata" />
  <text for="Coutx" x="1270.0" y="300.0" style="font-family:arial;font-size:13px;stroke-width:0.5;stroke:#115566;fill:#115566;">Coutx</text>
  <text for="Coutx" x="1270.0" y="310.0" style="font-family:arial;font-size:10px;stroke-width:0.1;stroke:#CC0000;fill:#CC0000;">100nF</text>
  <text for="Coutx" x="1270.0" y="320.0" style="font-family:arial;font-size:10px;stroke-width:0.1;stroke:#CC0000;fill:#CC0000;">20mOhm</text>
  <use id="Cin" class="comp" xlink:href="#WB_CAPACITOR" x="185.0" y="290.0" transform="rotate(-90, 185.0, 290.0)" cap="4.7uF" partNo="C2012X5R1H475K125AB" thermalId="0805" esr="1mOhm" manufacturer="TDK" />
  <text for="Cin" x="200.0" y="290.0" style="font-family:arial;font-size:13px;stroke-width:0.5;stroke:#115566;fill:#115566;">Cin</text>
  <text for="Cin" x="200.0" y="300.0" style="font-family:arial;font-size:10px;stroke-width:0.1;stroke:#CC0000;fill:#CC0000;">4.7uF</text>
  <text for="Cin" x="200.0" y="310.0" style="font-family:arial;font-size:10px;stroke-width:0.1;stroke:#CC0000;fill:#CC0000;">1mOhm</text>
  <use id="U1" class="comp" xlink:href="#WB_LM60440DRPK" x="550.0" y="165.0" />
  <text for="U1" x="530.0" y="165.0" style="font-family:arial;font-size:13px;stroke-width:0.5;stroke:#115566;fill:#115566;">U1</text>
  <use id="Rfbt" class="comp" xlink:href="#WB_RESISTOR" x="1100.0" y="245.0" transform="rotate(-90, 1100.0, 245.0)" partNo="CRCW0402100KFKED" thermalId="0402" resistance="100kOhm" manufacturer="Vishay-Dale" />
  <text for="Rfbt" x="1115.0" y="245.0" style="font-family:arial;font-size:13px;stroke-width:0.5;stroke:#115566;fill:#115566;">Rfbt</text>
  <text for="Rfbt" x="1115.0" y="255.0" style="font-family:arial;font-size:10px;stroke-width:0.1;stroke:#CC0000;fill:#CC0000;">100kOhm</text>
  <use id="Rfbb" class="comp" xlink:href="#WB_RESISTOR" x="1100.0" y="345.0" transform="rotate(-90, 1100.0, 345.0)" partNo="CRCW040243K2FKED" thermalId="0402" resistance="43.2kOhm" manufacturer="Vishay-Dale" />
  <text for="Rfbb" x="1115.0" y="345.0" style="font-family:arial;font-size:13px;stroke-width:0.5;stroke:#115566;fill:#115566;">Rfbb</text>
  <text for="Rfbb" x="1115.0" y="355.0" style="font-family:arial;font-size:10px;stroke-width:0.1;stroke:#CC0000;fill:#CC0000;">43.2kOhm</text>
  <use id="Rpg" class="comp" xlink:href="#WB_RESISTOR" x="825.0" y="235.0" partNo="CRCW0603100KFKEA" thermalId="0603" resistance="100kOhm" manufacturer="Vishay-Dale" />
  <text for="Rpg" x="805.0" y="220.0" style="font-family:arial;font-size:13px;stroke-width:0.5;stroke:#115566;fill:#115566;">Rpg</text>
  <text for="Rpg" x="805.0" y="255.0" style="font-family:arial;font-size:10px;stroke-width:0.1;stroke:#CC0000;fill:#CC0000;">100kOhm</text>
  <use id="GND" class="other" xlink:href="#WB_GND" x="610.0" y="430.0" />
  <use id="L1" class="comp" xlink:href="#WB_INDUCTOR" x="900.0" y="195.0" partNo="XAL6060-472MEB" thermalId="XAL6060" l="4.7uH" dcr="13.1mOhm" manufacturer="Coilcraft" />
  <text for="L1" x="880.0" y="180.0" style="font-family:arial;font-size:13px;stroke-width:0.5;stroke:#115566;fill:#115566;">L1</text>
  <text for="L1" x="880.0" y="215.0" style="font-family:arial;font-size:10px;stroke-width:0.1;stroke:#CC0000;fill:#CC0000;">4.7uH</text>
  <text for="L1" x="880.0" y="225.0" style="font-family:arial;font-size:10px;stroke-width:0.1;stroke:#CC0000;fill:#CC0000;">13.1mOhm</text>
  <use id="Cinx" class="comp" xlink:href="#WB_CAPACITOR" x="275.0" y="290.0" transform="rotate(-90, 275.0, 290.0)" cap="220nF" partNo="UMK212B7224KG-T" thermalId="0805" esr="1mOhm" manufacturer="Taiyo Yuden" />
  <text for="Cinx" x="290.0" y="290.0" style="font-family:arial;font-size:13px;stroke-width:0.5;stroke:#115566;fill:#115566;">Cinx</text>
  <text for="Cinx" x="290.0" y="300.0" style="font-family:arial;font-size:10px;stroke-width:0.1;stroke:#CC0000;fill:#CC0000;">220nF</text>
  <text for="Cinx" x="290.0" y="310.0" style="font-family:arial;font-size:10px;stroke-width:0.1;stroke:#CC0000;fill:#CC0000;">1mOhm</text>
  <use id="Cinx_ch1" class="comp" xlink:href="#WB_CAPACITOR" x="360.0" y="290.0" transform="rotate(-90, 360.0, 290.0)" cap="220nF" partNo="UMK212B7224KG-T" thermalId="0805" esr="1mOhm" manufacturer="Taiyo Yuden" />
  <text for="Cinx_ch1" x="375.0" y="290.0" style="font-family:arial;font-size:13px;stroke-width:0.5;stroke:#115566;fill:#115566;">Cinx_ch1</text>
  <text for="Cinx_ch1" x="375.0" y="300.0" style="font-family:arial;font-size:10px;stroke-width:0.1;stroke:#CC0000;fill:#CC0000;">220nF</text>
  <text for="Cinx_ch1" x="375.0" y="310.0" style="font-family:arial;font-size:10px;stroke-width:0.1;stroke:#CC0000;fill:#CC0000;">1mOhm</text>
  <use id="Iout" class="other" xlink:href="#WB_CURRENT_LOAD" x="1445.0" y="335.0" transform="rotate(-270, 1445.0, 335.0)" />
  <text for="Iout" x="1460.0" y="335.0" style="font-family:arial;font-size:13px;stroke-width:0.5;stroke:#CC0000;fill:#CC0000;">Iout</text>
  <use id="Vin" class="other" xlink:href="#WB_BATTERY" x="100.0" y="275.0" transform="rotate(-270, 100.0, 275.0)" />
  <text for="Vin" x="115.0" y="275.0" style="font-family:arial;font-size:13px;stroke-width:0.5;stroke:#CC0000;fill:#CC0000;">Vin</text>
  <line x1="1025.0" y1="300.0" x2="1025.0" y2="285.0" stroke="#000000" stroke-width="2" fill="none" />
  <line x1="1025.0" y1="225.0" x2="1025.0" y2="195.0" stroke="#000000" stroke-width="2" fill="none" />
  <line x1="1100.0" y1="315.0" x2="1100.0" y2="275.0" stroke="#000000" stroke-width="2" fill="none" />
  <line x1="1100.0" y1="415.0" x2="1100.0" y2="375.0" stroke="#000000" stroke-width="2" fill="none" />
  <line x1="1100.0" y1="215.0" x2="1100.0" y2="195.0" stroke="#000000" stroke-width="2" fill="none" />
  <line x1="855.0" y1="235.0" x2="980.0" y2="235.0" stroke="#000000" stroke-width="2" fill="none" />
  <line x1="980.0" y1="235.0" x2="980.0" y2="195.0" stroke="#000000" stroke-width="2" fill="none" />
  <line x1="710.0" y1="235.0" x2="795.0" y2="235.0" stroke="#000000" stroke-width="2" fill="none" />
  <line x1="530.0" y1="215.0" x2="550.0" y2="215.0" stroke="#000000" stroke-width="2" fill="none" />
  <line x1="710.0" y1="185.0" x2="725.0" y2="185.0" stroke="#000000" stroke-width="2" fill="none" />
  <line x1="1255.0" y1="330.0" x2="1255.0" y2="415.0" stroke="#000000" stroke-width="2" fill="none" />
  <line x1="735.0" y1="215.0" x2="735.0" y2="300.0" stroke="#000000" stroke-width="2" fill="none" />
  <line x1="185.0" y1="320.0" x2="185.0" y2="415.0" stroke="#000000" stroke-width="2" fill="none" />
  <line x1="710.0" y1="165.0" x2="710.0" y2="110.0" stroke="#000000" stroke-width="2" fill="none" />
  <line x1="610.0" y1="420.0" x2="610.0" y2="415.0" stroke="#000000" stroke-width="2" fill="none" />
  <line x1="725.0" y1="195.0" x2="725.0" y2="185.0" stroke="#000000" stroke-width="2" fill="none" />
  <line x1="795.0" y1="170.0" x2="795.0" y2="195.0" stroke="#000000" stroke-width="2" fill="none" />
  <line x1="710.0" y1="215.0" x2="735.0" y2="215.0" stroke="#000000" stroke-width="2" fill="none" />
  <line x1="795.0" y1="110.0" x2="710.0" y2="110.0" stroke="#000000" stroke-width="2" fill="none" />
  <line x1="550.0" y1="175.0" x2="530.0" y2="175.0" stroke="#000000" stroke-width="2" fill="none" />
  <line x1="360.0" y1="320.0" x2="360.0" y2="415.0" stroke="#000000" stroke-width="2" fill="none" />
  <line x1="540.0" y1="390.0" x2="540.0" y2="415.0" stroke="#000000" stroke-width="2" fill="none" />
  <line x1="710.0" y1="255.0" x2="720.0" y2="255.0" stroke="#000000" stroke-width="2" fill="none" />
  <line x1="360.0" y1="260.0" x2="360.0" y2="165.0" stroke="#000000" stroke-width="2" fill="none" />
  <line x1="530.0" y1="165.0" x2="530.0" y2="215.0" stroke="#000000" stroke-width="2" fill="none" />
  <line x1="540.0" y1="330.0" x2="540.0" y2="195.0" stroke="#000000" stroke-width="2" fill="none" />
  <line x1="735.0" y1="300.0" x2="1100.0" y2="300.0" stroke="#000000" stroke-width="2" fill="none" />
  <line x1="275.0" y1="320.0" x2="275.0" y2="415.0" stroke="#000000" stroke-width="2" fill="none" />
  <line x1="1170.0" y1="330.0" x2="1170.0" y2="415.0" stroke="#000000" stroke-width="2" fill="none" />
  <line x1="550.0" y1="195.0" x2="540.0" y2="195.0" stroke="#000000" stroke-width="2" fill="none" />
  <line x1="1255.0" y1="195.0" x2="1255.0" y2="270.0" stroke="#000000" stroke-width="2" fill="none" />
  <line x1="720.0" y1="255.0" x2="720.0" y2="415.0" stroke="#000000" stroke-width="2" fill="none" />
  <line x1="710.0" y1="265.0" x2="720.0" y2="265.0" stroke="#000000" stroke-width="2" fill="none" />
  <line x1="275.0" y1="165.0" x2="275.0" y2="260.0" stroke="#000000" stroke-width="2" fill="none" />
  <line x1="710.0" y1="285.0" x2="720.0" y2="285.0" stroke="#000000" stroke-width="2" fill="none" />
  <line x1="710.0" y1="275.0" x2="720.0" y2="275.0" stroke="#000000" stroke-width="2" fill="none" />
  <line x1="100.0" y1="415.0" x2="1445.0" y2="415.0" stroke="#000000" stroke-width="2" fill="none" />
  <line x1="1170.0" y1="270.0" x2="1170.0" y2="195.0" stroke="#000000" stroke-width="2" fill="none" />
  <line x1="710.0" y1="195.0" x2="870.0" y2="195.0" stroke="#000000" stroke-width="2" fill="none" />
  <line x1="185.0" y1="260.0" x2="185.0" y2="165.0" stroke="#000000" stroke-width="2" fill="none" />
  <line x1="100.0" y1="165.0" x2="550.0" y2="165.0" stroke="#000000" stroke-width="2" fill="none" />
  <line x1="930.0" y1="195.0" x2="1445.0" y2="195.0" stroke="#000000" stroke-width="2" fill="none" />
  <line x1="1445.0" y1="305.0" x2="1445.0" y2="195.0" stroke="#000000" stroke-width="2" fill="none" />
  <line x1="1445.0" y1="415.0" x2="1445.0" y2="365.0" stroke="#000000" stroke-width="2" fill="none" />
  <line x1="100.0" y1="245.0" x2="100.0" y2="165.0" stroke="#000000" stroke-width="2" fill="none" />
  <line x1="100.0" y1="415.0" x2="100.0" y2="305.0" stroke="#000000" stroke-width="2" fill="none" />
  <circle cx="1100.0" cy="300.0" r="5" stroke="#000000" stroke-width="0" fill="#000000" />
  <circle cx="530.0" cy="175.0" r="5" stroke="#000000" stroke-width="0" fill="#000000" />
  <circle cx="1025.0" cy="300.0" r="5" stroke="#000000" stroke-width="0" fill="#000000" />
  <circle cx="720.0" cy="265.0" r="5" stroke="#000000" stroke-width="0" fill="#000000" />
  <circle cx="720.0" cy="285.0" r="5" stroke="#000000" stroke-width="0" fill="#000000" />
  <circle cx="720.0" cy="275.0" r="5" stroke="#000000" stroke-width="0" fill="#000000" />
  <circle cx="1100.0" cy="415.0" r="5" stroke="#000000" stroke-width="0" fill="#000000" />
  <circle cx="1255.0" cy="415.0" r="5" stroke="#000000" stroke-width="0" fill="#000000" />
  <circle cx="185.0" cy="415.0" r="5" stroke="#000000" stroke-width="0" fill="#000000" />
  <circle cx="610.0" cy="415.0" r="5" stroke="#000000" stroke-width="0" fill="#000000" />
  <circle cx="360.0" cy="415.0" r="5" stroke="#000000" stroke-width="0" fill="#000000" />
  <circle cx="540.0" cy="415.0" r="5" stroke="#000000" stroke-width="0" fill="#000000" />
  <circle cx="275.0" cy="415.0" r="5" stroke="#000000" stroke-width="0" fill="#000000" />
  <circle cx="1170.0" cy="415.0" r="5" stroke="#000000" stroke-width="0" fill="#000000" />
  <circle cx="720.0" cy="415.0" r="5" stroke="#000000" stroke-width="0" fill="#000000" />
  <circle cx="725.0" cy="195.0" r="5" stroke="#000000" stroke-width="0" fill="#000000" />
  <circle cx="795.0" cy="195.0" r="5" stroke="#000000" stroke-width="0" fill="#000000" />
  <circle cx="360.0" cy="165.0" r="5" stroke="#000000" stroke-width="0" fill="#000000" />
  <circle cx="530.0" cy="165.0" r="5" stroke="#000000" stroke-width="0" fill="#000000" />
  <circle cx="275.0" cy="165.0" r="5" stroke="#000000" stroke-width="0" fill="#000000" />
  <circle cx="185.0" cy="165.0" r="5" stroke="#000000" stroke-width="0" fill="#000000" />
  <circle cx="1025.0" cy="195.0" r="5" stroke="#000000" stroke-width="0" fill="#000000" />
  <circle cx="1100.0" cy="195.0" r="5" stroke="#000000" stroke-width="0" fill="#000000" />
  <circle cx="980.0" cy="195.0" r="5" stroke="#000000" stroke-width="0" fill="#000000" />
  <circle cx="1255.0" cy="195.0" r="5" stroke="#000000" stroke-width="0" fill="#000000" />
  <circle cx="1170.0" cy="195.0" r="5" stroke="#000000" stroke-width="0" fill="#000000" />
</svg>

