%TF.GenerationSoftware,KiCad,Pcbnew,8.0.5*%
%TF.CreationDate,2025-03-07T14:51:54+05:30*%
%TF.ProjectId,Rapid_Core-RCP,52617069-645f-4436-9f72-652d5243502e,REV 1.0.0*%
%TF.SameCoordinates,PX811ac80PY7212260*%
%TF.FileFunction,Soldermask,Bot*%
%TF.FilePolarity,Negative*%
%FSLAX46Y46*%
G04 Gerber Fmt 4.6, Leading zero omitted, Abs format (unit mm)*
G04 Created by KiCad (PCBNEW 8.0.5) date 2025-03-07 14:51:54*
%MOMM*%
%LPD*%
G01*
G04 APERTURE LIST*
%ADD10R,2.600000X2.600000*%
%ADD11C,2.600000*%
%ADD12R,1.800000X1.400000*%
%ADD13O,1.800000X1.400000*%
%ADD14C,3.000000*%
%ADD15R,1.700000X1.700000*%
%ADD16O,1.700000X1.700000*%
G04 APERTURE END LIST*
D10*
%TO.C,J13*%
X99424000Y79362000D03*
D11*
X94424000Y79362000D03*
%TD*%
D12*
%TO.C,U2*%
X35591500Y47549500D03*
D13*
X35591500Y50089500D03*
X35591500Y52629499D03*
X35591500Y55169500D03*
%TD*%
D14*
%TO.C,TP4*%
X71724000Y74712000D03*
%TD*%
D15*
%TO.C,J7*%
X36524000Y3387000D03*
D16*
X36524000Y5927000D03*
%TD*%
D15*
%TO.C,J2*%
X46234000Y29612000D03*
D16*
X48774000Y29612000D03*
X51313999Y29612000D03*
%TD*%
D10*
%TO.C,J10*%
X124624000Y39312000D03*
D11*
X124624000Y44312000D03*
%TD*%
D15*
%TO.C,J6*%
X119724000Y71832000D03*
D16*
X119724000Y69292000D03*
X119724000Y66752001D03*
X119724000Y64212000D03*
X119724000Y61672000D03*
%TD*%
D12*
%TO.C,U1*%
X69991500Y47349500D03*
D13*
X69991500Y49889500D03*
X69991500Y52429499D03*
X69991500Y54969500D03*
%TD*%
D10*
%TO.C,J1*%
X5424000Y13012000D03*
D11*
X5424000Y8012000D03*
%TD*%
D15*
%TO.C,J5*%
X100964000Y4912000D03*
D16*
X98424000Y4912000D03*
X95884000Y4912000D03*
X93344000Y4912000D03*
X90804000Y4912000D03*
X88264000Y4912000D03*
X85724000Y4912000D03*
X83184000Y4912000D03*
X80644000Y4912000D03*
X78104000Y4912000D03*
X75564000Y4912000D03*
X73024000Y4912000D03*
X70484000Y4912000D03*
X67944000Y4912000D03*
X65404000Y4912000D03*
X62864000Y4912000D03*
X60324000Y4912000D03*
X57784000Y4912000D03*
X55244000Y4912000D03*
X52704000Y4912000D03*
%TD*%
D10*
%TO.C,J11*%
X49324000Y79312000D03*
D11*
X44324000Y79312000D03*
%TD*%
D14*
%TO.C,TP6*%
X20124000Y78512000D03*
%TD*%
D10*
%TO.C,J12*%
X61724000Y79312000D03*
D11*
X56724000Y79312000D03*
%TD*%
D15*
%TO.C,J4*%
X124024000Y27442000D03*
D16*
X124024000Y24902000D03*
X124024000Y22362000D03*
X124024000Y19822000D03*
X124024000Y17282000D03*
X124024000Y14742000D03*
%TD*%
D10*
%TO.C,J14*%
X83824000Y79312000D03*
D11*
X78824000Y79312000D03*
%TD*%
D10*
%TO.C,J8*%
X41424000Y5912000D03*
D11*
X46424000Y5912000D03*
%TD*%
D14*
%TO.C,TP7*%
X33124000Y74912000D03*
%TD*%
%TO.C,TP5*%
X20824000Y69212000D03*
%TD*%
D15*
%TO.C,J9*%
X122124000Y34112000D03*
D16*
X124664000Y34112000D03*
%TD*%
D15*
%TO.C,J3*%
X53249000Y15062000D03*
D16*
X55789000Y15062000D03*
%TD*%
M02*
