%TF.GenerationSoftware,KiCad,Pcbnew,8.0.5*%
%TF.CreationDate,2024-11-25T15:58:14+05:30*%
%TF.ProjectId,Rapid_Core-RCP,52617069-645f-4436-9f72-652d5243502e,rev?*%
%TF.SameCoordinates,Original*%
%TF.FileFunction,Paste,Top*%
%TF.FilePolarity,Positive*%
%FSLAX46Y46*%
G04 Gerber Fmt 4.6, Leading zero omitted, Abs format (unit mm)*
G04 Created by KiCad (PCBNEW 8.0.5) date 2024-11-25 15:58:14*
%MOMM*%
%LPD*%
G01*
G04 APERTURE LIST*
G04 Aperture macros list*
%AMRoundRect*
0 Rectangle with rounded corners*
0 $1 Rounding radius*
0 $2 $3 $4 $5 $6 $7 $8 $9 X,Y pos of 4 corners*
0 Add a 4 corners polygon primitive as box body*
4,1,4,$2,$3,$4,$5,$6,$7,$8,$9,$2,$3,0*
0 Add four circle primitives for the rounded corners*
1,1,$1+$1,$2,$3*
1,1,$1+$1,$4,$5*
1,1,$1+$1,$6,$7*
1,1,$1+$1,$8,$9*
0 Add four rect primitives between the rounded corners*
20,1,$1+$1,$2,$3,$4,$5,0*
20,1,$1+$1,$4,$5,$6,$7,0*
20,1,$1+$1,$6,$7,$8,$9,0*
20,1,$1+$1,$8,$9,$2,$3,0*%
%AMRotRect*
0 Rectangle, with rotation*
0 The origin of the aperture is its center*
0 $1 length*
0 $2 width*
0 $3 Rotation angle, in degrees counterclockwise*
0 Add horizontal line*
21,1,$1,$2,0,0,$3*%
G04 Aperture macros list end*
%ADD10RoundRect,0.160000X-0.197500X-0.160000X0.197500X-0.160000X0.197500X0.160000X-0.197500X0.160000X0*%
%ADD11RoundRect,0.250000X-0.337500X-0.475000X0.337500X-0.475000X0.337500X0.475000X-0.337500X0.475000X0*%
%ADD12C,0.750000*%
%ADD13RoundRect,0.250000X-0.350000X-0.450000X0.350000X-0.450000X0.350000X0.450000X-0.350000X0.450000X0*%
%ADD14RoundRect,0.160000X-0.160000X0.197500X-0.160000X-0.197500X0.160000X-0.197500X0.160000X0.197500X0*%
%ADD15RoundRect,0.250000X-0.550000X1.250000X-0.550000X-1.250000X0.550000X-1.250000X0.550000X1.250000X0*%
%ADD16RoundRect,0.237500X-0.237500X0.287500X-0.237500X-0.287500X0.237500X-0.287500X0.237500X0.287500X0*%
%ADD17RoundRect,0.237500X-0.237500X0.250000X-0.237500X-0.250000X0.237500X-0.250000X0.237500X0.250000X0*%
%ADD18RoundRect,0.250000X0.250000X-0.250000X0.250000X0.250000X-0.250000X0.250000X-0.250000X-0.250000X0*%
%ADD19RoundRect,0.150000X-0.587500X-0.150000X0.587500X-0.150000X0.587500X0.150000X-0.587500X0.150000X0*%
%ADD20R,1.346200X0.889000*%
%ADD21RoundRect,0.250000X-0.650000X0.412500X-0.650000X-0.412500X0.650000X-0.412500X0.650000X0.412500X0*%
%ADD22RoundRect,0.237500X0.300000X0.237500X-0.300000X0.237500X-0.300000X-0.237500X0.300000X-0.237500X0*%
%ADD23RoundRect,0.237500X-0.237500X0.300000X-0.237500X-0.300000X0.237500X-0.300000X0.237500X0.300000X0*%
%ADD24RoundRect,0.225000X-0.225000X-0.250000X0.225000X-0.250000X0.225000X0.250000X-0.225000X0.250000X0*%
%ADD25RoundRect,0.237500X-0.300000X-0.237500X0.300000X-0.237500X0.300000X0.237500X-0.300000X0.237500X0*%
%ADD26RoundRect,0.250000X0.475000X-0.337500X0.475000X0.337500X-0.475000X0.337500X-0.475000X-0.337500X0*%
%ADD27RoundRect,0.237500X0.250000X0.237500X-0.250000X0.237500X-0.250000X-0.237500X0.250000X-0.237500X0*%
%ADD28RoundRect,0.250000X-0.412500X-0.650000X0.412500X-0.650000X0.412500X0.650000X-0.412500X0.650000X0*%
%ADD29RoundRect,0.237500X0.237500X-0.300000X0.237500X0.300000X-0.237500X0.300000X-0.237500X-0.300000X0*%
%ADD30RoundRect,0.250000X-0.475000X0.337500X-0.475000X-0.337500X0.475000X-0.337500X0.475000X0.337500X0*%
%ADD31RoundRect,0.250000X2.050000X0.300000X-2.050000X0.300000X-2.050000X-0.300000X2.050000X-0.300000X0*%
%ADD32RoundRect,0.250000X2.025000X2.375000X-2.025000X2.375000X-2.025000X-2.375000X2.025000X-2.375000X0*%
%ADD33RoundRect,0.237500X0.287500X0.237500X-0.287500X0.237500X-0.287500X-0.237500X0.287500X-0.237500X0*%
%ADD34RoundRect,0.250000X0.450000X-0.350000X0.450000X0.350000X-0.450000X0.350000X-0.450000X-0.350000X0*%
%ADD35RoundRect,0.150000X-0.875000X-0.150000X0.875000X-0.150000X0.875000X0.150000X-0.875000X0.150000X0*%
%ADD36RoundRect,0.250000X0.550000X-1.050000X0.550000X1.050000X-0.550000X1.050000X-0.550000X-1.050000X0*%
%ADD37RoundRect,0.250000X-0.450000X0.350000X-0.450000X-0.350000X0.450000X-0.350000X0.450000X0.350000X0*%
%ADD38RoundRect,0.075000X-0.700000X-0.075000X0.700000X-0.075000X0.700000X0.075000X-0.700000X0.075000X0*%
%ADD39RoundRect,0.075000X-0.075000X-0.700000X0.075000X-0.700000X0.075000X0.700000X-0.075000X0.700000X0*%
%ADD40R,1.250000X1.000000*%
%ADD41RoundRect,0.237500X-0.250000X-0.237500X0.250000X-0.237500X0.250000X0.237500X-0.250000X0.237500X0*%
%ADD42RoundRect,0.250000X0.250000X-0.450000X0.250000X0.450000X-0.250000X0.450000X-0.250000X-0.450000X0*%
%ADD43R,0.450000X1.200000*%
%ADD44RoundRect,0.225000X0.017678X-0.335876X0.335876X-0.017678X-0.017678X0.335876X-0.335876X0.017678X0*%
%ADD45R,1.500000X0.800000*%
%ADD46RoundRect,0.250000X0.337500X0.475000X-0.337500X0.475000X-0.337500X-0.475000X0.337500X-0.475000X0*%
%ADD47RoundRect,0.160000X0.160000X-0.197500X0.160000X0.197500X-0.160000X0.197500X-0.160000X-0.197500X0*%
%ADD48R,5.500000X1.430000*%
%ADD49RoundRect,0.237500X0.237500X-0.250000X0.237500X0.250000X-0.237500X0.250000X-0.237500X-0.250000X0*%
%ADD50R,0.675000X0.250000*%
%ADD51R,0.650000X0.250000*%
%ADD52R,0.350000X0.650000*%
%ADD53R,0.450000X1.450000*%
%ADD54R,0.250000X0.425000*%
%ADD55RotRect,1.150000X1.000000X45.000000*%
%ADD56R,1.800000X0.600000*%
%ADD57R,0.800000X0.300000*%
%ADD58R,1.200000X1.900000*%
%ADD59RoundRect,0.250000X0.350000X0.450000X-0.350000X0.450000X-0.350000X-0.450000X0.350000X-0.450000X0*%
%ADD60RoundRect,0.225000X-0.335876X-0.017678X-0.017678X-0.335876X0.335876X0.017678X0.017678X0.335876X0*%
G04 APERTURE END LIST*
D10*
%TO.C,R32*%
X232838573Y-79985427D03*
X234033573Y-79985427D03*
%TD*%
D11*
%TO.C,C44*%
X238736073Y-109285427D03*
X240811073Y-109285427D03*
%TD*%
D12*
%TO.C,TP37*%
X240836073Y-98925427D03*
%TD*%
D11*
%TO.C,C20*%
X191590573Y-75393427D03*
X193665573Y-75393427D03*
%TD*%
D13*
%TO.C,R24*%
X168336073Y-68785427D03*
X170336073Y-68785427D03*
%TD*%
D14*
%TO.C,R14*%
X237236073Y-66187927D03*
X237236073Y-67382927D03*
%TD*%
D15*
%TO.C,C11*%
X146908073Y-103419427D03*
X146908073Y-107819427D03*
%TD*%
D16*
%TO.C,D8*%
X148186073Y-58472928D03*
X148186073Y-60222926D03*
%TD*%
D17*
%TO.C,R45*%
X137316073Y-58397926D03*
X137316073Y-60222926D03*
%TD*%
D18*
%TO.C,D3*%
X178236073Y-57235426D03*
X178236073Y-54735428D03*
%TD*%
D10*
%TO.C,R13*%
X205658573Y-66045427D03*
X206853573Y-66045427D03*
%TD*%
D17*
%TO.C,R47*%
X150096073Y-58422927D03*
X150096073Y-60247927D03*
%TD*%
D19*
%TO.C,D5*%
X243898573Y-76035427D03*
X243898573Y-77935427D03*
X245773573Y-76985427D03*
%TD*%
D20*
%TO.C,L5*%
X229501608Y-95671427D03*
X229501608Y-98171427D03*
X234051606Y-98171427D03*
X234051606Y-95671427D03*
%TD*%
D21*
%TO.C,C7*%
X149136073Y-70122926D03*
X149136073Y-73247926D03*
%TD*%
D22*
%TO.C,C22*%
X182258574Y-93595427D03*
X180533572Y-93595427D03*
%TD*%
D23*
%TO.C,C55*%
X206336073Y-71922926D03*
X206336073Y-73647928D03*
%TD*%
D16*
%TO.C,D7*%
X139066073Y-58435427D03*
X139066073Y-60185425D03*
%TD*%
D14*
%TO.C,R28*%
X236736073Y-75187927D03*
X236736073Y-76382927D03*
%TD*%
D23*
%TO.C,C36*%
X223086073Y-61060425D03*
X223086073Y-62785427D03*
%TD*%
D24*
%TO.C,C26*%
X157561073Y-81085427D03*
X159111073Y-81085427D03*
%TD*%
D12*
%TO.C,TP36*%
X240766073Y-95035427D03*
%TD*%
D25*
%TO.C,C21*%
X191721073Y-77415427D03*
X193446073Y-77415427D03*
%TD*%
D26*
%TO.C,C48*%
X165714071Y-64725927D03*
X165714071Y-62650927D03*
%TD*%
D12*
%TO.C,TP34*%
X204521573Y-95104427D03*
%TD*%
D27*
%TO.C,R35*%
X232948573Y-92473427D03*
X231123573Y-92473427D03*
%TD*%
D28*
%TO.C,C47*%
X187873573Y-61685427D03*
X190998573Y-61685427D03*
%TD*%
D19*
%TO.C,D2*%
X244236073Y-108335427D03*
X244236073Y-110235427D03*
X246111073Y-109285427D03*
%TD*%
D29*
%TO.C,C32*%
X205836073Y-63135427D03*
X205836073Y-61410425D03*
%TD*%
D12*
%TO.C,TP24*%
X172436073Y-68785427D03*
%TD*%
D30*
%TO.C,C28*%
X158514073Y-74151927D03*
X158514073Y-76226927D03*
%TD*%
D17*
%TO.C,R25*%
X163836073Y-55072927D03*
X163836073Y-56897927D03*
%TD*%
D23*
%TO.C,C59*%
X224436073Y-92297926D03*
X224436073Y-94022928D03*
%TD*%
D31*
%TO.C,U1*%
X138511073Y-103985427D03*
X138511072Y-102285427D03*
X138511073Y-100585427D03*
D32*
X131786073Y-103360427D03*
X131786073Y-97810427D03*
X126936073Y-103360427D03*
X126936073Y-97810427D03*
D31*
X138511072Y-98885427D03*
X138511073Y-97185427D03*
%TD*%
D33*
%TO.C,D9*%
X144157573Y-113339427D03*
X142407575Y-113339427D03*
%TD*%
D12*
%TO.C,TP31*%
X240836073Y-75185427D03*
%TD*%
D14*
%TO.C,R31*%
X236736073Y-77587927D03*
X236736073Y-78782927D03*
%TD*%
D29*
%TO.C,C3*%
X140836073Y-78541928D03*
X140836073Y-76816926D03*
%TD*%
D12*
%TO.C,TP13*%
X202436073Y-66055427D03*
%TD*%
D18*
%TO.C,D4*%
X161936073Y-56935426D03*
X161936073Y-54435428D03*
%TD*%
D10*
%TO.C,R16*%
X233138573Y-106285427D03*
X234333573Y-106285427D03*
%TD*%
D23*
%TO.C,C30*%
X167536073Y-100922926D03*
X167536073Y-102647928D03*
%TD*%
D27*
%TO.C,R43*%
X232970573Y-101469427D03*
X231145573Y-101469427D03*
%TD*%
D12*
%TO.C,TP14*%
X240736073Y-63685427D03*
%TD*%
D23*
%TO.C,C58*%
X222736073Y-92297926D03*
X222736073Y-94022928D03*
%TD*%
D17*
%TO.C,R44*%
X146436073Y-58435427D03*
X146436073Y-60260427D03*
%TD*%
D29*
%TO.C,C16*%
X175436073Y-86747928D03*
X175436073Y-85022926D03*
%TD*%
D11*
%TO.C,C57*%
X238498573Y-76985427D03*
X240573573Y-76985427D03*
%TD*%
D14*
%TO.C,R37*%
X237036073Y-95053927D03*
X237036073Y-96248927D03*
%TD*%
D12*
%TO.C,TP11*%
X169636073Y-73885427D03*
%TD*%
D26*
%TO.C,C34*%
X226586073Y-62710426D03*
X226586073Y-60635426D03*
%TD*%
D23*
%TO.C,C33*%
X207586073Y-61410425D03*
X207586073Y-63135427D03*
%TD*%
D34*
%TO.C,R7*%
X167536073Y-78385427D03*
X167536073Y-76385427D03*
%TD*%
D10*
%TO.C,R30*%
X206438573Y-75085427D03*
X207633573Y-75085427D03*
%TD*%
D26*
%TO.C,C15*%
X173536073Y-86722927D03*
X173536073Y-84647927D03*
%TD*%
D20*
%TO.C,L2*%
X229733608Y-64235427D03*
X229733608Y-66735427D03*
X234283606Y-66735427D03*
X234283606Y-64235427D03*
%TD*%
D26*
%TO.C,C38*%
X226436073Y-106822927D03*
X226436073Y-104747927D03*
%TD*%
D23*
%TO.C,C54*%
X208500073Y-71922926D03*
X208500073Y-73647928D03*
%TD*%
D10*
%TO.C,R27*%
X232938573Y-73985427D03*
X234133573Y-73985427D03*
%TD*%
D21*
%TO.C,C8*%
X136136073Y-70222928D03*
X136136073Y-73347928D03*
%TD*%
D26*
%TO.C,C56*%
X204436073Y-73622927D03*
X204436073Y-71547927D03*
%TD*%
D12*
%TO.C,TP17*%
X201236073Y-109985427D03*
%TD*%
%TO.C,TP12*%
X203736073Y-64785427D03*
%TD*%
D27*
%TO.C,R26*%
X232936073Y-72585427D03*
X231111073Y-72585427D03*
%TD*%
D26*
%TO.C,C31*%
X203836073Y-63060426D03*
X203836073Y-60985426D03*
%TD*%
D23*
%TO.C,C52*%
X224336073Y-72244926D03*
X224336073Y-73969928D03*
%TD*%
D26*
%TO.C,C45*%
X181936073Y-64922927D03*
X181936073Y-62847927D03*
%TD*%
D12*
%TO.C,TP22*%
X190342073Y-65487427D03*
%TD*%
%TO.C,TP33*%
X200502073Y-98888427D03*
%TD*%
%TO.C,TP35*%
X198806573Y-92945427D03*
%TD*%
D35*
%TO.C,U7*%
X210836073Y-72495427D03*
X210836073Y-73765427D03*
X210836073Y-75035427D03*
X210836073Y-76305427D03*
X210836073Y-77575427D03*
X210836073Y-78845427D03*
X210836073Y-80115427D03*
X210836073Y-81385427D03*
X220136073Y-81385427D03*
X220136073Y-80115427D03*
X220136073Y-78845427D03*
X220136073Y-77575427D03*
X220136073Y-76305427D03*
X220136073Y-75035427D03*
X220136073Y-73765427D03*
X220136073Y-72495427D03*
%TD*%
D12*
%TO.C,TP32*%
X240836073Y-78785427D03*
%TD*%
D29*
%TO.C,C4*%
X147386073Y-78610429D03*
X147386073Y-76885427D03*
%TD*%
D36*
%TO.C,C12*%
X146781073Y-98783427D03*
X146781073Y-95183427D03*
%TD*%
D10*
%TO.C,R15*%
X233138573Y-68485427D03*
X234333573Y-68485427D03*
%TD*%
D22*
%TO.C,C13*%
X176091574Y-80219427D03*
X174366572Y-80219427D03*
%TD*%
D12*
%TO.C,TP26*%
X174036073Y-65085427D03*
%TD*%
D10*
%TO.C,R38*%
X206638573Y-98885427D03*
X207833573Y-98885427D03*
%TD*%
D11*
%TO.C,C9*%
X141598572Y-82685428D03*
X143673572Y-82685428D03*
%TD*%
D12*
%TO.C,TP25*%
X174836073Y-67585427D03*
%TD*%
D26*
%TO.C,C41*%
X204236073Y-107022927D03*
X204236073Y-104947927D03*
%TD*%
D28*
%TO.C,C50*%
X171595572Y-61757427D03*
X174720572Y-61757427D03*
%TD*%
D29*
%TO.C,C17*%
X177036073Y-86747928D03*
X177036073Y-85022926D03*
%TD*%
D37*
%TO.C,R8*%
X167536073Y-71885427D03*
X167536073Y-73885427D03*
%TD*%
D14*
%TO.C,R40*%
X237036073Y-97727927D03*
X237036073Y-98922927D03*
%TD*%
D11*
%TO.C,C37*%
X238798573Y-65585427D03*
X240873573Y-65585427D03*
%TD*%
D10*
%TO.C,R29*%
X206538573Y-78885427D03*
X207733573Y-78885427D03*
%TD*%
D12*
%TO.C,TP30*%
X201346573Y-82463427D03*
%TD*%
D11*
%TO.C,C10*%
X141598573Y-84935427D03*
X143673573Y-84935427D03*
%TD*%
D14*
%TO.C,R20*%
X237136073Y-109887927D03*
X237136073Y-111082927D03*
%TD*%
D34*
%TO.C,R33*%
X201346573Y-79848427D03*
X201346573Y-77848427D03*
%TD*%
D23*
%TO.C,C43*%
X207836073Y-105360425D03*
X207836073Y-107085427D03*
%TD*%
D12*
%TO.C,TP20*%
X186278073Y-70567427D03*
%TD*%
D22*
%TO.C,C25*%
X179898574Y-77806427D03*
X178173572Y-77806427D03*
%TD*%
D29*
%TO.C,C1*%
X138780073Y-81944429D03*
X138780073Y-80219427D03*
%TD*%
D11*
%TO.C,C64*%
X238638573Y-96935427D03*
X240713573Y-96935427D03*
%TD*%
D25*
%TO.C,C24*%
X191741073Y-79035427D03*
X193466073Y-79035427D03*
%TD*%
D20*
%TO.C,L3*%
X229733608Y-108035427D03*
X229733608Y-110535427D03*
X234283606Y-110535427D03*
X234283606Y-108035427D03*
%TD*%
D26*
%TO.C,C60*%
X226436073Y-94316427D03*
X226436073Y-92241427D03*
%TD*%
D17*
%TO.C,R4*%
X142844073Y-103182927D03*
X142844073Y-105007927D03*
%TD*%
D38*
%TO.C,U4*%
X179361073Y-80335427D03*
X179361073Y-80835427D03*
X179361073Y-81335427D03*
X179361073Y-81835427D03*
X179361073Y-82335427D03*
X179361073Y-82835427D03*
X179361073Y-83335427D03*
X179361073Y-83835427D03*
X179361073Y-84335427D03*
X179361073Y-84835427D03*
X179361073Y-85335427D03*
X179361073Y-85835427D03*
X179361073Y-86335427D03*
X179361073Y-86835427D03*
X179361073Y-87335427D03*
X179361073Y-87835427D03*
D39*
X181286073Y-89760427D03*
X181786073Y-89760427D03*
X182286073Y-89760427D03*
X182786073Y-89760427D03*
X183286073Y-89760427D03*
X183786073Y-89760427D03*
X184286073Y-89760427D03*
X184786073Y-89760427D03*
X185286073Y-89760427D03*
X185786073Y-89760427D03*
X186286073Y-89760427D03*
X186786073Y-89760427D03*
X187286073Y-89760427D03*
X187786073Y-89760427D03*
X188286073Y-89760427D03*
X188786073Y-89760427D03*
D38*
X190711073Y-87835427D03*
X190711073Y-87335427D03*
X190711073Y-86835427D03*
X190711073Y-86335427D03*
X190711073Y-85835427D03*
X190711073Y-85335427D03*
X190711073Y-84835427D03*
X190711073Y-84335427D03*
X190711073Y-83835427D03*
X190711073Y-83335427D03*
X190711073Y-82835427D03*
X190711073Y-82335427D03*
X190711073Y-81835427D03*
X190711073Y-81335427D03*
X190711073Y-80835427D03*
X190711073Y-80335427D03*
D39*
X188786073Y-78410427D03*
X188286073Y-78410427D03*
X187786073Y-78410427D03*
X187286073Y-78410427D03*
X186786073Y-78410427D03*
X186286073Y-78410427D03*
X185786073Y-78410427D03*
X185286073Y-78410427D03*
X184786073Y-78410427D03*
X184286073Y-78410427D03*
X183786073Y-78410427D03*
X183286073Y-78410427D03*
X182786073Y-78410427D03*
X182286073Y-78410427D03*
X181786073Y-78410427D03*
X181286073Y-78410427D03*
%TD*%
D40*
%TO.C,SW1*%
X165661073Y-97635427D03*
X157911073Y-97635427D03*
%TD*%
D41*
%TO.C,R1*%
X147123573Y-84685427D03*
X148948573Y-84685427D03*
%TD*%
D42*
%TO.C,Q1*%
X139066073Y-56310425D03*
X140966073Y-56310425D03*
X140016073Y-54110426D03*
%TD*%
D10*
%TO.C,R36*%
X232938573Y-93873427D03*
X234133573Y-93873427D03*
%TD*%
D43*
%TO.C,IC3*%
X186614071Y-66685427D03*
X187264072Y-66685427D03*
X187914072Y-66685427D03*
X188564073Y-66685427D03*
X188564073Y-64185427D03*
X187914072Y-64185427D03*
X187264072Y-64185427D03*
X186614071Y-64185427D03*
%TD*%
D10*
%TO.C,R12*%
X205738573Y-64785427D03*
X206933573Y-64785427D03*
%TD*%
D29*
%TO.C,C39*%
X224536073Y-106885427D03*
X224536073Y-105160425D03*
%TD*%
D12*
%TO.C,TP18*%
X241486073Y-107485427D03*
%TD*%
D26*
%TO.C,C53*%
X226336073Y-74144927D03*
X226336073Y-72069927D03*
%TD*%
D10*
%TO.C,R10*%
X233038573Y-62585427D03*
X234233573Y-62585427D03*
%TD*%
D23*
%TO.C,C40*%
X222936073Y-105160425D03*
X222936073Y-106885427D03*
%TD*%
D42*
%TO.C,Q2*%
X148186073Y-56347928D03*
X150086073Y-56347928D03*
X149136073Y-54147929D03*
%TD*%
D41*
%TO.C,R50*%
X138606073Y-113366427D03*
X140431073Y-113366427D03*
%TD*%
D44*
%TO.C,C14*%
X164588065Y-83333435D03*
X165684081Y-82237419D03*
%TD*%
D11*
%TO.C,C27*%
X187907573Y-93085427D03*
X189982573Y-93085427D03*
%TD*%
D10*
%TO.C,R19*%
X204138573Y-109985427D03*
X205333573Y-109985427D03*
%TD*%
D12*
%TO.C,TP19*%
X241486073Y-111085427D03*
%TD*%
D27*
%TO.C,R34*%
X232848573Y-81385427D03*
X231023573Y-81385427D03*
%TD*%
D12*
%TO.C,TP10*%
X169636073Y-76385427D03*
%TD*%
D14*
%TO.C,R11*%
X237236073Y-63687927D03*
X237236073Y-64882927D03*
%TD*%
D45*
%TO.C,Y2*%
X161336073Y-81085427D03*
X161336073Y-79585427D03*
%TD*%
D46*
%TO.C,C5*%
X147673573Y-82685427D03*
X145598573Y-82685427D03*
%TD*%
D12*
%TO.C,TP15*%
X240736073Y-67385427D03*
%TD*%
D43*
%TO.C,IC4*%
X170286071Y-66335427D03*
X170936072Y-66335427D03*
X171586072Y-66335427D03*
X172236073Y-66335427D03*
X172236073Y-63835427D03*
X171586072Y-63835427D03*
X170936072Y-63835427D03*
X170286071Y-63835427D03*
%TD*%
D17*
%TO.C,R5*%
X143352073Y-96070927D03*
X143352073Y-97895927D03*
%TD*%
D10*
%TO.C,R39*%
X206838573Y-95085427D03*
X208033573Y-95085427D03*
%TD*%
D23*
%TO.C,C23*%
X191136073Y-89322926D03*
X191136073Y-91047928D03*
%TD*%
D47*
%TO.C,R3*%
X145636073Y-86085427D03*
X145636073Y-84890427D03*
%TD*%
D48*
%TO.C,L1*%
X144036073Y-74205427D03*
X144036073Y-70165427D03*
%TD*%
D19*
%TO.C,D6*%
X244736073Y-96037427D03*
X244736073Y-97937427D03*
X246611073Y-96987427D03*
%TD*%
D24*
%TO.C,C19*%
X157561073Y-79585427D03*
X159111073Y-79585427D03*
%TD*%
D29*
%TO.C,C42*%
X206136073Y-107047928D03*
X206136073Y-105322926D03*
%TD*%
D12*
%TO.C,TP16*%
X202436073Y-108785427D03*
%TD*%
%TO.C,TP29*%
X199740073Y-75085427D03*
%TD*%
D13*
%TO.C,R41*%
X198838573Y-96501427D03*
X200838573Y-96501427D03*
%TD*%
D49*
%TO.C,R48*%
X151946073Y-60227927D03*
X151946073Y-58402927D03*
%TD*%
D23*
%TO.C,C29*%
X160414073Y-74276926D03*
X160414073Y-76001928D03*
%TD*%
D29*
%TO.C,C46*%
X183936073Y-64847928D03*
X183936073Y-63122926D03*
%TD*%
%TO.C,C35*%
X224736073Y-62785427D03*
X224736073Y-61060425D03*
%TD*%
D21*
%TO.C,C6*%
X138636072Y-70222927D03*
X138636072Y-73347927D03*
%TD*%
D23*
%TO.C,C61*%
X208525473Y-91391526D03*
X208525473Y-93116528D03*
%TD*%
D26*
%TO.C,C2*%
X149386073Y-78835428D03*
X149386073Y-76760428D03*
%TD*%
D50*
%TO.C,IC1*%
X143174072Y-78020350D03*
D51*
X143161072Y-78670350D03*
X143161073Y-79170350D03*
X143161072Y-79670350D03*
D50*
X143174072Y-80320350D03*
D52*
X144036072Y-80545350D03*
D50*
X144898072Y-80320350D03*
D51*
X144911072Y-79670350D03*
X144911071Y-79170350D03*
X144911072Y-78670350D03*
D50*
X144898072Y-78020350D03*
D52*
X144036072Y-77795350D03*
D53*
X144036072Y-79170350D03*
D54*
X143386072Y-77683350D03*
X143386072Y-80657350D03*
X144686072Y-80657350D03*
X144686072Y-77683350D03*
%TD*%
D10*
%TO.C,R21*%
X233038573Y-112185427D03*
X234233573Y-112185427D03*
%TD*%
D12*
%TO.C,TP28*%
X204394573Y-78848427D03*
%TD*%
D19*
%TO.C,D1*%
X244461073Y-64635427D03*
X244461073Y-66535427D03*
X246336073Y-65585427D03*
%TD*%
D49*
%TO.C,R49*%
X142816072Y-59972925D03*
X142816072Y-58147925D03*
%TD*%
D41*
%TO.C,R2*%
X146886073Y-80585427D03*
X148711073Y-80585427D03*
%TD*%
D35*
%TO.C,U8*%
X211136073Y-92535427D03*
X211136073Y-93805427D03*
X211136073Y-95075427D03*
X211136073Y-96345427D03*
X211136073Y-97615427D03*
X211136073Y-98885427D03*
X211136073Y-100155427D03*
X211136073Y-101425427D03*
X220436073Y-101425427D03*
X220436073Y-100155427D03*
X220436073Y-98885427D03*
X220436073Y-97615427D03*
X220436073Y-96345427D03*
X220436073Y-95075427D03*
X220436073Y-93805427D03*
X220436073Y-92535427D03*
%TD*%
D55*
%TO.C,Y1*%
X166736073Y-85685427D03*
X167973510Y-84447990D03*
X166983561Y-83458041D03*
X165746124Y-84695478D03*
%TD*%
D56*
%TO.C,U6*%
X210036073Y-107480427D03*
X210036073Y-108750427D03*
X210036073Y-110020427D03*
X210036073Y-111290427D03*
X220936073Y-111290427D03*
X220936073Y-110020427D03*
X220936073Y-108750427D03*
X220936073Y-107480427D03*
%TD*%
D37*
%TO.C,R9*%
X165636073Y-100885427D03*
X165636073Y-102885427D03*
%TD*%
D29*
%TO.C,C49*%
X167636073Y-64747928D03*
X167636073Y-63022926D03*
%TD*%
D12*
%TO.C,TP21*%
X188564073Y-68535427D03*
%TD*%
D20*
%TO.C,L4*%
X229533608Y-75685427D03*
X229533608Y-78185427D03*
X234083606Y-78185427D03*
X234083606Y-75685427D03*
%TD*%
D13*
%TO.C,R23*%
X184262073Y-68685427D03*
X186262073Y-68685427D03*
%TD*%
D57*
%TO.C,IC2*%
X164364073Y-75889427D03*
X164364073Y-75389427D03*
X164364073Y-74889427D03*
X164364073Y-74389427D03*
X161964073Y-74389427D03*
X161964073Y-74889427D03*
X161964073Y-75389427D03*
X161964073Y-75889427D03*
D58*
X163164073Y-75139427D03*
%TD*%
D23*
%TO.C,C62*%
X206798273Y-91391526D03*
X206798273Y-93116528D03*
%TD*%
D59*
%TO.C,R6*%
X180036073Y-72985427D03*
X178036073Y-72985427D03*
%TD*%
D17*
%TO.C,R46*%
X141066073Y-58224927D03*
X141066073Y-60049927D03*
%TD*%
D60*
%TO.C,C18*%
X164288065Y-86023726D03*
X165384081Y-87119742D03*
%TD*%
D26*
%TO.C,C63*%
X204893273Y-93393127D03*
X204893273Y-91318127D03*
%TD*%
D56*
%TO.C,U5*%
X210036073Y-63495427D03*
X210036073Y-64765427D03*
X210036073Y-66035427D03*
X210036073Y-67305427D03*
X220936073Y-67305427D03*
X220936073Y-66035427D03*
X220936073Y-64765427D03*
X220936073Y-63495427D03*
%TD*%
D17*
%TO.C,R22*%
X180236073Y-55472927D03*
X180236073Y-57297927D03*
%TD*%
D14*
%TO.C,R17*%
X237136073Y-107487927D03*
X237136073Y-108682927D03*
%TD*%
D10*
%TO.C,R18*%
X204038573Y-108785427D03*
X205233573Y-108785427D03*
%TD*%
%TO.C,R42*%
X232941073Y-99969427D03*
X234136073Y-99969427D03*
%TD*%
D23*
%TO.C,C51*%
X222600073Y-72244926D03*
X222600073Y-73969928D03*
%TD*%
M02*
