%TF.GenerationSoftware,KiCad,Pcbnew,8.0.5*%
%TF.CreationDate,2025-03-07T14:51:54+05:30*%
%TF.ProjectId,Rapid_Core-RCP,52617069-645f-4436-9f72-652d5243502e,REV 1.0.0*%
%TF.SameCoordinates,PX811ac80PY7212260*%
%TF.FileFunction,Legend,Bot*%
%TF.FilePolarity,Positive*%
%FSLAX46Y46*%
G04 Gerber Fmt 4.6, Leading zero omitted, Abs format (unit mm)*
G04 Created by KiCad (PCBNEW 8.0.5) date 2025-03-07 14:51:54*
%MOMM*%
%LPD*%
G01*
G04 APERTURE LIST*
%ADD10C,0.200000*%
G04 APERTURE END LIST*
D10*
G36*
X43252576Y81688421D02*
G01*
X42977803Y81688421D01*
X43116533Y82047946D01*
X43252576Y81688421D01*
G37*
G36*
X44668432Y80889522D02*
G01*
X39795582Y80889522D01*
X39795582Y81000633D01*
X40804041Y81000633D01*
X41606379Y81000633D01*
X41606379Y81125685D01*
X40804041Y81125685D01*
X40804041Y81000633D01*
X39795582Y81000633D01*
X39795582Y81282000D01*
X39906693Y81282000D01*
X40109903Y81282000D01*
X40109903Y81719684D01*
X40508508Y81719684D01*
X40508508Y81282000D01*
X40711718Y81282000D01*
X41700413Y81282000D01*
X41904355Y81282000D01*
X42310287Y81958309D01*
X42310287Y81282000D01*
X42499087Y81282000D01*
X42603378Y81282000D01*
X42824418Y81282000D01*
X42912346Y81516474D01*
X43315102Y81516474D01*
X43398145Y81282000D01*
X43613811Y81282000D01*
X43487083Y81610263D01*
X43680245Y81610263D01*
X43695909Y81560302D01*
X43714506Y81514526D01*
X43740695Y81465122D01*
X43771109Y81421745D01*
X43805748Y81384395D01*
X43831187Y81362845D01*
X43872664Y81335370D01*
X43918141Y81313580D01*
X43967621Y81297475D01*
X44021101Y81287053D01*
X44078583Y81282316D01*
X44098633Y81282000D01*
X44147650Y81284122D01*
X44205786Y81292742D01*
X44260440Y81307993D01*
X44311612Y81329875D01*
X44359301Y81358387D01*
X44403508Y81393531D01*
X44428361Y81417800D01*
X44465513Y81462670D01*
X44496367Y81512405D01*
X44520925Y81567007D01*
X44536038Y81614192D01*
X44547120Y81664491D01*
X44554173Y81717903D01*
X44557195Y81774430D01*
X44557321Y81789049D01*
X44555295Y81849590D01*
X44549215Y81906652D01*
X44539083Y81960232D01*
X44524898Y82010333D01*
X44506660Y82056953D01*
X44478163Y82110333D01*
X44443333Y82158275D01*
X44427628Y82175929D01*
X44385031Y82215614D01*
X44338451Y82248572D01*
X44287887Y82274805D01*
X44233341Y82294311D01*
X44174811Y82307091D01*
X44125119Y82312472D01*
X44086177Y82313682D01*
X44030097Y82310856D01*
X43977417Y82302377D01*
X43928136Y82288244D01*
X43882253Y82268459D01*
X43839769Y82243021D01*
X43800685Y82211930D01*
X43786002Y82197911D01*
X43753823Y82159870D01*
X43725919Y82114380D01*
X43705008Y82068465D01*
X43687370Y82016847D01*
X43682932Y82001051D01*
X43884188Y81969788D01*
X43901035Y82020575D01*
X43927059Y82063455D01*
X43958682Y82095573D01*
X44000525Y82121855D01*
X44048140Y82137227D01*
X44096435Y82141735D01*
X44149741Y82136759D01*
X44197796Y82121830D01*
X44240599Y82096947D01*
X44278152Y82062112D01*
X44308606Y82016118D01*
X44328115Y81965730D01*
X44339536Y81915006D01*
X44346061Y81857327D01*
X44347761Y81803947D01*
X44346085Y81747454D01*
X44341058Y81696280D01*
X44330603Y81641892D01*
X44315321Y81595164D01*
X44291394Y81550328D01*
X44279129Y81534303D01*
X44242233Y81499148D01*
X44200177Y81474036D01*
X44152962Y81458970D01*
X44100587Y81453947D01*
X44047523Y81460181D01*
X43999826Y81478883D01*
X43961124Y81506704D01*
X43927861Y81545592D01*
X43903429Y81590706D01*
X43886092Y81638853D01*
X43877349Y81672789D01*
X43680245Y81610263D01*
X43487083Y81610263D01*
X43221557Y82298051D01*
X43006623Y82298051D01*
X42764676Y81688421D01*
X42603378Y81282000D01*
X42499087Y81282000D01*
X42499087Y82298051D01*
X42301250Y82298051D01*
X41889212Y81611484D01*
X41889212Y82298051D01*
X41700413Y82298051D01*
X41700413Y81282000D01*
X40711718Y81282000D01*
X40711718Y82298051D01*
X40508508Y82298051D01*
X40508508Y81891631D01*
X40109903Y81891631D01*
X40109903Y82298051D01*
X39906693Y82298051D01*
X39906693Y81282000D01*
X39795582Y81282000D01*
X39795582Y82424793D01*
X44668432Y82424793D01*
X44668432Y80889522D01*
G37*
G36*
X82853553Y81688421D02*
G01*
X82578780Y81688421D01*
X82717510Y82047946D01*
X82853553Y81688421D01*
G37*
G36*
X85317719Y81875999D02*
G01*
X85167265Y81875999D01*
X85116266Y81876420D01*
X85066535Y81877974D01*
X85013736Y81882182D01*
X84984572Y81887967D01*
X84942036Y81912955D01*
X84927663Y81929733D01*
X84908930Y81977410D01*
X84906903Y82003738D01*
X84915481Y82053687D01*
X84934013Y82084094D01*
X84974129Y82112427D01*
X85010706Y82122684D01*
X85060104Y82125249D01*
X85109625Y82125940D01*
X85158961Y82126104D01*
X85317719Y82126104D01*
X85317719Y81875999D01*
G37*
G36*
X85632040Y81155258D02*
G01*
X82093244Y81155258D01*
X82093244Y81282000D01*
X82204355Y81282000D01*
X82425395Y81282000D01*
X82513323Y81516474D01*
X82916079Y81516474D01*
X82999122Y81282000D01*
X83214788Y81282000D01*
X83112198Y81547737D01*
X83222604Y81547737D01*
X83601913Y81547737D01*
X83601913Y81579000D01*
X83744062Y81579000D01*
X83748761Y81525729D01*
X83762858Y81474605D01*
X83786352Y81425628D01*
X83792178Y81416090D01*
X83822392Y81376454D01*
X83858905Y81343000D01*
X83901716Y81315729D01*
X83928221Y81303250D01*
X83974887Y81287114D01*
X84026957Y81275589D01*
X84076950Y81269286D01*
X84131081Y81266513D01*
X84147307Y81266369D01*
X84204830Y81268510D01*
X84258023Y81274932D01*
X84290292Y81282000D01*
X84615521Y81282000D01*
X84858787Y81282000D01*
X85005821Y81505483D01*
X85033478Y81545883D01*
X85064932Y81590373D01*
X85095534Y81630917D01*
X85113043Y81651296D01*
X85152343Y81682842D01*
X85174104Y81692817D01*
X85222353Y81701902D01*
X85272098Y81704041D01*
X85276442Y81704052D01*
X85317719Y81704052D01*
X85317719Y81282000D01*
X85520929Y81282000D01*
X85520929Y82298051D01*
X85093016Y82298051D01*
X85035582Y82297089D01*
X84984366Y82294204D01*
X84932470Y82288407D01*
X84883522Y82278576D01*
X84858542Y82270696D01*
X84811631Y82246838D01*
X84771645Y82212880D01*
X84741306Y82173243D01*
X84718122Y82127452D01*
X84703525Y82077702D01*
X84697514Y82023992D01*
X84697342Y82012775D01*
X84698030Y82003738D01*
X84701510Y81958004D01*
X84714012Y81908239D01*
X84734849Y81863482D01*
X84764020Y81823731D01*
X84801374Y81789919D01*
X84847002Y81762976D01*
X84893713Y81745036D01*
X84946759Y81732355D01*
X84963078Y81729698D01*
X84920483Y81702104D01*
X84880268Y81669961D01*
X84854390Y81644457D01*
X84821316Y81604178D01*
X84792839Y81564153D01*
X84764866Y81521717D01*
X84738619Y81479837D01*
X84615521Y81282000D01*
X84290292Y81282000D01*
X84306887Y81285635D01*
X84359809Y81304131D01*
X84406498Y81328792D01*
X84440643Y81354052D01*
X84476126Y81389850D01*
X84505821Y81431298D01*
X84529730Y81478396D01*
X84547850Y81531143D01*
X84558530Y81579416D01*
X84563009Y81610263D01*
X84365172Y81625894D01*
X84352245Y81575547D01*
X84331083Y81529121D01*
X84299541Y81489624D01*
X84292876Y81483745D01*
X84250760Y81457881D01*
X84199640Y81442752D01*
X84145353Y81438316D01*
X84093949Y81441542D01*
X84045807Y81452695D01*
X84000503Y81476595D01*
X83997342Y81479104D01*
X83963282Y81517626D01*
X83947955Y81564710D01*
X83947517Y81574848D01*
X83960337Y81623392D01*
X83968521Y81634687D01*
X84009449Y81664330D01*
X84041550Y81677674D01*
X84090403Y81692620D01*
X84140225Y81706278D01*
X84188940Y81719090D01*
X84204460Y81723103D01*
X84253143Y81736596D01*
X84305281Y81753953D01*
X84350567Y81772580D01*
X84394741Y81795918D01*
X84433804Y81824708D01*
X84469968Y81863231D01*
X84497250Y81905284D01*
X84515649Y81950867D01*
X84525166Y81999979D01*
X84526616Y82029628D01*
X84521479Y82081842D01*
X84506068Y82131690D01*
X84483141Y82174952D01*
X84452072Y82214217D01*
X84413513Y82247138D01*
X84367465Y82273713D01*
X84357356Y82278267D01*
X84308391Y82295387D01*
X84260389Y82305901D01*
X84208175Y82311988D01*
X84159031Y82313682D01*
X84102092Y82311601D01*
X84049732Y82305358D01*
X84001952Y82294953D01*
X83950661Y82276972D01*
X83905965Y82252998D01*
X83873755Y82228442D01*
X83836120Y82188426D01*
X83807204Y82142963D01*
X83787006Y82092055D01*
X83776634Y82044084D01*
X83772883Y82001051D01*
X83976337Y82001051D01*
X83990271Y82051346D01*
X84017205Y82095004D01*
X84032269Y82108763D01*
X84078110Y82131303D01*
X84130500Y82140576D01*
X84161229Y82141735D01*
X84212768Y82138253D01*
X84260866Y82126378D01*
X84299959Y82106076D01*
X84329649Y82064997D01*
X84332199Y82044527D01*
X84315163Y81997769D01*
X84301913Y81984687D01*
X84257663Y81960221D01*
X84210952Y81943185D01*
X84158784Y81927803D01*
X84115067Y81916543D01*
X84062102Y81902936D01*
X84014580Y81889226D01*
X83966019Y81873101D01*
X83919594Y81854500D01*
X83895493Y81842782D01*
X83854100Y81816578D01*
X83815566Y81781528D01*
X83784362Y81739956D01*
X83761418Y81691514D01*
X83748824Y81641216D01*
X83744220Y81590848D01*
X83744062Y81579000D01*
X83601913Y81579000D01*
X83601913Y81719684D01*
X83222604Y81719684D01*
X83222604Y81547737D01*
X83112198Y81547737D01*
X82822534Y82298051D01*
X82607600Y82298051D01*
X82365653Y81688421D01*
X82204355Y81282000D01*
X82093244Y81282000D01*
X82093244Y82424793D01*
X85632040Y82424793D01*
X85632040Y81155258D01*
G37*
G36*
X98553553Y81488421D02*
G01*
X98278780Y81488421D01*
X98417510Y81847946D01*
X98553553Y81488421D01*
G37*
G36*
X101017719Y81675999D02*
G01*
X100867265Y81675999D01*
X100816266Y81676420D01*
X100766535Y81677974D01*
X100713736Y81682182D01*
X100684572Y81687967D01*
X100642036Y81712955D01*
X100627663Y81729733D01*
X100608930Y81777410D01*
X100606903Y81803738D01*
X100615481Y81853687D01*
X100634013Y81884094D01*
X100674129Y81912427D01*
X100710706Y81922684D01*
X100760104Y81925249D01*
X100809625Y81925940D01*
X100858961Y81926104D01*
X101017719Y81926104D01*
X101017719Y81675999D01*
G37*
G36*
X101332040Y80955258D02*
G01*
X97793244Y80955258D01*
X97793244Y81082000D01*
X97904355Y81082000D01*
X98125395Y81082000D01*
X98213323Y81316474D01*
X98616079Y81316474D01*
X98699122Y81082000D01*
X98914788Y81082000D01*
X98812198Y81347737D01*
X98922604Y81347737D01*
X99301913Y81347737D01*
X99301913Y81379000D01*
X99444062Y81379000D01*
X99448761Y81325729D01*
X99462858Y81274605D01*
X99486352Y81225628D01*
X99492178Y81216090D01*
X99522392Y81176454D01*
X99558905Y81143000D01*
X99601716Y81115729D01*
X99628221Y81103250D01*
X99674887Y81087114D01*
X99726957Y81075589D01*
X99776950Y81069286D01*
X99831081Y81066513D01*
X99847307Y81066369D01*
X99904830Y81068510D01*
X99958023Y81074932D01*
X99990292Y81082000D01*
X100315521Y81082000D01*
X100558787Y81082000D01*
X100705821Y81305483D01*
X100733478Y81345883D01*
X100764932Y81390373D01*
X100795534Y81430917D01*
X100813043Y81451296D01*
X100852343Y81482842D01*
X100874104Y81492817D01*
X100922353Y81501902D01*
X100972098Y81504041D01*
X100976442Y81504052D01*
X101017719Y81504052D01*
X101017719Y81082000D01*
X101220929Y81082000D01*
X101220929Y82098051D01*
X100793016Y82098051D01*
X100735582Y82097089D01*
X100684366Y82094204D01*
X100632470Y82088407D01*
X100583522Y82078576D01*
X100558542Y82070696D01*
X100511631Y82046838D01*
X100471645Y82012880D01*
X100441306Y81973243D01*
X100418122Y81927452D01*
X100403525Y81877702D01*
X100397514Y81823992D01*
X100397342Y81812775D01*
X100398030Y81803738D01*
X100401510Y81758004D01*
X100414012Y81708239D01*
X100434849Y81663482D01*
X100464020Y81623731D01*
X100501374Y81589919D01*
X100547002Y81562976D01*
X100593713Y81545036D01*
X100646759Y81532355D01*
X100663078Y81529698D01*
X100620483Y81502104D01*
X100580268Y81469961D01*
X100554390Y81444457D01*
X100521316Y81404178D01*
X100492839Y81364153D01*
X100464866Y81321717D01*
X100438619Y81279837D01*
X100315521Y81082000D01*
X99990292Y81082000D01*
X100006887Y81085635D01*
X100059809Y81104131D01*
X100106498Y81128792D01*
X100140643Y81154052D01*
X100176126Y81189850D01*
X100205821Y81231298D01*
X100229730Y81278396D01*
X100247850Y81331143D01*
X100258530Y81379416D01*
X100263009Y81410263D01*
X100065172Y81425894D01*
X100052245Y81375547D01*
X100031083Y81329121D01*
X99999541Y81289624D01*
X99992876Y81283745D01*
X99950760Y81257881D01*
X99899640Y81242752D01*
X99845353Y81238316D01*
X99793949Y81241542D01*
X99745807Y81252695D01*
X99700503Y81276595D01*
X99697342Y81279104D01*
X99663282Y81317626D01*
X99647955Y81364710D01*
X99647517Y81374848D01*
X99660337Y81423392D01*
X99668521Y81434687D01*
X99709449Y81464330D01*
X99741550Y81477674D01*
X99790403Y81492620D01*
X99840225Y81506278D01*
X99888940Y81519090D01*
X99904460Y81523103D01*
X99953143Y81536596D01*
X100005281Y81553953D01*
X100050567Y81572580D01*
X100094741Y81595918D01*
X100133804Y81624708D01*
X100169968Y81663231D01*
X100197250Y81705284D01*
X100215649Y81750867D01*
X100225166Y81799979D01*
X100226616Y81829628D01*
X100221479Y81881842D01*
X100206068Y81931690D01*
X100183141Y81974952D01*
X100152072Y82014217D01*
X100113513Y82047138D01*
X100067465Y82073713D01*
X100057356Y82078267D01*
X100008391Y82095387D01*
X99960389Y82105901D01*
X99908175Y82111988D01*
X99859031Y82113682D01*
X99802092Y82111601D01*
X99749732Y82105358D01*
X99701952Y82094953D01*
X99650661Y82076972D01*
X99605965Y82052998D01*
X99573755Y82028442D01*
X99536120Y81988426D01*
X99507204Y81942963D01*
X99487006Y81892055D01*
X99476634Y81844084D01*
X99472883Y81801051D01*
X99676337Y81801051D01*
X99690271Y81851346D01*
X99717205Y81895004D01*
X99732269Y81908763D01*
X99778110Y81931303D01*
X99830500Y81940576D01*
X99861229Y81941735D01*
X99912768Y81938253D01*
X99960866Y81926378D01*
X99999959Y81906076D01*
X100029649Y81864997D01*
X100032199Y81844527D01*
X100015163Y81797769D01*
X100001913Y81784687D01*
X99957663Y81760221D01*
X99910952Y81743185D01*
X99858784Y81727803D01*
X99815067Y81716543D01*
X99762102Y81702936D01*
X99714580Y81689226D01*
X99666019Y81673101D01*
X99619594Y81654500D01*
X99595493Y81642782D01*
X99554100Y81616578D01*
X99515566Y81581528D01*
X99484362Y81539956D01*
X99461418Y81491514D01*
X99448824Y81441216D01*
X99444220Y81390848D01*
X99444062Y81379000D01*
X99301913Y81379000D01*
X99301913Y81519684D01*
X98922604Y81519684D01*
X98922604Y81347737D01*
X98812198Y81347737D01*
X98522534Y82098051D01*
X98307600Y82098051D01*
X98065653Y81488421D01*
X97904355Y81082000D01*
X97793244Y81082000D01*
X97793244Y82224793D01*
X101332040Y82224793D01*
X101332040Y80955258D01*
G37*
G36*
X49852576Y81688421D02*
G01*
X49577803Y81688421D01*
X49716533Y82047946D01*
X49852576Y81688421D01*
G37*
G36*
X51268432Y80889522D02*
G01*
X46486929Y80889522D01*
X46486929Y81000633D01*
X47404041Y81000633D01*
X48206379Y81000633D01*
X48206379Y81125685D01*
X47404041Y81125685D01*
X47404041Y81000633D01*
X46486929Y81000633D01*
X46486929Y81453947D01*
X46598040Y81453947D01*
X46598040Y81282000D01*
X47306833Y81282000D01*
X48300413Y81282000D01*
X48504355Y81282000D01*
X48910287Y81958309D01*
X48910287Y81282000D01*
X49099087Y81282000D01*
X49203378Y81282000D01*
X49424418Y81282000D01*
X49512346Y81516474D01*
X49915102Y81516474D01*
X49998145Y81282000D01*
X50213811Y81282000D01*
X50087083Y81610263D01*
X50280245Y81610263D01*
X50295909Y81560302D01*
X50314506Y81514526D01*
X50340695Y81465122D01*
X50371109Y81421745D01*
X50405748Y81384395D01*
X50431187Y81362845D01*
X50472664Y81335370D01*
X50518141Y81313580D01*
X50567621Y81297475D01*
X50621101Y81287053D01*
X50678583Y81282316D01*
X50698633Y81282000D01*
X50747650Y81284122D01*
X50805786Y81292742D01*
X50860440Y81307993D01*
X50911612Y81329875D01*
X50959301Y81358387D01*
X51003508Y81393531D01*
X51028361Y81417800D01*
X51065513Y81462670D01*
X51096367Y81512405D01*
X51120925Y81567007D01*
X51136038Y81614192D01*
X51147120Y81664491D01*
X51154173Y81717903D01*
X51157195Y81774430D01*
X51157321Y81789049D01*
X51155295Y81849590D01*
X51149215Y81906652D01*
X51139083Y81960232D01*
X51124898Y82010333D01*
X51106660Y82056953D01*
X51078163Y82110333D01*
X51043333Y82158275D01*
X51027628Y82175929D01*
X50985031Y82215614D01*
X50938451Y82248572D01*
X50887887Y82274805D01*
X50833341Y82294311D01*
X50774811Y82307091D01*
X50725119Y82312472D01*
X50686177Y82313682D01*
X50630097Y82310856D01*
X50577417Y82302377D01*
X50528136Y82288244D01*
X50482253Y82268459D01*
X50439769Y82243021D01*
X50400685Y82211930D01*
X50386002Y82197911D01*
X50353823Y82159870D01*
X50325919Y82114380D01*
X50305008Y82068465D01*
X50287370Y82016847D01*
X50282932Y82001051D01*
X50484188Y81969788D01*
X50501035Y82020575D01*
X50527059Y82063455D01*
X50558682Y82095573D01*
X50600525Y82121855D01*
X50648140Y82137227D01*
X50696435Y82141735D01*
X50749741Y82136759D01*
X50797796Y82121830D01*
X50840599Y82096947D01*
X50878152Y82062112D01*
X50908606Y82016118D01*
X50928115Y81965730D01*
X50939536Y81915006D01*
X50946061Y81857327D01*
X50947761Y81803947D01*
X50946085Y81747454D01*
X50941058Y81696280D01*
X50930603Y81641892D01*
X50915321Y81595164D01*
X50891394Y81550328D01*
X50879129Y81534303D01*
X50842233Y81499148D01*
X50800177Y81474036D01*
X50752962Y81458970D01*
X50700587Y81453947D01*
X50647523Y81460181D01*
X50599826Y81478883D01*
X50561124Y81506704D01*
X50527861Y81545592D01*
X50503429Y81590706D01*
X50486092Y81638853D01*
X50477349Y81672789D01*
X50280245Y81610263D01*
X50087083Y81610263D01*
X49821557Y82298051D01*
X49606623Y82298051D01*
X49364676Y81688421D01*
X49203378Y81282000D01*
X49099087Y81282000D01*
X49099087Y82298051D01*
X48901250Y82298051D01*
X48489212Y81611484D01*
X48489212Y82298051D01*
X48300413Y82298051D01*
X48300413Y81282000D01*
X47306833Y81282000D01*
X47306833Y82298051D01*
X47103623Y82298051D01*
X47103623Y81453947D01*
X46598040Y81453947D01*
X46486929Y81453947D01*
X46486929Y82424793D01*
X51268432Y82424793D01*
X51268432Y80889522D01*
G37*
G36*
X56652576Y81688421D02*
G01*
X56377803Y81688421D01*
X56516533Y82047946D01*
X56652576Y81688421D01*
G37*
G36*
X58068432Y80889522D02*
G01*
X53195582Y80889522D01*
X53195582Y81000633D01*
X54204041Y81000633D01*
X55006379Y81000633D01*
X55006379Y81125685D01*
X54204041Y81125685D01*
X54204041Y81000633D01*
X53195582Y81000633D01*
X53195582Y81282000D01*
X53306693Y81282000D01*
X53509903Y81282000D01*
X53509903Y81719684D01*
X53908508Y81719684D01*
X53908508Y81282000D01*
X54111718Y81282000D01*
X55100413Y81282000D01*
X55304355Y81282000D01*
X55710287Y81958309D01*
X55710287Y81282000D01*
X55899087Y81282000D01*
X56003378Y81282000D01*
X56224418Y81282000D01*
X56312346Y81516474D01*
X56715102Y81516474D01*
X56798145Y81282000D01*
X57013811Y81282000D01*
X56887083Y81610263D01*
X57080245Y81610263D01*
X57095909Y81560302D01*
X57114506Y81514526D01*
X57140695Y81465122D01*
X57171109Y81421745D01*
X57205748Y81384395D01*
X57231187Y81362845D01*
X57272664Y81335370D01*
X57318141Y81313580D01*
X57367621Y81297475D01*
X57421101Y81287053D01*
X57478583Y81282316D01*
X57498633Y81282000D01*
X57547650Y81284122D01*
X57605786Y81292742D01*
X57660440Y81307993D01*
X57711612Y81329875D01*
X57759301Y81358387D01*
X57803508Y81393531D01*
X57828361Y81417800D01*
X57865513Y81462670D01*
X57896367Y81512405D01*
X57920925Y81567007D01*
X57936038Y81614192D01*
X57947120Y81664491D01*
X57954173Y81717903D01*
X57957195Y81774430D01*
X57957321Y81789049D01*
X57955295Y81849590D01*
X57949215Y81906652D01*
X57939083Y81960232D01*
X57924898Y82010333D01*
X57906660Y82056953D01*
X57878163Y82110333D01*
X57843333Y82158275D01*
X57827628Y82175929D01*
X57785031Y82215614D01*
X57738451Y82248572D01*
X57687887Y82274805D01*
X57633341Y82294311D01*
X57574811Y82307091D01*
X57525119Y82312472D01*
X57486177Y82313682D01*
X57430097Y82310856D01*
X57377417Y82302377D01*
X57328136Y82288244D01*
X57282253Y82268459D01*
X57239769Y82243021D01*
X57200685Y82211930D01*
X57186002Y82197911D01*
X57153823Y82159870D01*
X57125919Y82114380D01*
X57105008Y82068465D01*
X57087370Y82016847D01*
X57082932Y82001051D01*
X57284188Y81969788D01*
X57301035Y82020575D01*
X57327059Y82063455D01*
X57358682Y82095573D01*
X57400525Y82121855D01*
X57448140Y82137227D01*
X57496435Y82141735D01*
X57549741Y82136759D01*
X57597796Y82121830D01*
X57640599Y82096947D01*
X57678152Y82062112D01*
X57708606Y82016118D01*
X57728115Y81965730D01*
X57739536Y81915006D01*
X57746061Y81857327D01*
X57747761Y81803947D01*
X57746085Y81747454D01*
X57741058Y81696280D01*
X57730603Y81641892D01*
X57715321Y81595164D01*
X57691394Y81550328D01*
X57679129Y81534303D01*
X57642233Y81499148D01*
X57600177Y81474036D01*
X57552962Y81458970D01*
X57500587Y81453947D01*
X57447523Y81460181D01*
X57399826Y81478883D01*
X57361124Y81506704D01*
X57327861Y81545592D01*
X57303429Y81590706D01*
X57286092Y81638853D01*
X57277349Y81672789D01*
X57080245Y81610263D01*
X56887083Y81610263D01*
X56621557Y82298051D01*
X56406623Y82298051D01*
X56164676Y81688421D01*
X56003378Y81282000D01*
X55899087Y81282000D01*
X55899087Y82298051D01*
X55701250Y82298051D01*
X55289212Y81611484D01*
X55289212Y82298051D01*
X55100413Y82298051D01*
X55100413Y81282000D01*
X54111718Y81282000D01*
X54111718Y82298051D01*
X53908508Y82298051D01*
X53908508Y81891631D01*
X53509903Y81891631D01*
X53509903Y82298051D01*
X53306693Y82298051D01*
X53306693Y81282000D01*
X53195582Y81282000D01*
X53195582Y82424793D01*
X58068432Y82424793D01*
X58068432Y80889522D01*
G37*
G36*
X77508508Y81453947D02*
G01*
X77320196Y81453947D01*
X77270264Y81454329D01*
X77218008Y81456100D01*
X77180734Y81460054D01*
X77132814Y81477891D01*
X77106972Y81499621D01*
X77083112Y81544613D01*
X77078396Y81584129D01*
X77086145Y81632384D01*
X77100378Y81659844D01*
X77137644Y81693514D01*
X77163881Y81705273D01*
X77213700Y81714603D01*
X77267034Y81718276D01*
X77319175Y81719557D01*
X77344376Y81719684D01*
X77508508Y81719684D01*
X77508508Y81453947D01*
G37*
G36*
X77508508Y81891631D02*
G01*
X77375151Y81891631D01*
X77321418Y81891844D01*
X77270050Y81892713D01*
X77227628Y81895050D01*
X77178435Y81908484D01*
X77145563Y81931442D01*
X77120479Y81973833D01*
X77115521Y82010577D01*
X77124648Y82060269D01*
X77141411Y82087025D01*
X77183294Y82114693D01*
X77217859Y82122684D01*
X77271153Y82125139D01*
X77327035Y82125890D01*
X77382894Y82126100D01*
X77391759Y82126104D01*
X77508508Y82126104D01*
X77508508Y81891631D01*
G37*
G36*
X79917719Y81875999D02*
G01*
X79767265Y81875999D01*
X79716266Y81876420D01*
X79666535Y81877974D01*
X79613736Y81882182D01*
X79584572Y81887967D01*
X79542036Y81912955D01*
X79527663Y81929733D01*
X79508930Y81977410D01*
X79506903Y82003738D01*
X79515481Y82053687D01*
X79534013Y82084094D01*
X79574129Y82112427D01*
X79610706Y82122684D01*
X79660104Y82125249D01*
X79709625Y82125940D01*
X79758961Y82126104D01*
X79917719Y82126104D01*
X79917719Y81875999D01*
G37*
G36*
X80232040Y81155258D02*
G01*
X76756992Y81155258D01*
X76756992Y81574603D01*
X76868103Y81574603D01*
X76872602Y81523461D01*
X76886100Y81473350D01*
X76900099Y81440514D01*
X76927358Y81395463D01*
X76961144Y81357762D01*
X76987293Y81336711D01*
X77032333Y81311775D01*
X77080016Y81296280D01*
X77123581Y81288839D01*
X77175478Y81285607D01*
X77226174Y81284031D01*
X77280568Y81282977D01*
X77333610Y81282310D01*
X77368801Y81282000D01*
X77711718Y81282000D01*
X77711718Y81547737D01*
X77822604Y81547737D01*
X78201913Y81547737D01*
X78201913Y81579000D01*
X78344062Y81579000D01*
X78348761Y81525729D01*
X78362858Y81474605D01*
X78386352Y81425628D01*
X78392178Y81416090D01*
X78422392Y81376454D01*
X78458905Y81343000D01*
X78501716Y81315729D01*
X78528221Y81303250D01*
X78574887Y81287114D01*
X78626957Y81275589D01*
X78676950Y81269286D01*
X78731081Y81266513D01*
X78747307Y81266369D01*
X78804830Y81268510D01*
X78858023Y81274932D01*
X78890292Y81282000D01*
X79215521Y81282000D01*
X79458787Y81282000D01*
X79605821Y81505483D01*
X79633478Y81545883D01*
X79664932Y81590373D01*
X79695534Y81630917D01*
X79713043Y81651296D01*
X79752343Y81682842D01*
X79774104Y81692817D01*
X79822353Y81701902D01*
X79872098Y81704041D01*
X79876442Y81704052D01*
X79917719Y81704052D01*
X79917719Y81282000D01*
X80120929Y81282000D01*
X80120929Y82298051D01*
X79693016Y82298051D01*
X79635582Y82297089D01*
X79584366Y82294204D01*
X79532470Y82288407D01*
X79483522Y82278576D01*
X79458542Y82270696D01*
X79411631Y82246838D01*
X79371645Y82212880D01*
X79341306Y82173243D01*
X79318122Y82127452D01*
X79303525Y82077702D01*
X79297514Y82023992D01*
X79297342Y82012775D01*
X79298030Y82003738D01*
X79301510Y81958004D01*
X79314012Y81908239D01*
X79334849Y81863482D01*
X79364020Y81823731D01*
X79401374Y81789919D01*
X79447002Y81762976D01*
X79493713Y81745036D01*
X79546759Y81732355D01*
X79563078Y81729698D01*
X79520483Y81702104D01*
X79480268Y81669961D01*
X79454390Y81644457D01*
X79421316Y81604178D01*
X79392839Y81564153D01*
X79364866Y81521717D01*
X79338619Y81479837D01*
X79215521Y81282000D01*
X78890292Y81282000D01*
X78906887Y81285635D01*
X78959809Y81304131D01*
X79006498Y81328792D01*
X79040643Y81354052D01*
X79076126Y81389850D01*
X79105821Y81431298D01*
X79129730Y81478396D01*
X79147850Y81531143D01*
X79158530Y81579416D01*
X79163009Y81610263D01*
X78965172Y81625894D01*
X78952245Y81575547D01*
X78931083Y81529121D01*
X78899541Y81489624D01*
X78892876Y81483745D01*
X78850760Y81457881D01*
X78799640Y81442752D01*
X78745353Y81438316D01*
X78693949Y81441542D01*
X78645807Y81452695D01*
X78600503Y81476595D01*
X78597342Y81479104D01*
X78563282Y81517626D01*
X78547955Y81564710D01*
X78547517Y81574848D01*
X78560337Y81623392D01*
X78568521Y81634687D01*
X78609449Y81664330D01*
X78641550Y81677674D01*
X78690403Y81692620D01*
X78740225Y81706278D01*
X78788940Y81719090D01*
X78804460Y81723103D01*
X78853143Y81736596D01*
X78905281Y81753953D01*
X78950567Y81772580D01*
X78994741Y81795918D01*
X79033804Y81824708D01*
X79069968Y81863231D01*
X79097250Y81905284D01*
X79115649Y81950867D01*
X79125166Y81999979D01*
X79126616Y82029628D01*
X79121479Y82081842D01*
X79106068Y82131690D01*
X79083141Y82174952D01*
X79052072Y82214217D01*
X79013513Y82247138D01*
X78967465Y82273713D01*
X78957356Y82278267D01*
X78908391Y82295387D01*
X78860389Y82305901D01*
X78808175Y82311988D01*
X78759031Y82313682D01*
X78702092Y82311601D01*
X78649732Y82305358D01*
X78601952Y82294953D01*
X78550661Y82276972D01*
X78505965Y82252998D01*
X78473755Y82228442D01*
X78436120Y82188426D01*
X78407204Y82142963D01*
X78387006Y82092055D01*
X78376634Y82044084D01*
X78372883Y82001051D01*
X78576337Y82001051D01*
X78590271Y82051346D01*
X78617205Y82095004D01*
X78632269Y82108763D01*
X78678110Y82131303D01*
X78730500Y82140576D01*
X78761229Y82141735D01*
X78812768Y82138253D01*
X78860866Y82126378D01*
X78899959Y82106076D01*
X78929649Y82064997D01*
X78932199Y82044527D01*
X78915163Y81997769D01*
X78901913Y81984687D01*
X78857663Y81960221D01*
X78810952Y81943185D01*
X78758784Y81927803D01*
X78715067Y81916543D01*
X78662102Y81902936D01*
X78614580Y81889226D01*
X78566019Y81873101D01*
X78519594Y81854500D01*
X78495493Y81842782D01*
X78454100Y81816578D01*
X78415566Y81781528D01*
X78384362Y81739956D01*
X78361418Y81691514D01*
X78348824Y81641216D01*
X78344220Y81590848D01*
X78344062Y81579000D01*
X78201913Y81579000D01*
X78201913Y81719684D01*
X77822604Y81719684D01*
X77822604Y81547737D01*
X77711718Y81547737D01*
X77711718Y82298051D01*
X77309205Y82298051D01*
X77259863Y82297560D01*
X77210598Y82295797D01*
X77159708Y82291790D01*
X77131152Y82287793D01*
X77082032Y82274776D01*
X77037680Y82253251D01*
X77025884Y82245539D01*
X76988270Y82213428D01*
X76956641Y82173090D01*
X76948703Y82160054D01*
X76928619Y82114615D01*
X76918775Y82064824D01*
X76917684Y82040375D01*
X76920742Y82010577D01*
X76923042Y81988168D01*
X76939116Y81939258D01*
X76955786Y81908483D01*
X76988175Y81867645D01*
X77028189Y81835256D01*
X77059101Y81818358D01*
X77010687Y81800251D01*
X76964825Y81773107D01*
X76927310Y81738570D01*
X76917684Y81726767D01*
X76891538Y81684096D01*
X76875075Y81636988D01*
X76868296Y81585445D01*
X76868273Y81584129D01*
X76868103Y81574603D01*
X76756992Y81574603D01*
X76756992Y82424793D01*
X80232040Y82424793D01*
X80232040Y81155258D01*
G37*
G36*
X63252576Y81688421D02*
G01*
X62977803Y81688421D01*
X63116533Y82047946D01*
X63252576Y81688421D01*
G37*
G36*
X64668432Y80889522D02*
G01*
X59886929Y80889522D01*
X59886929Y81000633D01*
X60804041Y81000633D01*
X61606379Y81000633D01*
X61606379Y81125685D01*
X60804041Y81125685D01*
X60804041Y81000633D01*
X59886929Y81000633D01*
X59886929Y81453947D01*
X59998040Y81453947D01*
X59998040Y81282000D01*
X60706833Y81282000D01*
X61700413Y81282000D01*
X61904355Y81282000D01*
X62310287Y81958309D01*
X62310287Y81282000D01*
X62499087Y81282000D01*
X62603378Y81282000D01*
X62824418Y81282000D01*
X62912346Y81516474D01*
X63315102Y81516474D01*
X63398145Y81282000D01*
X63613811Y81282000D01*
X63487083Y81610263D01*
X63680245Y81610263D01*
X63695909Y81560302D01*
X63714506Y81514526D01*
X63740695Y81465122D01*
X63771109Y81421745D01*
X63805748Y81384395D01*
X63831187Y81362845D01*
X63872664Y81335370D01*
X63918141Y81313580D01*
X63967621Y81297475D01*
X64021101Y81287053D01*
X64078583Y81282316D01*
X64098633Y81282000D01*
X64147650Y81284122D01*
X64205786Y81292742D01*
X64260440Y81307993D01*
X64311612Y81329875D01*
X64359301Y81358387D01*
X64403508Y81393531D01*
X64428361Y81417800D01*
X64465513Y81462670D01*
X64496367Y81512405D01*
X64520925Y81567007D01*
X64536038Y81614192D01*
X64547120Y81664491D01*
X64554173Y81717903D01*
X64557195Y81774430D01*
X64557321Y81789049D01*
X64555295Y81849590D01*
X64549215Y81906652D01*
X64539083Y81960232D01*
X64524898Y82010333D01*
X64506660Y82056953D01*
X64478163Y82110333D01*
X64443333Y82158275D01*
X64427628Y82175929D01*
X64385031Y82215614D01*
X64338451Y82248572D01*
X64287887Y82274805D01*
X64233341Y82294311D01*
X64174811Y82307091D01*
X64125119Y82312472D01*
X64086177Y82313682D01*
X64030097Y82310856D01*
X63977417Y82302377D01*
X63928136Y82288244D01*
X63882253Y82268459D01*
X63839769Y82243021D01*
X63800685Y82211930D01*
X63786002Y82197911D01*
X63753823Y82159870D01*
X63725919Y82114380D01*
X63705008Y82068465D01*
X63687370Y82016847D01*
X63682932Y82001051D01*
X63884188Y81969788D01*
X63901035Y82020575D01*
X63927059Y82063455D01*
X63958682Y82095573D01*
X64000525Y82121855D01*
X64048140Y82137227D01*
X64096435Y82141735D01*
X64149741Y82136759D01*
X64197796Y82121830D01*
X64240599Y82096947D01*
X64278152Y82062112D01*
X64308606Y82016118D01*
X64328115Y81965730D01*
X64339536Y81915006D01*
X64346061Y81857327D01*
X64347761Y81803947D01*
X64346085Y81747454D01*
X64341058Y81696280D01*
X64330603Y81641892D01*
X64315321Y81595164D01*
X64291394Y81550328D01*
X64279129Y81534303D01*
X64242233Y81499148D01*
X64200177Y81474036D01*
X64152962Y81458970D01*
X64100587Y81453947D01*
X64047523Y81460181D01*
X63999826Y81478883D01*
X63961124Y81506704D01*
X63927861Y81545592D01*
X63903429Y81590706D01*
X63886092Y81638853D01*
X63877349Y81672789D01*
X63680245Y81610263D01*
X63487083Y81610263D01*
X63221557Y82298051D01*
X63006623Y82298051D01*
X62764676Y81688421D01*
X62603378Y81282000D01*
X62499087Y81282000D01*
X62499087Y82298051D01*
X62301250Y82298051D01*
X61889212Y81611484D01*
X61889212Y82298051D01*
X61700413Y82298051D01*
X61700413Y81282000D01*
X60706833Y81282000D01*
X60706833Y82298051D01*
X60503623Y82298051D01*
X60503623Y81453947D01*
X59998040Y81453947D01*
X59886929Y81453947D01*
X59886929Y82424793D01*
X64668432Y82424793D01*
X64668432Y80889522D01*
G37*
G36*
X93208508Y81253947D02*
G01*
X93020196Y81253947D01*
X92970264Y81254329D01*
X92918008Y81256100D01*
X92880734Y81260054D01*
X92832814Y81277891D01*
X92806972Y81299621D01*
X92783112Y81344613D01*
X92778396Y81384129D01*
X92786145Y81432384D01*
X92800378Y81459844D01*
X92837644Y81493514D01*
X92863881Y81505273D01*
X92913700Y81514603D01*
X92967034Y81518276D01*
X93019175Y81519557D01*
X93044376Y81519684D01*
X93208508Y81519684D01*
X93208508Y81253947D01*
G37*
G36*
X93208508Y81691631D02*
G01*
X93075151Y81691631D01*
X93021418Y81691844D01*
X92970050Y81692713D01*
X92927628Y81695050D01*
X92878435Y81708484D01*
X92845563Y81731442D01*
X92820479Y81773833D01*
X92815521Y81810577D01*
X92824648Y81860269D01*
X92841411Y81887025D01*
X92883294Y81914693D01*
X92917859Y81922684D01*
X92971153Y81925139D01*
X93027035Y81925890D01*
X93082894Y81926100D01*
X93091759Y81926104D01*
X93208508Y81926104D01*
X93208508Y81691631D01*
G37*
G36*
X95617719Y81675999D02*
G01*
X95467265Y81675999D01*
X95416266Y81676420D01*
X95366535Y81677974D01*
X95313736Y81682182D01*
X95284572Y81687967D01*
X95242036Y81712955D01*
X95227663Y81729733D01*
X95208930Y81777410D01*
X95206903Y81803738D01*
X95215481Y81853687D01*
X95234013Y81884094D01*
X95274129Y81912427D01*
X95310706Y81922684D01*
X95360104Y81925249D01*
X95409625Y81925940D01*
X95458961Y81926104D01*
X95617719Y81926104D01*
X95617719Y81675999D01*
G37*
G36*
X95932040Y80955258D02*
G01*
X92456992Y80955258D01*
X92456992Y81374603D01*
X92568103Y81374603D01*
X92572602Y81323461D01*
X92586100Y81273350D01*
X92600099Y81240514D01*
X92627358Y81195463D01*
X92661144Y81157762D01*
X92687293Y81136711D01*
X92732333Y81111775D01*
X92780016Y81096280D01*
X92823581Y81088839D01*
X92875478Y81085607D01*
X92926174Y81084031D01*
X92980568Y81082977D01*
X93033610Y81082310D01*
X93068801Y81082000D01*
X93411718Y81082000D01*
X93411718Y81347737D01*
X93522604Y81347737D01*
X93901913Y81347737D01*
X93901913Y81379000D01*
X94044062Y81379000D01*
X94048761Y81325729D01*
X94062858Y81274605D01*
X94086352Y81225628D01*
X94092178Y81216090D01*
X94122392Y81176454D01*
X94158905Y81143000D01*
X94201716Y81115729D01*
X94228221Y81103250D01*
X94274887Y81087114D01*
X94326957Y81075589D01*
X94376950Y81069286D01*
X94431081Y81066513D01*
X94447307Y81066369D01*
X94504830Y81068510D01*
X94558023Y81074932D01*
X94590292Y81082000D01*
X94915521Y81082000D01*
X95158787Y81082000D01*
X95305821Y81305483D01*
X95333478Y81345883D01*
X95364932Y81390373D01*
X95395534Y81430917D01*
X95413043Y81451296D01*
X95452343Y81482842D01*
X95474104Y81492817D01*
X95522353Y81501902D01*
X95572098Y81504041D01*
X95576442Y81504052D01*
X95617719Y81504052D01*
X95617719Y81082000D01*
X95820929Y81082000D01*
X95820929Y82098051D01*
X95393016Y82098051D01*
X95335582Y82097089D01*
X95284366Y82094204D01*
X95232470Y82088407D01*
X95183522Y82078576D01*
X95158542Y82070696D01*
X95111631Y82046838D01*
X95071645Y82012880D01*
X95041306Y81973243D01*
X95018122Y81927452D01*
X95003525Y81877702D01*
X94997514Y81823992D01*
X94997342Y81812775D01*
X94998030Y81803738D01*
X95001510Y81758004D01*
X95014012Y81708239D01*
X95034849Y81663482D01*
X95064020Y81623731D01*
X95101374Y81589919D01*
X95147002Y81562976D01*
X95193713Y81545036D01*
X95246759Y81532355D01*
X95263078Y81529698D01*
X95220483Y81502104D01*
X95180268Y81469961D01*
X95154390Y81444457D01*
X95121316Y81404178D01*
X95092839Y81364153D01*
X95064866Y81321717D01*
X95038619Y81279837D01*
X94915521Y81082000D01*
X94590292Y81082000D01*
X94606887Y81085635D01*
X94659809Y81104131D01*
X94706498Y81128792D01*
X94740643Y81154052D01*
X94776126Y81189850D01*
X94805821Y81231298D01*
X94829730Y81278396D01*
X94847850Y81331143D01*
X94858530Y81379416D01*
X94863009Y81410263D01*
X94665172Y81425894D01*
X94652245Y81375547D01*
X94631083Y81329121D01*
X94599541Y81289624D01*
X94592876Y81283745D01*
X94550760Y81257881D01*
X94499640Y81242752D01*
X94445353Y81238316D01*
X94393949Y81241542D01*
X94345807Y81252695D01*
X94300503Y81276595D01*
X94297342Y81279104D01*
X94263282Y81317626D01*
X94247955Y81364710D01*
X94247517Y81374848D01*
X94260337Y81423392D01*
X94268521Y81434687D01*
X94309449Y81464330D01*
X94341550Y81477674D01*
X94390403Y81492620D01*
X94440225Y81506278D01*
X94488940Y81519090D01*
X94504460Y81523103D01*
X94553143Y81536596D01*
X94605281Y81553953D01*
X94650567Y81572580D01*
X94694741Y81595918D01*
X94733804Y81624708D01*
X94769968Y81663231D01*
X94797250Y81705284D01*
X94815649Y81750867D01*
X94825166Y81799979D01*
X94826616Y81829628D01*
X94821479Y81881842D01*
X94806068Y81931690D01*
X94783141Y81974952D01*
X94752072Y82014217D01*
X94713513Y82047138D01*
X94667465Y82073713D01*
X94657356Y82078267D01*
X94608391Y82095387D01*
X94560389Y82105901D01*
X94508175Y82111988D01*
X94459031Y82113682D01*
X94402092Y82111601D01*
X94349732Y82105358D01*
X94301952Y82094953D01*
X94250661Y82076972D01*
X94205965Y82052998D01*
X94173755Y82028442D01*
X94136120Y81988426D01*
X94107204Y81942963D01*
X94087006Y81892055D01*
X94076634Y81844084D01*
X94072883Y81801051D01*
X94276337Y81801051D01*
X94290271Y81851346D01*
X94317205Y81895004D01*
X94332269Y81908763D01*
X94378110Y81931303D01*
X94430500Y81940576D01*
X94461229Y81941735D01*
X94512768Y81938253D01*
X94560866Y81926378D01*
X94599959Y81906076D01*
X94629649Y81864997D01*
X94632199Y81844527D01*
X94615163Y81797769D01*
X94601913Y81784687D01*
X94557663Y81760221D01*
X94510952Y81743185D01*
X94458784Y81727803D01*
X94415067Y81716543D01*
X94362102Y81702936D01*
X94314580Y81689226D01*
X94266019Y81673101D01*
X94219594Y81654500D01*
X94195493Y81642782D01*
X94154100Y81616578D01*
X94115566Y81581528D01*
X94084362Y81539956D01*
X94061418Y81491514D01*
X94048824Y81441216D01*
X94044220Y81390848D01*
X94044062Y81379000D01*
X93901913Y81379000D01*
X93901913Y81519684D01*
X93522604Y81519684D01*
X93522604Y81347737D01*
X93411718Y81347737D01*
X93411718Y82098051D01*
X93009205Y82098051D01*
X92959863Y82097560D01*
X92910598Y82095797D01*
X92859708Y82091790D01*
X92831152Y82087793D01*
X92782032Y82074776D01*
X92737680Y82053251D01*
X92725884Y82045539D01*
X92688270Y82013428D01*
X92656641Y81973090D01*
X92648703Y81960054D01*
X92628619Y81914615D01*
X92618775Y81864824D01*
X92617684Y81840375D01*
X92620742Y81810577D01*
X92623042Y81788168D01*
X92639116Y81739258D01*
X92655786Y81708483D01*
X92688175Y81667645D01*
X92728189Y81635256D01*
X92759101Y81618358D01*
X92710687Y81600251D01*
X92664825Y81573107D01*
X92627310Y81538570D01*
X92617684Y81526767D01*
X92591538Y81484096D01*
X92575075Y81436988D01*
X92568296Y81385445D01*
X92568273Y81384129D01*
X92568103Y81374603D01*
X92456992Y81374603D01*
X92456992Y82224793D01*
X95932040Y82224793D01*
X95932040Y80955258D01*
G37*
M02*
