%TF.GenerationSoftware,KiCad,Pcbnew,8.0.5*%
%TF.CreationDate,2025-03-07T14:51:54+05:30*%
%TF.ProjectId,Rapid_Core-RCP,52617069-645f-4436-9f72-652d5243502e,REV 1.0.0*%
%TF.SameCoordinates,PX811ac80PY7212260*%
%TF.FileFunction,Paste,Top*%
%TF.FilePolarity,Positive*%
%FSLAX46Y46*%
G04 Gerber Fmt 4.6, Leading zero omitted, Abs format (unit mm)*
G04 Created by KiCad (PCBNEW 8.0.5) date 2025-03-07 14:51:54*
%MOMM*%
%LPD*%
G01*
G04 APERTURE LIST*
G04 Aperture macros list*
%AMRoundRect*
0 Rectangle with rounded corners*
0 $1 Rounding radius*
0 $2 $3 $4 $5 $6 $7 $8 $9 X,Y pos of 4 corners*
0 Add a 4 corners polygon primitive as box body*
4,1,4,$2,$3,$4,$5,$6,$7,$8,$9,$2,$3,0*
0 Add four circle primitives for the rounded corners*
1,1,$1+$1,$2,$3*
1,1,$1+$1,$4,$5*
1,1,$1+$1,$6,$7*
1,1,$1+$1,$8,$9*
0 Add four rect primitives between the rounded corners*
20,1,$1+$1,$2,$3,$4,$5,0*
20,1,$1+$1,$4,$5,$6,$7,0*
20,1,$1+$1,$6,$7,$8,$9,0*
20,1,$1+$1,$8,$9,$2,$3,0*%
%AMRotRect*
0 Rectangle, with rotation*
0 The origin of the aperture is its center*
0 $1 length*
0 $2 width*
0 $3 Rotation angle, in degrees counterclockwise*
0 Add horizontal line*
21,1,$1,$2,0,0,$3*%
G04 Aperture macros list end*
%ADD10RoundRect,0.250000X0.450000X-0.350000X0.450000X0.350000X-0.450000X0.350000X-0.450000X-0.350000X0*%
%ADD11RoundRect,0.250000X0.250000X-0.250000X0.250000X0.250000X-0.250000X0.250000X-0.250000X-0.250000X0*%
%ADD12RoundRect,0.250000X0.475000X-0.337500X0.475000X0.337500X-0.475000X0.337500X-0.475000X-0.337500X0*%
%ADD13RoundRect,0.237500X-0.237500X0.250000X-0.237500X-0.250000X0.237500X-0.250000X0.237500X0.250000X0*%
%ADD14RoundRect,0.250000X0.337500X0.475000X-0.337500X0.475000X-0.337500X-0.475000X0.337500X-0.475000X0*%
%ADD15RoundRect,0.250000X-0.412500X-0.650000X0.412500X-0.650000X0.412500X0.650000X-0.412500X0.650000X0*%
%ADD16RoundRect,0.237500X0.250000X0.237500X-0.250000X0.237500X-0.250000X-0.237500X0.250000X-0.237500X0*%
%ADD17RoundRect,0.237500X-0.300000X-0.237500X0.300000X-0.237500X0.300000X0.237500X-0.300000X0.237500X0*%
%ADD18RoundRect,0.160000X0.160000X-0.197500X0.160000X0.197500X-0.160000X0.197500X-0.160000X-0.197500X0*%
%ADD19RoundRect,0.160000X-0.197500X-0.160000X0.197500X-0.160000X0.197500X0.160000X-0.197500X0.160000X0*%
%ADD20RoundRect,0.250000X-0.337500X-0.475000X0.337500X-0.475000X0.337500X0.475000X-0.337500X0.475000X0*%
%ADD21R,0.800000X0.300000*%
%ADD22R,1.200000X1.900000*%
%ADD23RoundRect,0.225000X-0.335876X-0.017678X-0.017678X-0.335876X0.335876X0.017678X0.017678X0.335876X0*%
%ADD24RoundRect,0.225000X0.017678X-0.335876X0.335876X-0.017678X-0.017678X0.335876X-0.335876X0.017678X0*%
%ADD25RoundRect,0.250000X0.450000X0.250000X-0.450000X0.250000X-0.450000X-0.250000X0.450000X-0.250000X0*%
%ADD26RoundRect,0.250000X-0.475000X0.337500X-0.475000X-0.337500X0.475000X-0.337500X0.475000X0.337500X0*%
%ADD27R,0.675000X0.250000*%
%ADD28R,0.650000X0.250000*%
%ADD29R,0.350000X0.650000*%
%ADD30R,0.450000X1.450000*%
%ADD31R,0.250000X0.425000*%
%ADD32RoundRect,0.075000X-0.725000X-0.075000X0.725000X-0.075000X0.725000X0.075000X-0.725000X0.075000X0*%
%ADD33RoundRect,0.075000X-0.075000X-0.725000X0.075000X-0.725000X0.075000X0.725000X-0.075000X0.725000X0*%
%ADD34RoundRect,0.150000X0.150000X-0.587500X0.150000X0.587500X-0.150000X0.587500X-0.150000X-0.587500X0*%
%ADD35RoundRect,0.237500X0.287500X0.237500X-0.287500X0.237500X-0.287500X-0.237500X0.287500X-0.237500X0*%
%ADD36RoundRect,0.237500X0.300000X0.237500X-0.300000X0.237500X-0.300000X-0.237500X0.300000X-0.237500X0*%
%ADD37R,0.889000X1.346200*%
%ADD38RoundRect,0.237500X0.237500X-0.300000X0.237500X0.300000X-0.237500X0.300000X-0.237500X-0.300000X0*%
%ADD39R,0.600000X1.800000*%
%ADD40RoundRect,0.237500X0.237500X-0.250000X0.237500X0.250000X-0.237500X0.250000X-0.237500X-0.250000X0*%
%ADD41RoundRect,0.237500X-0.250000X-0.237500X0.250000X-0.237500X0.250000X0.237500X-0.250000X0.237500X0*%
%ADD42RoundRect,0.150000X0.150000X-0.875000X0.150000X0.875000X-0.150000X0.875000X-0.150000X-0.875000X0*%
%ADD43RoundRect,0.250000X0.250000X0.250000X-0.250000X0.250000X-0.250000X-0.250000X0.250000X-0.250000X0*%
%ADD44RotRect,1.150000X1.000000X225.000000*%
%ADD45RoundRect,0.250000X0.350000X0.450000X-0.350000X0.450000X-0.350000X-0.450000X0.350000X-0.450000X0*%
%ADD46R,5.600000X1.650000*%
%ADD47RoundRect,0.250000X-0.650000X0.412500X-0.650000X-0.412500X0.650000X-0.412500X0.650000X0.412500X0*%
%ADD48RoundRect,0.250000X-0.350000X-0.450000X0.350000X-0.450000X0.350000X0.450000X-0.350000X0.450000X0*%
%ADD49RoundRect,0.225000X-0.225000X-0.250000X0.225000X-0.250000X0.225000X0.250000X-0.225000X0.250000X0*%
%ADD50RoundRect,0.237500X-0.237500X0.300000X-0.237500X-0.300000X0.237500X-0.300000X0.237500X0.300000X0*%
%ADD51R,1.200000X0.450000*%
%ADD52C,0.750000*%
%ADD53RoundRect,0.250000X0.650000X-0.412500X0.650000X0.412500X-0.650000X0.412500X-0.650000X-0.412500X0*%
%ADD54R,0.450000X1.200000*%
%ADD55R,0.700000X1.525000*%
%ADD56R,3.200000X2.400000*%
%ADD57R,1.500000X0.800000*%
%ADD58RoundRect,0.250000X-0.450000X0.350000X-0.450000X-0.350000X0.450000X-0.350000X0.450000X0.350000X0*%
%ADD59R,1.250000X1.000000*%
%ADD60R,0.850000X0.350000*%
%ADD61R,2.400000X3.100000*%
G04 APERTURE END LIST*
D10*
%TO.C,R6*%
X106774000Y16149500D03*
X106774000Y18149500D03*
%TD*%
D11*
%TO.C,D3*%
X33674000Y6862001D03*
X33674000Y9361999D03*
%TD*%
D12*
%TO.C,C40*%
X46624000Y67474500D03*
X46624000Y69549500D03*
%TD*%
D13*
%TO.C,R44*%
X19624000Y42937000D03*
X19624000Y41112000D03*
%TD*%
D14*
%TO.C,C37*%
X41726500Y61112000D03*
X39651500Y61112000D03*
%TD*%
%TO.C,C59*%
X92411500Y40812000D03*
X90336500Y40812000D03*
%TD*%
D15*
%TO.C,C50*%
X41424000Y11862000D03*
X44549000Y11862000D03*
%TD*%
D16*
%TO.C,R23*%
X122136500Y31309583D03*
X120311500Y31309583D03*
%TD*%
D17*
%TO.C,C36*%
X40826499Y46312000D03*
X42551501Y46312000D03*
%TD*%
D18*
%TO.C,R34*%
X78124000Y58912000D03*
X78124000Y60107000D03*
%TD*%
D19*
%TO.C,R9*%
X44726500Y66012000D03*
X45921500Y66012000D03*
%TD*%
D12*
%TO.C,C4*%
X24818000Y12478501D03*
X24818000Y14553501D03*
%TD*%
D20*
%TO.C,C30*%
X84686500Y28812000D03*
X86761500Y28812000D03*
%TD*%
D19*
%TO.C,R18*%
X59726500Y65912000D03*
X60921500Y65912000D03*
%TD*%
D21*
%TO.C,IC3*%
X111774000Y19899500D03*
X111774000Y19399500D03*
X111774000Y18899500D03*
X111774000Y18399500D03*
X114174000Y18399500D03*
X114174000Y18899500D03*
X114174000Y19399500D03*
X114174000Y19899500D03*
D22*
X112974000Y19149500D03*
%TD*%
D17*
%TO.C,C65*%
X76061500Y42712000D03*
X77786500Y42712000D03*
%TD*%
D19*
%TO.C,R35*%
X79424000Y65812000D03*
X80619000Y65812000D03*
%TD*%
D23*
%TO.C,C18*%
X43975992Y22910008D03*
X45072008Y21813992D03*
%TD*%
D19*
%TO.C,R38*%
X81824000Y65812000D03*
X83019000Y65812000D03*
%TD*%
D17*
%TO.C,C57*%
X90761499Y44212000D03*
X92486501Y44212000D03*
%TD*%
D24*
%TO.C,C13*%
X44177984Y25515984D03*
X45274000Y26612000D03*
%TD*%
D19*
%TO.C,R15*%
X57126500Y65912000D03*
X58321500Y65912000D03*
%TD*%
D25*
%TO.C,Q1*%
X17624000Y40924500D03*
X17624000Y42824500D03*
X15424001Y41874500D03*
%TD*%
D10*
%TO.C,R31*%
X96800000Y40200000D03*
X96800000Y42200000D03*
%TD*%
D26*
%TO.C,C9*%
X18824000Y6949500D03*
X18824000Y4874500D03*
%TD*%
D17*
%TO.C,C39*%
X40026499Y57312000D03*
X41751501Y57312000D03*
%TD*%
D18*
%TO.C,R30*%
X99954000Y59664500D03*
X99954000Y60859500D03*
%TD*%
D27*
%TO.C,IC1*%
X20541000Y12880001D03*
D28*
X20528000Y12230001D03*
X20528000Y11730001D03*
X20528000Y11230001D03*
D27*
X20541000Y10580001D03*
D29*
X21403000Y10355001D03*
D27*
X22265000Y10580001D03*
D28*
X22278000Y11230001D03*
X22278000Y11730001D03*
X22278000Y12230001D03*
D27*
X22265000Y12880001D03*
D29*
X21403000Y13105001D03*
D30*
X21403000Y11730001D03*
D31*
X20753000Y13217001D03*
X20753000Y10243001D03*
X22053000Y10243001D03*
X22053000Y13217001D03*
%TD*%
D18*
%TO.C,R36*%
X83124000Y43414500D03*
X83124000Y44609500D03*
%TD*%
D32*
%TO.C,U3*%
X65849000Y29787000D03*
X65849000Y29287000D03*
X65849000Y28787000D03*
X65849000Y28287000D03*
X65849000Y27787000D03*
X65849000Y27287000D03*
X65849000Y26787000D03*
X65849000Y26287000D03*
X65849000Y25787000D03*
X65849000Y25287000D03*
X65849000Y24787000D03*
X65849000Y24287000D03*
X65849000Y23787000D03*
X65849000Y23287000D03*
X65849000Y22787000D03*
X65849000Y22287000D03*
X65849000Y21787000D03*
X65849000Y21287000D03*
X65849000Y20787000D03*
X65849000Y20287000D03*
X65849000Y19787000D03*
X65849000Y19287000D03*
X65849000Y18787000D03*
X65849000Y18287000D03*
X65849000Y17787000D03*
D33*
X67524000Y16112000D03*
X68024000Y16112000D03*
X68524000Y16112000D03*
X69024000Y16112000D03*
X69524000Y16112000D03*
X70024000Y16112000D03*
X70524000Y16112000D03*
X71024000Y16112000D03*
X71524000Y16112000D03*
X72024000Y16112000D03*
X72524000Y16112000D03*
X73024000Y16112000D03*
X73524000Y16112000D03*
X74024000Y16112000D03*
X74524000Y16112000D03*
X75024000Y16112000D03*
X75524000Y16112000D03*
X76024000Y16112000D03*
X76524000Y16112000D03*
X77024000Y16112000D03*
X77524000Y16112000D03*
X78024000Y16112000D03*
X78524000Y16112000D03*
X79024000Y16112000D03*
X79524000Y16112000D03*
D32*
X81199000Y17787000D03*
X81199000Y18287000D03*
X81199000Y18787000D03*
X81199000Y19287000D03*
X81199000Y19787000D03*
X81199000Y20287000D03*
X81199000Y20787000D03*
X81199000Y21287000D03*
X81199000Y21787000D03*
X81199000Y22287000D03*
X81199000Y22787000D03*
X81199000Y23287000D03*
X81199000Y23787000D03*
X81199000Y24287000D03*
X81199000Y24787000D03*
X81199000Y25287000D03*
X81199000Y25787000D03*
X81199000Y26287000D03*
X81199000Y26787000D03*
X81199000Y27287000D03*
X81199000Y27787000D03*
X81199000Y28287000D03*
X81199000Y28787000D03*
X81199000Y29287000D03*
X81199000Y29787000D03*
D33*
X79524000Y31462000D03*
X79024000Y31462000D03*
X78524000Y31462000D03*
X78024000Y31462000D03*
X77524000Y31462000D03*
X77024000Y31462000D03*
X76524000Y31462000D03*
X76024000Y31462000D03*
X75524000Y31462000D03*
X75024000Y31462000D03*
X74524000Y31462000D03*
X74024000Y31462000D03*
X73524000Y31462000D03*
X73024000Y31462000D03*
X72524000Y31462000D03*
X72024000Y31462000D03*
X71524000Y31462000D03*
X71024000Y31462000D03*
X70524000Y31462000D03*
X70024000Y31462000D03*
X69524000Y31462000D03*
X69024000Y31462000D03*
X68524000Y31462000D03*
X68024000Y31462000D03*
X67524000Y31462000D03*
%TD*%
D13*
%TO.C,R45*%
X19924000Y54374500D03*
X19924000Y52549500D03*
%TD*%
D34*
%TO.C,D6*%
X80224000Y71612000D03*
X82124000Y71612000D03*
X81174000Y73487001D03*
%TD*%
D19*
%TO.C,R26*%
X95026500Y66312000D03*
X96221500Y66312000D03*
%TD*%
D18*
%TO.C,R25*%
X93664000Y59684500D03*
X93664000Y60879500D03*
%TD*%
D12*
%TO.C,C22*%
X62540000Y32324500D03*
X62540000Y34399500D03*
%TD*%
D17*
%TO.C,C27*%
X81161500Y15612000D03*
X82886500Y15612000D03*
%TD*%
D26*
%TO.C,C48*%
X48486500Y13999500D03*
X48486500Y11924500D03*
%TD*%
D18*
%TO.C,R19*%
X61924000Y59376999D03*
X61924000Y60571999D03*
%TD*%
D35*
%TO.C,D8*%
X17898999Y50412000D03*
X16149001Y50412000D03*
%TD*%
D36*
%TO.C,C62*%
X74586501Y57512000D03*
X72861499Y57512000D03*
%TD*%
D37*
%TO.C,L4*%
X95654000Y59672000D03*
X98154000Y59672000D03*
X98154000Y64221998D03*
X95654000Y64221998D03*
%TD*%
D38*
%TO.C,C11*%
X17274000Y26336998D03*
X17274000Y28062000D03*
%TD*%
D17*
%TO.C,C43*%
X52261499Y56712000D03*
X53986501Y56712000D03*
%TD*%
D18*
%TO.C,R14*%
X55924000Y59376999D03*
X55924000Y60571999D03*
%TD*%
D36*
%TO.C,C35*%
X42551501Y44712000D03*
X40826499Y44712000D03*
%TD*%
D25*
%TO.C,Q2*%
X17874000Y52512000D03*
X17874000Y54412000D03*
X15674001Y53462000D03*
%TD*%
D39*
%TO.C,U4*%
X44819001Y45862000D03*
X46089000Y45862000D03*
X47359000Y45862000D03*
X48628999Y45862000D03*
X48628999Y56762000D03*
X47359000Y56762000D03*
X46089000Y56762000D03*
X44819001Y56762000D03*
%TD*%
D36*
%TO.C,C14*%
X61986501Y27412000D03*
X60261499Y27412000D03*
%TD*%
D18*
%TO.C,R11*%
X47324000Y42814500D03*
X47324000Y44009500D03*
%TD*%
D36*
%TO.C,C42*%
X53986501Y58312000D03*
X52261499Y58312000D03*
%TD*%
D40*
%TO.C,R46*%
X21674000Y52549500D03*
X21674000Y54374500D03*
%TD*%
D37*
%TO.C,L2*%
X45524000Y59412000D03*
X48024000Y59412000D03*
X48024000Y63961998D03*
X45524000Y63961998D03*
%TD*%
D38*
%TO.C,C24*%
X64524000Y32249499D03*
X64524000Y33974501D03*
%TD*%
D37*
%TO.C,L5*%
X79958000Y58959535D03*
X82458000Y58959535D03*
X82458000Y63509533D03*
X79958000Y63509533D03*
%TD*%
D10*
%TO.C,R39*%
X81224000Y40612000D03*
X81224000Y42612000D03*
%TD*%
D17*
%TO.C,C52*%
X115699000Y44612000D03*
X117424000Y44612000D03*
%TD*%
D41*
%TO.C,R1*%
X22811500Y8712000D03*
X24636500Y8712000D03*
%TD*%
D36*
%TO.C,C45*%
X54886501Y44512000D03*
X53161499Y44512000D03*
%TD*%
D42*
%TO.C,U7*%
X76763000Y46612000D03*
X78033000Y46611999D03*
X79303000Y46612000D03*
X80573000Y46612000D03*
X81843000Y46612000D03*
X83113000Y46612000D03*
X84383000Y46611999D03*
X85653000Y46612000D03*
X85653000Y55912000D03*
X84383000Y55912001D03*
X83113000Y55912000D03*
X81843000Y55912000D03*
X80573000Y55912000D03*
X79303000Y55912000D03*
X78033000Y55912001D03*
X76763000Y55912000D03*
%TD*%
D14*
%TO.C,C66*%
X77761500Y40912000D03*
X75686500Y40912000D03*
%TD*%
D26*
%TO.C,C10*%
X20924000Y6949500D03*
X20924000Y4874500D03*
%TD*%
D43*
%TO.C,D4*%
X118323998Y31212000D03*
X115824000Y31212000D03*
%TD*%
D36*
%TO.C,C25*%
X61167751Y24812000D03*
X59442749Y24812000D03*
%TD*%
%TO.C,C54*%
X90086501Y56112000D03*
X88361499Y56112000D03*
%TD*%
D41*
%TO.C,R48*%
X15911500Y62012000D03*
X17736500Y62012000D03*
%TD*%
D18*
%TO.C,R17*%
X59524000Y42776999D03*
X59524000Y43971999D03*
%TD*%
%TO.C,R37*%
X79324000Y43504500D03*
X79324000Y44699500D03*
%TD*%
D38*
%TO.C,C16*%
X58496000Y20349499D03*
X58496000Y22074501D03*
%TD*%
D18*
%TO.C,R10*%
X46124000Y42814500D03*
X46124000Y44009500D03*
%TD*%
D17*
%TO.C,C33*%
X114549000Y54112000D03*
X116274000Y54112000D03*
%TD*%
%TO.C,C64*%
X76061500Y44312000D03*
X77786500Y44312000D03*
%TD*%
D41*
%TO.C,R2*%
X25411500Y10462000D03*
X27236500Y10462000D03*
%TD*%
D44*
%TO.C,Y1*%
X46522744Y25425693D03*
X45285307Y24188256D03*
X46275256Y23198307D03*
X47512693Y24435744D03*
%TD*%
D12*
%TO.C,C3*%
X16924000Y13074500D03*
X16924000Y15149500D03*
%TD*%
D40*
%TO.C,R33*%
X76724000Y58999500D03*
X76724000Y60824500D03*
%TD*%
D45*
%TO.C,R21*%
X46386500Y16812000D03*
X44386500Y16812000D03*
%TD*%
D35*
%TO.C,D9*%
X21298999Y62012000D03*
X19549001Y62012000D03*
%TD*%
D17*
%TO.C,C68*%
X95798998Y14812000D03*
X97524000Y14812000D03*
%TD*%
D46*
%TO.C,L1*%
X21224000Y18412000D03*
X21224000Y22562002D03*
%TD*%
D37*
%TO.C,L3*%
X57674000Y59409535D03*
X60174000Y59409535D03*
X60174000Y63959533D03*
X57674000Y63959533D03*
%TD*%
D17*
%TO.C,C28*%
X81661499Y31112000D03*
X83386501Y31112000D03*
%TD*%
D34*
%TO.C,D5*%
X96024000Y71812000D03*
X97924000Y71812000D03*
X96974000Y73687001D03*
%TD*%
D12*
%TO.C,C67*%
X81208000Y67274500D03*
X81208000Y69349500D03*
%TD*%
%TO.C,C2*%
X14824000Y13074500D03*
X14824000Y15149500D03*
%TD*%
D38*
%TO.C,C17*%
X60274000Y20386998D03*
X60274000Y22112000D03*
%TD*%
D47*
%TO.C,C7*%
X12874000Y20649500D03*
X12874000Y23774500D03*
%TD*%
D48*
%TO.C,R4*%
X58674000Y15062000D03*
X60674000Y15062000D03*
%TD*%
D40*
%TO.C,R47*%
X21424001Y41112000D03*
X21424001Y42937000D03*
%TD*%
D18*
%TO.C,R28*%
X94974000Y43424500D03*
X94974000Y44619500D03*
%TD*%
D40*
%TO.C,R20*%
X33674000Y3349500D03*
X33674000Y5174500D03*
%TD*%
D47*
%TO.C,C6*%
X15424000Y23774500D03*
X15424000Y20649500D03*
%TD*%
D20*
%TO.C,C69*%
X95849000Y13012000D03*
X97924000Y13012000D03*
%TD*%
D19*
%TO.C,R12*%
X47326500Y66012000D03*
X48521500Y66012000D03*
%TD*%
D49*
%TO.C,C20*%
X53474000Y26862000D03*
X55024000Y26862000D03*
%TD*%
D18*
%TO.C,R13*%
X49689000Y59414500D03*
X49689000Y60609500D03*
%TD*%
D12*
%TO.C,C31*%
X117774000Y18112000D03*
X117774000Y20187000D03*
%TD*%
D35*
%TO.C,D7*%
X17598999Y38812000D03*
X15849001Y38812000D03*
%TD*%
D12*
%TO.C,C47*%
X59124000Y67474500D03*
X59124000Y69549500D03*
%TD*%
D14*
%TO.C,C44*%
X54861500Y42512000D03*
X52786500Y42512000D03*
%TD*%
D50*
%TO.C,C49*%
X46586500Y13924501D03*
X46586500Y12199499D03*
%TD*%
D16*
%TO.C,R42*%
X18036500Y48112000D03*
X16211500Y48112000D03*
%TD*%
D40*
%TO.C,R3*%
X22724000Y4899500D03*
X22724000Y6724500D03*
%TD*%
D51*
%TO.C,IC5*%
X113474000Y40687001D03*
X113474000Y40037000D03*
X113474000Y39387000D03*
X113474000Y38736999D03*
X115974000Y38736999D03*
X115974000Y39387000D03*
X115974000Y40037000D03*
X115974000Y40687001D03*
%TD*%
D52*
%TO.C,TP10*%
X108774000Y18149500D03*
%TD*%
D42*
%TO.C,U6*%
X92424000Y46612000D03*
X93694000Y46611999D03*
X94964000Y46612000D03*
X96234000Y46612000D03*
X97504000Y46612000D03*
X98774000Y46612000D03*
X100044000Y46611999D03*
X101314000Y46612000D03*
X101314000Y55912000D03*
X100044000Y55912001D03*
X98774000Y55912000D03*
X97504000Y55912000D03*
X96234000Y55912000D03*
X94964000Y55912000D03*
X93694000Y55912001D03*
X92424000Y55912000D03*
%TD*%
D53*
%TO.C,C53*%
X118524000Y39349500D03*
X118524000Y42474500D03*
%TD*%
D20*
%TO.C,C51*%
X115486500Y46412000D03*
X117561500Y46412000D03*
%TD*%
D38*
%TO.C,C1*%
X17024000Y9549499D03*
X17024000Y11274501D03*
%TD*%
D14*
%TO.C,C34*%
X42526500Y42912000D03*
X40451500Y42912000D03*
%TD*%
D20*
%TO.C,C29*%
X81986500Y13112000D03*
X84061500Y13112000D03*
%TD*%
D38*
%TO.C,C32*%
X115774000Y18286999D03*
X115774000Y20012001D03*
%TD*%
D40*
%TO.C,R32*%
X101524000Y59649500D03*
X101524000Y61474500D03*
%TD*%
D16*
%TO.C,R43*%
X17636500Y37012000D03*
X15811500Y37012000D03*
%TD*%
D54*
%TO.C,IC4*%
X42674001Y16562000D03*
X42024000Y16562000D03*
X41374000Y16562000D03*
X40723999Y16562000D03*
X40723999Y14062000D03*
X41374000Y14062000D03*
X42024000Y14062000D03*
X42674001Y14062000D03*
%TD*%
D38*
%TO.C,C26*%
X65424000Y14549499D03*
X65424000Y16274501D03*
%TD*%
D20*
%TO.C,C56*%
X88086500Y59712000D03*
X90161500Y59712000D03*
%TD*%
D18*
%TO.C,R40*%
X84324000Y58914500D03*
X84324000Y60109500D03*
%TD*%
D55*
%TO.C,IC2*%
X22824000Y31512000D03*
X21554000Y31512000D03*
X20284000Y31512000D03*
X19014000Y31512000D03*
X19014000Y26088000D03*
X20284000Y26088000D03*
X21554000Y26088000D03*
X22824000Y26088000D03*
D56*
X20919000Y28800000D03*
%TD*%
D49*
%TO.C,C21*%
X53474000Y25362000D03*
X55024000Y25362000D03*
%TD*%
D57*
%TO.C,Y2*%
X56774000Y25362000D03*
X56774000Y26862000D03*
%TD*%
D36*
%TO.C,C38*%
X41689000Y59112000D03*
X39963998Y59112000D03*
%TD*%
D34*
%TO.C,D1*%
X45624000Y71736999D03*
X47524000Y71736999D03*
X46574000Y73612000D03*
%TD*%
D19*
%TO.C,R29*%
X97626500Y66312000D03*
X98821500Y66312000D03*
%TD*%
D14*
%TO.C,C5*%
X26561500Y6912000D03*
X24486500Y6912000D03*
%TD*%
D18*
%TO.C,R16*%
X58324000Y42776999D03*
X58324000Y43971999D03*
%TD*%
D36*
%TO.C,C55*%
X90086501Y57712000D03*
X88361499Y57712000D03*
%TD*%
D58*
%TO.C,R5*%
X106774000Y22149500D03*
X106774000Y20149500D03*
%TD*%
D40*
%TO.C,R24*%
X92234000Y59689500D03*
X92234000Y61514500D03*
%TD*%
D17*
%TO.C,C58*%
X90711499Y42612000D03*
X92436501Y42612000D03*
%TD*%
D12*
%TO.C,C60*%
X96924000Y67774500D03*
X96924000Y69849500D03*
%TD*%
D36*
%TO.C,C61*%
X74586501Y55912000D03*
X72861499Y55912000D03*
%TD*%
D40*
%TO.C,R41*%
X85724000Y58999500D03*
X85724000Y60824500D03*
%TD*%
D52*
%TO.C,TP9*%
X108774000Y20149500D03*
%TD*%
D58*
%TO.C,R22*%
X110424000Y42712000D03*
X110424000Y40712000D03*
%TD*%
D20*
%TO.C,C63*%
X72686500Y59512000D03*
X74761500Y59512000D03*
%TD*%
D39*
%TO.C,U5*%
X57019001Y45862000D03*
X58289000Y45862000D03*
X59559000Y45862000D03*
X60828999Y45862000D03*
X60828999Y56762000D03*
X59559000Y56762000D03*
X58289000Y56762000D03*
X57019001Y56762000D03*
%TD*%
D18*
%TO.C,R27*%
X98724000Y43314500D03*
X98724000Y44509500D03*
%TD*%
D34*
%TO.C,D2*%
X58174000Y71636999D03*
X60074000Y71636999D03*
X59124000Y73512000D03*
%TD*%
D38*
%TO.C,C23*%
X66040000Y32249499D03*
X66040000Y33974501D03*
%TD*%
D50*
%TO.C,C12*%
X24574000Y31274501D03*
X24574000Y29549499D03*
%TD*%
D48*
%TO.C,R7*%
X114524000Y51862000D03*
X116524000Y51862000D03*
%TD*%
D47*
%TO.C,C8*%
X10200000Y23762500D03*
X10200000Y20637500D03*
%TD*%
D17*
%TO.C,C46*%
X53161499Y46112000D03*
X54886501Y46112000D03*
%TD*%
D59*
%TO.C,SW1*%
X114499000Y57162000D03*
X122249000Y57162000D03*
%TD*%
D18*
%TO.C,R8*%
X43824000Y59412000D03*
X43824000Y60607000D03*
%TD*%
D14*
%TO.C,C41*%
X53961500Y60312000D03*
X51886500Y60312000D03*
%TD*%
D38*
%TO.C,C19*%
X62274000Y20349499D03*
X62274000Y22074501D03*
%TD*%
D12*
%TO.C,C15*%
X56524000Y20274500D03*
X56524000Y22349500D03*
%TD*%
D60*
%TO.C,IC6*%
X99524000Y16712000D03*
X99524000Y17512000D03*
X99524000Y18312000D03*
X99524000Y19112000D03*
X95624000Y19112001D03*
X95624000Y18312000D03*
X95624000Y17512000D03*
X95624000Y16711999D03*
D61*
X97574000Y17912000D03*
%TD*%
M02*
