%TF.GenerationSoftware,KiCad,Pcbnew,8.0.5*%
%TF.CreationDate,2024-11-25T15:58:14+05:30*%
%TF.ProjectId,Rapid_Core-RCP,52617069-645f-4436-9f72-652d5243502e,rev?*%
%TF.SameCoordinates,Original*%
%TF.FileFunction,Legend,Bot*%
%TF.FilePolarity,Positive*%
%FSLAX46Y46*%
G04 Gerber Fmt 4.6, Leading zero omitted, Abs format (unit mm)*
G04 Created by KiCad (PCBNEW 8.0.5) date 2024-11-25 15:58:14*
%MOMM*%
%LPD*%
G01*
G04 APERTURE LIST*
%ADD10C,0.200000*%
G04 APERTURE END LIST*
D10*
G36*
X251587851Y-77929372D02*
G01*
X251451808Y-77569847D01*
X251726581Y-77569847D01*
X251587851Y-77929372D01*
G37*
G36*
X252212116Y-78290588D02*
G01*
X250979462Y-78290588D01*
X250979462Y-77163427D01*
X251090573Y-77163427D01*
X251247475Y-77569847D01*
X251482827Y-78179477D01*
X251697760Y-78179477D01*
X252101005Y-77163427D01*
X251879965Y-77163427D01*
X251792038Y-77397900D01*
X251389282Y-77397900D01*
X251306239Y-77163427D01*
X251090573Y-77163427D01*
X250979462Y-77163427D01*
X250979462Y-77052316D01*
X252212116Y-77052316D01*
X252212116Y-78290588D01*
G37*
G36*
X252498039Y-110329372D02*
G01*
X252361996Y-109969847D01*
X252636769Y-109969847D01*
X252498039Y-110329372D01*
G37*
G36*
X255337831Y-110706219D02*
G01*
X250946140Y-110706219D01*
X250946140Y-110070475D01*
X251057251Y-110070475D01*
X251059277Y-110131016D01*
X251065357Y-110188078D01*
X251075489Y-110241658D01*
X251089674Y-110291759D01*
X251107912Y-110338379D01*
X251136409Y-110391759D01*
X251171239Y-110439701D01*
X251186944Y-110457355D01*
X251229541Y-110497040D01*
X251276121Y-110529998D01*
X251326685Y-110556231D01*
X251381231Y-110575737D01*
X251439761Y-110588517D01*
X251489453Y-110593898D01*
X251528395Y-110595108D01*
X251584475Y-110592282D01*
X251637155Y-110583803D01*
X251686436Y-110569670D01*
X251732319Y-110549885D01*
X251774803Y-110524447D01*
X251813887Y-110493356D01*
X251828570Y-110479337D01*
X251860749Y-110441296D01*
X251888653Y-110395806D01*
X251909564Y-110349891D01*
X251927202Y-110298273D01*
X251931640Y-110282477D01*
X251730384Y-110251214D01*
X251713537Y-110302001D01*
X251687513Y-110344881D01*
X251655890Y-110376999D01*
X251614047Y-110403281D01*
X251566432Y-110418653D01*
X251518137Y-110423161D01*
X251464831Y-110418185D01*
X251416776Y-110403256D01*
X251373973Y-110378373D01*
X251336420Y-110343538D01*
X251305966Y-110297544D01*
X251286457Y-110247156D01*
X251275036Y-110196432D01*
X251268511Y-110138753D01*
X251266811Y-110085373D01*
X251268487Y-110028880D01*
X251273514Y-109977706D01*
X251283969Y-109923318D01*
X251299251Y-109876590D01*
X251323178Y-109831754D01*
X251335443Y-109815729D01*
X251372339Y-109780574D01*
X251414395Y-109755462D01*
X251461610Y-109740396D01*
X251513985Y-109735373D01*
X251567049Y-109741607D01*
X251614746Y-109760309D01*
X251653448Y-109788130D01*
X251686711Y-109827018D01*
X251711143Y-109872132D01*
X251728480Y-109920279D01*
X251737223Y-109954215D01*
X251934327Y-109891689D01*
X251918663Y-109841728D01*
X251900066Y-109795952D01*
X251873877Y-109746548D01*
X251843463Y-109703171D01*
X251808824Y-109665821D01*
X251783385Y-109644271D01*
X251741908Y-109616796D01*
X251696431Y-109595006D01*
X251646951Y-109578901D01*
X251593471Y-109568479D01*
X251535989Y-109563742D01*
X251515939Y-109563427D01*
X252000761Y-109563427D01*
X252157663Y-109969847D01*
X252393015Y-110579477D01*
X252607949Y-110579477D01*
X253115485Y-110579477D01*
X253313322Y-110579477D01*
X253725360Y-109892910D01*
X253725360Y-110579477D01*
X253914159Y-110579477D01*
X254517928Y-110579477D01*
X254721138Y-110579477D01*
X254721138Y-109735373D01*
X255226720Y-109735373D01*
X255226720Y-109563427D01*
X254517928Y-109563427D01*
X254517928Y-110579477D01*
X253914159Y-110579477D01*
X253914159Y-109563427D01*
X253710217Y-109563427D01*
X253304285Y-110239735D01*
X253304285Y-109563427D01*
X253115485Y-109563427D01*
X253115485Y-110579477D01*
X252607949Y-110579477D01*
X253011194Y-109563427D01*
X252790154Y-109563427D01*
X252702226Y-109797900D01*
X252299470Y-109797900D01*
X252216427Y-109563427D01*
X252000761Y-109563427D01*
X251515939Y-109563427D01*
X251466922Y-109565548D01*
X251408786Y-109574168D01*
X251354132Y-109589419D01*
X251302960Y-109611301D01*
X251255271Y-109639813D01*
X251211064Y-109674957D01*
X251186211Y-109699226D01*
X251149059Y-109744096D01*
X251118205Y-109793831D01*
X251093647Y-109848433D01*
X251078534Y-109895618D01*
X251067452Y-109945917D01*
X251060399Y-109999329D01*
X251057377Y-110055856D01*
X251057251Y-110070475D01*
X250946140Y-110070475D01*
X250946140Y-109452316D01*
X255337831Y-109452316D01*
X255337831Y-110706219D01*
G37*
G36*
X189123690Y-54360530D02*
G01*
X189177805Y-54365092D01*
X189227827Y-54374012D01*
X189248849Y-54379993D01*
X189295453Y-54399404D01*
X189337807Y-54428613D01*
X189347034Y-54437634D01*
X189376710Y-54479583D01*
X189394105Y-54528116D01*
X189394906Y-54531668D01*
X189401585Y-54584515D01*
X189403903Y-54635028D01*
X189404666Y-54690796D01*
X189404676Y-54698486D01*
X189404676Y-54789833D01*
X188732519Y-54789833D01*
X188732519Y-54638158D01*
X188733674Y-54585154D01*
X188738482Y-54533890D01*
X188742289Y-54515059D01*
X188760349Y-54467395D01*
X188784299Y-54433238D01*
X188823683Y-54403563D01*
X188869800Y-54383947D01*
X188882240Y-54379993D01*
X188935087Y-54368173D01*
X188986998Y-54362152D01*
X189039693Y-54359557D01*
X189068353Y-54359233D01*
X189123690Y-54360530D01*
G37*
G36*
X189703365Y-57237126D02*
G01*
X188433830Y-57237126D01*
X188433830Y-56614815D01*
X188544941Y-56614815D01*
X188547285Y-56672649D01*
X188554318Y-56727632D01*
X188566038Y-56779765D01*
X188582448Y-56829047D01*
X188603545Y-56875478D01*
X188611619Y-56890321D01*
X188638633Y-56932324D01*
X188669665Y-56970223D01*
X188710948Y-57009250D01*
X188750687Y-57038256D01*
X188794445Y-57063158D01*
X188802129Y-57066909D01*
X188849421Y-57086996D01*
X188898242Y-57102927D01*
X188948591Y-57114702D01*
X189000469Y-57122321D01*
X189053875Y-57125785D01*
X189072017Y-57126015D01*
X189130123Y-57123697D01*
X189185739Y-57116742D01*
X189238864Y-57105150D01*
X189289500Y-57088921D01*
X189337645Y-57068056D01*
X189353141Y-57060070D01*
X189397285Y-57033194D01*
X189437393Y-57002024D01*
X189473465Y-56966561D01*
X189505502Y-56926805D01*
X189533503Y-56882755D01*
X189541940Y-56867118D01*
X189563953Y-56815690D01*
X189578054Y-56765856D01*
X189587341Y-56711512D01*
X189591468Y-56661340D01*
X189592254Y-56626050D01*
X189590227Y-56569442D01*
X189584145Y-56516852D01*
X189574008Y-56468281D01*
X189556491Y-56415301D01*
X189533135Y-56368109D01*
X189509212Y-56333203D01*
X189475838Y-56296281D01*
X189438000Y-56264647D01*
X189395696Y-56238303D01*
X189348927Y-56217249D01*
X189297694Y-56201484D01*
X189279623Y-56197404D01*
X189248360Y-56399393D01*
X189294857Y-56416347D01*
X189338455Y-56443481D01*
X189374145Y-56479505D01*
X189400427Y-56523268D01*
X189415799Y-56573958D01*
X189420307Y-56626050D01*
X189416205Y-56681776D01*
X189403898Y-56732265D01*
X189383387Y-56777519D01*
X189354671Y-56817537D01*
X189334578Y-56838053D01*
X189293193Y-56868698D01*
X189243837Y-56891815D01*
X189195188Y-56905640D01*
X189140683Y-56913934D01*
X189090788Y-56916623D01*
X189080321Y-56916699D01*
X189025753Y-56914755D01*
X188975621Y-56908924D01*
X188921319Y-56896794D01*
X188873406Y-56879065D01*
X188825581Y-56851306D01*
X188807746Y-56837076D01*
X188772343Y-56799773D01*
X188745636Y-56757749D01*
X188727624Y-56711003D01*
X188718308Y-56659535D01*
X188716888Y-56628004D01*
X188721120Y-56576129D01*
X188732541Y-56528101D01*
X188742533Y-56500021D01*
X188763313Y-56454386D01*
X188789313Y-56410684D01*
X188804815Y-56389623D01*
X188935730Y-56389623D01*
X188935730Y-56622631D01*
X189107676Y-56622631D01*
X189107676Y-56184215D01*
X188699302Y-56184215D01*
X188665978Y-56224731D01*
X188638302Y-56268336D01*
X188615588Y-56312351D01*
X188594277Y-56361835D01*
X188591347Y-56369351D01*
X188573265Y-56422504D01*
X188559624Y-56475960D01*
X188550424Y-56529721D01*
X188545666Y-56583785D01*
X188544941Y-56614815D01*
X188433830Y-56614815D01*
X188433830Y-55405813D01*
X188560573Y-55405813D01*
X189236881Y-55811745D01*
X188560573Y-55811745D01*
X188560573Y-56000544D01*
X189576623Y-56000544D01*
X189576623Y-55802708D01*
X188890056Y-55390670D01*
X189576623Y-55390670D01*
X189576623Y-55201870D01*
X188560573Y-55201870D01*
X188560573Y-55405813D01*
X188433830Y-55405813D01*
X188433830Y-54610558D01*
X188560573Y-54610558D01*
X188560573Y-54638158D01*
X188560573Y-54993287D01*
X189576623Y-54993287D01*
X189576623Y-54621549D01*
X189575699Y-54569382D01*
X189572383Y-54516774D01*
X189565769Y-54466531D01*
X189557328Y-54429819D01*
X189539244Y-54382075D01*
X189514669Y-54338311D01*
X189483602Y-54298526D01*
X189463538Y-54278144D01*
X189423361Y-54244956D01*
X189378393Y-54216560D01*
X189328633Y-54192956D01*
X189298919Y-54181912D01*
X189247460Y-54167487D01*
X189197750Y-54158245D01*
X189143669Y-54152159D01*
X189093835Y-54149455D01*
X189058828Y-54148939D01*
X189005659Y-54150424D01*
X188955785Y-54154877D01*
X188902823Y-54163601D01*
X188854165Y-54176202D01*
X188842673Y-54179958D01*
X188796182Y-54197969D01*
X188748001Y-54222358D01*
X188705102Y-54250809D01*
X188667485Y-54283320D01*
X188663154Y-54287669D01*
X188630101Y-54328465D01*
X188604761Y-54373116D01*
X188585789Y-54419460D01*
X188582066Y-54430551D01*
X188569829Y-54482236D01*
X188563595Y-54532466D01*
X188560908Y-54583115D01*
X188560573Y-54610558D01*
X188433830Y-54610558D01*
X188433830Y-54037828D01*
X189703365Y-54037828D01*
X189703365Y-57237126D01*
G37*
G36*
X251483943Y-76373270D02*
G01*
X251535310Y-76374139D01*
X251577732Y-76376476D01*
X251626925Y-76389910D01*
X251659798Y-76412868D01*
X251684882Y-76455259D01*
X251689840Y-76492003D01*
X251680713Y-76541695D01*
X251663950Y-76568451D01*
X251622066Y-76596119D01*
X251587502Y-76604110D01*
X251534207Y-76606565D01*
X251478325Y-76607316D01*
X251422466Y-76607526D01*
X251413601Y-76607530D01*
X251296853Y-76607530D01*
X251296853Y-76373057D01*
X251430210Y-76373057D01*
X251483943Y-76373270D01*
G37*
G36*
X251535097Y-75935755D02*
G01*
X251587353Y-75937526D01*
X251624627Y-75941480D01*
X251672547Y-75959317D01*
X251698388Y-75981047D01*
X251722248Y-76026039D01*
X251726965Y-76065555D01*
X251719215Y-76113810D01*
X251704983Y-76141270D01*
X251667717Y-76174940D01*
X251641480Y-76186699D01*
X251591660Y-76196029D01*
X251538326Y-76199702D01*
X251486185Y-76200983D01*
X251460984Y-76201110D01*
X251296853Y-76201110D01*
X251296853Y-75935373D01*
X251485164Y-75935373D01*
X251535097Y-75935755D01*
G37*
G36*
X252048369Y-76890588D02*
G01*
X250982532Y-76890588D01*
X250982532Y-76201110D01*
X251093643Y-76201110D01*
X251093643Y-76607530D01*
X251093643Y-76779477D01*
X251496155Y-76779477D01*
X251545498Y-76778986D01*
X251594762Y-76777223D01*
X251645653Y-76773216D01*
X251674208Y-76769219D01*
X251723329Y-76756202D01*
X251767681Y-76734677D01*
X251779477Y-76726965D01*
X251817090Y-76694854D01*
X251848720Y-76654516D01*
X251856658Y-76641480D01*
X251876741Y-76596041D01*
X251886586Y-76546250D01*
X251887676Y-76521801D01*
X251882318Y-76469594D01*
X251866244Y-76420684D01*
X251849575Y-76389909D01*
X251817186Y-76349071D01*
X251777172Y-76316682D01*
X251746260Y-76299784D01*
X251794674Y-76281677D01*
X251840536Y-76254533D01*
X251878050Y-76219996D01*
X251887676Y-76208193D01*
X251913823Y-76165522D01*
X251930285Y-76118414D01*
X251937064Y-76066871D01*
X251937258Y-76056029D01*
X251932758Y-76004887D01*
X251919260Y-75954776D01*
X251905262Y-75921940D01*
X251878002Y-75876889D01*
X251844217Y-75839188D01*
X251818067Y-75818137D01*
X251773027Y-75793201D01*
X251725344Y-75777706D01*
X251681780Y-75770265D01*
X251629883Y-75767033D01*
X251579186Y-75765457D01*
X251524793Y-75764403D01*
X251471751Y-75763736D01*
X251436560Y-75763427D01*
X251093643Y-75763427D01*
X251093643Y-76201110D01*
X250982532Y-76201110D01*
X250982532Y-75652316D01*
X252048369Y-75652316D01*
X252048369Y-76890588D01*
G37*
G36*
X251687851Y-98129372D02*
G01*
X251551808Y-97769847D01*
X251826581Y-97769847D01*
X251687851Y-98129372D01*
G37*
G36*
X252312116Y-98490588D02*
G01*
X251079462Y-98490588D01*
X251079462Y-97363427D01*
X251190573Y-97363427D01*
X251347475Y-97769847D01*
X251582827Y-98379477D01*
X251797760Y-98379477D01*
X252201005Y-97363427D01*
X251979965Y-97363427D01*
X251892038Y-97597900D01*
X251489282Y-97597900D01*
X251406239Y-97363427D01*
X251190573Y-97363427D01*
X251079462Y-97363427D01*
X251079462Y-97252316D01*
X252312116Y-97252316D01*
X252312116Y-98490588D01*
G37*
G36*
X174056115Y-53190588D02*
G01*
X170587417Y-53190588D01*
X170587417Y-53079477D01*
X170698528Y-53079477D01*
X170901738Y-53079477D01*
X171541654Y-53079477D01*
X171744864Y-53079477D01*
X171938793Y-53079477D01*
X172136630Y-53079477D01*
X172548667Y-52392910D01*
X172548667Y-53079477D01*
X172737467Y-53079477D01*
X172737467Y-52063427D01*
X173268207Y-52063427D01*
X173276450Y-52113191D01*
X173290189Y-52161612D01*
X173309423Y-52208690D01*
X173334152Y-52254424D01*
X173363326Y-52296778D01*
X173396499Y-52337565D01*
X173429902Y-52374715D01*
X173468541Y-52414740D01*
X173512415Y-52457638D01*
X173551284Y-52494027D01*
X173589650Y-52529829D01*
X173629172Y-52567771D01*
X173666294Y-52605112D01*
X173699804Y-52642166D01*
X173711508Y-52657425D01*
X173735768Y-52701732D01*
X173749414Y-52749267D01*
X173751319Y-52774662D01*
X173744681Y-52824998D01*
X173720837Y-52868671D01*
X173716637Y-52873092D01*
X173672342Y-52899963D01*
X173620894Y-52907530D01*
X173569581Y-52899587D01*
X173526915Y-52873606D01*
X173524662Y-52871382D01*
X173497832Y-52826974D01*
X173485874Y-52776302D01*
X173483385Y-52751214D01*
X173290921Y-52770265D01*
X173298059Y-52819654D01*
X173311363Y-52872891D01*
X173329835Y-52919551D01*
X173357920Y-52965675D01*
X173393041Y-53002846D01*
X173398633Y-53007425D01*
X173440545Y-53035500D01*
X173486782Y-53056679D01*
X173537344Y-53070963D01*
X173592229Y-53078351D01*
X173625534Y-53079477D01*
X173679164Y-53076660D01*
X173728311Y-53068211D01*
X173779984Y-53051234D01*
X173825557Y-53026591D01*
X173859763Y-52999365D01*
X173892977Y-52962541D01*
X173920947Y-52915849D01*
X173938261Y-52864241D01*
X173944671Y-52815052D01*
X173945004Y-52800307D01*
X173941569Y-52750459D01*
X173931265Y-52702396D01*
X173920579Y-52671347D01*
X173898277Y-52624693D01*
X173870833Y-52580418D01*
X173843399Y-52543119D01*
X173809121Y-52504285D01*
X173773044Y-52467946D01*
X173733515Y-52430455D01*
X173716881Y-52415136D01*
X173680119Y-52381363D01*
X173642265Y-52345771D01*
X173606278Y-52309914D01*
X173601110Y-52304250D01*
X173570795Y-52265684D01*
X173561542Y-52251005D01*
X173945004Y-52251005D01*
X173945004Y-52063427D01*
X173268207Y-52063427D01*
X172737467Y-52063427D01*
X172533524Y-52063427D01*
X172127593Y-52739735D01*
X172127593Y-52063427D01*
X171938793Y-52063427D01*
X171938793Y-53079477D01*
X171744864Y-53079477D01*
X171744864Y-52063427D01*
X171541654Y-52063427D01*
X171541654Y-53079477D01*
X170901738Y-53079477D01*
X170901738Y-52235373D01*
X171407321Y-52235373D01*
X171407321Y-52063427D01*
X170698528Y-52063427D01*
X170698528Y-53079477D01*
X170587417Y-53079477D01*
X170587417Y-51952316D01*
X174056115Y-51952316D01*
X174056115Y-53190588D01*
G37*
G36*
X251583943Y-96573270D02*
G01*
X251635310Y-96574139D01*
X251677732Y-96576476D01*
X251726925Y-96589910D01*
X251759798Y-96612868D01*
X251784882Y-96655259D01*
X251789840Y-96692003D01*
X251780713Y-96741695D01*
X251763950Y-96768451D01*
X251722066Y-96796119D01*
X251687502Y-96804110D01*
X251634207Y-96806565D01*
X251578325Y-96807316D01*
X251522466Y-96807526D01*
X251513601Y-96807530D01*
X251396853Y-96807530D01*
X251396853Y-96573057D01*
X251530210Y-96573057D01*
X251583943Y-96573270D01*
G37*
G36*
X251635097Y-96135755D02*
G01*
X251687353Y-96137526D01*
X251724627Y-96141480D01*
X251772547Y-96159317D01*
X251798388Y-96181047D01*
X251822248Y-96226039D01*
X251826965Y-96265555D01*
X251819215Y-96313810D01*
X251804983Y-96341270D01*
X251767717Y-96374940D01*
X251741480Y-96386699D01*
X251691660Y-96396029D01*
X251638326Y-96399702D01*
X251586185Y-96400983D01*
X251560984Y-96401110D01*
X251396853Y-96401110D01*
X251396853Y-96135373D01*
X251585164Y-96135373D01*
X251635097Y-96135755D01*
G37*
G36*
X252148369Y-97090588D02*
G01*
X251082532Y-97090588D01*
X251082532Y-96401110D01*
X251193643Y-96401110D01*
X251193643Y-96807530D01*
X251193643Y-96979477D01*
X251596155Y-96979477D01*
X251645498Y-96978986D01*
X251694762Y-96977223D01*
X251745653Y-96973216D01*
X251774208Y-96969219D01*
X251823329Y-96956202D01*
X251867681Y-96934677D01*
X251879477Y-96926965D01*
X251917090Y-96894854D01*
X251948720Y-96854516D01*
X251956658Y-96841480D01*
X251976741Y-96796041D01*
X251986586Y-96746250D01*
X251987676Y-96721801D01*
X251982318Y-96669594D01*
X251966244Y-96620684D01*
X251949575Y-96589909D01*
X251917186Y-96549071D01*
X251877172Y-96516682D01*
X251846260Y-96499784D01*
X251894674Y-96481677D01*
X251940536Y-96454533D01*
X251978050Y-96419996D01*
X251987676Y-96408193D01*
X252013823Y-96365522D01*
X252030285Y-96318414D01*
X252037064Y-96266871D01*
X252037258Y-96256029D01*
X252032758Y-96204887D01*
X252019260Y-96154776D01*
X252005262Y-96121940D01*
X251978002Y-96076889D01*
X251944217Y-96039188D01*
X251918067Y-96018137D01*
X251873027Y-95993201D01*
X251825344Y-95977706D01*
X251781780Y-95970265D01*
X251729883Y-95967033D01*
X251679186Y-95965457D01*
X251624793Y-95964403D01*
X251571751Y-95963736D01*
X251536560Y-95963427D01*
X251193643Y-95963427D01*
X251193643Y-96401110D01*
X251082532Y-96401110D01*
X251082532Y-95852316D01*
X252148369Y-95852316D01*
X252148369Y-97090588D01*
G37*
G36*
X252498039Y-65229372D02*
G01*
X252361996Y-64869847D01*
X252636769Y-64869847D01*
X252498039Y-65229372D01*
G37*
G36*
X255429178Y-65606219D02*
G01*
X250946140Y-65606219D01*
X250946140Y-64970475D01*
X251057251Y-64970475D01*
X251059277Y-65031016D01*
X251065357Y-65088078D01*
X251075489Y-65141658D01*
X251089674Y-65191759D01*
X251107912Y-65238379D01*
X251136409Y-65291759D01*
X251171239Y-65339701D01*
X251186944Y-65357355D01*
X251229541Y-65397040D01*
X251276121Y-65429998D01*
X251326685Y-65456231D01*
X251381231Y-65475737D01*
X251439761Y-65488517D01*
X251489453Y-65493898D01*
X251528395Y-65495108D01*
X251584475Y-65492282D01*
X251637155Y-65483803D01*
X251686436Y-65469670D01*
X251732319Y-65449885D01*
X251774803Y-65424447D01*
X251813887Y-65393356D01*
X251828570Y-65379337D01*
X251860749Y-65341296D01*
X251888653Y-65295806D01*
X251909564Y-65249891D01*
X251927202Y-65198273D01*
X251931640Y-65182477D01*
X251730384Y-65151214D01*
X251713537Y-65202001D01*
X251687513Y-65244881D01*
X251655890Y-65276999D01*
X251614047Y-65303281D01*
X251566432Y-65318653D01*
X251518137Y-65323161D01*
X251464831Y-65318185D01*
X251416776Y-65303256D01*
X251373973Y-65278373D01*
X251336420Y-65243538D01*
X251305966Y-65197544D01*
X251286457Y-65147156D01*
X251275036Y-65096432D01*
X251268511Y-65038753D01*
X251266811Y-64985373D01*
X251268487Y-64928880D01*
X251273514Y-64877706D01*
X251283969Y-64823318D01*
X251299251Y-64776590D01*
X251323178Y-64731754D01*
X251335443Y-64715729D01*
X251372339Y-64680574D01*
X251414395Y-64655462D01*
X251461610Y-64640396D01*
X251513985Y-64635373D01*
X251567049Y-64641607D01*
X251614746Y-64660309D01*
X251653448Y-64688130D01*
X251686711Y-64727018D01*
X251711143Y-64772132D01*
X251728480Y-64820279D01*
X251737223Y-64854215D01*
X251934327Y-64791689D01*
X251918663Y-64741728D01*
X251900066Y-64695952D01*
X251873877Y-64646548D01*
X251843463Y-64603171D01*
X251808824Y-64565821D01*
X251783385Y-64544271D01*
X251741908Y-64516796D01*
X251696431Y-64495006D01*
X251646951Y-64478901D01*
X251593471Y-64468479D01*
X251535989Y-64463742D01*
X251515939Y-64463427D01*
X252000761Y-64463427D01*
X252157663Y-64869847D01*
X252393015Y-65479477D01*
X252607949Y-65479477D01*
X253115485Y-65479477D01*
X253313322Y-65479477D01*
X253725360Y-64792910D01*
X253725360Y-65479477D01*
X253914159Y-65479477D01*
X254513043Y-65479477D01*
X254716253Y-65479477D01*
X254716253Y-65073057D01*
X255114857Y-65073057D01*
X255114857Y-65479477D01*
X255318067Y-65479477D01*
X255318067Y-64463427D01*
X255114857Y-64463427D01*
X255114857Y-64901110D01*
X254716253Y-64901110D01*
X254716253Y-64463427D01*
X254513043Y-64463427D01*
X254513043Y-65479477D01*
X253914159Y-65479477D01*
X253914159Y-64463427D01*
X253710217Y-64463427D01*
X253304285Y-65139735D01*
X253304285Y-64463427D01*
X253115485Y-64463427D01*
X253115485Y-65479477D01*
X252607949Y-65479477D01*
X253011194Y-64463427D01*
X252790154Y-64463427D01*
X252702226Y-64697900D01*
X252299470Y-64697900D01*
X252216427Y-64463427D01*
X252000761Y-64463427D01*
X251515939Y-64463427D01*
X251466922Y-64465548D01*
X251408786Y-64474168D01*
X251354132Y-64489419D01*
X251302960Y-64511301D01*
X251255271Y-64539813D01*
X251211064Y-64574957D01*
X251186211Y-64599226D01*
X251149059Y-64644096D01*
X251118205Y-64693831D01*
X251093647Y-64748433D01*
X251078534Y-64795618D01*
X251067452Y-64845917D01*
X251060399Y-64899329D01*
X251057377Y-64955856D01*
X251057251Y-64970475D01*
X250946140Y-64970475D01*
X250946140Y-64352316D01*
X255429178Y-64352316D01*
X255429178Y-65606219D01*
G37*
G36*
X172823690Y-54060530D02*
G01*
X172877805Y-54065092D01*
X172927827Y-54074012D01*
X172948849Y-54079993D01*
X172995453Y-54099404D01*
X173037807Y-54128613D01*
X173047034Y-54137634D01*
X173076710Y-54179583D01*
X173094105Y-54228116D01*
X173094906Y-54231668D01*
X173101585Y-54284515D01*
X173103903Y-54335028D01*
X173104666Y-54390796D01*
X173104676Y-54398486D01*
X173104676Y-54489833D01*
X172432519Y-54489833D01*
X172432519Y-54338158D01*
X172433674Y-54285154D01*
X172438482Y-54233890D01*
X172442289Y-54215059D01*
X172460349Y-54167395D01*
X172484299Y-54133238D01*
X172523683Y-54103563D01*
X172569800Y-54083947D01*
X172582240Y-54079993D01*
X172635087Y-54068173D01*
X172686998Y-54062152D01*
X172739693Y-54059557D01*
X172768353Y-54059233D01*
X172823690Y-54060530D01*
G37*
G36*
X173403365Y-56937126D02*
G01*
X172133830Y-56937126D01*
X172133830Y-56314815D01*
X172244941Y-56314815D01*
X172247285Y-56372649D01*
X172254318Y-56427632D01*
X172266038Y-56479765D01*
X172282448Y-56529047D01*
X172303545Y-56575478D01*
X172311619Y-56590321D01*
X172338633Y-56632324D01*
X172369665Y-56670223D01*
X172410948Y-56709250D01*
X172450687Y-56738256D01*
X172494445Y-56763158D01*
X172502129Y-56766909D01*
X172549421Y-56786996D01*
X172598242Y-56802927D01*
X172648591Y-56814702D01*
X172700469Y-56822321D01*
X172753875Y-56825785D01*
X172772017Y-56826015D01*
X172830123Y-56823697D01*
X172885739Y-56816742D01*
X172938864Y-56805150D01*
X172989500Y-56788921D01*
X173037645Y-56768056D01*
X173053141Y-56760070D01*
X173097285Y-56733194D01*
X173137393Y-56702024D01*
X173173465Y-56666561D01*
X173205502Y-56626805D01*
X173233503Y-56582755D01*
X173241940Y-56567118D01*
X173263953Y-56515690D01*
X173278054Y-56465856D01*
X173287341Y-56411512D01*
X173291468Y-56361340D01*
X173292254Y-56326050D01*
X173290227Y-56269442D01*
X173284145Y-56216852D01*
X173274008Y-56168281D01*
X173256491Y-56115301D01*
X173233135Y-56068109D01*
X173209212Y-56033203D01*
X173175838Y-55996281D01*
X173138000Y-55964647D01*
X173095696Y-55938303D01*
X173048927Y-55917249D01*
X172997694Y-55901484D01*
X172979623Y-55897404D01*
X172948360Y-56099393D01*
X172994857Y-56116347D01*
X173038455Y-56143481D01*
X173074145Y-56179505D01*
X173100427Y-56223268D01*
X173115799Y-56273958D01*
X173120307Y-56326050D01*
X173116205Y-56381776D01*
X173103898Y-56432265D01*
X173083387Y-56477519D01*
X173054671Y-56517537D01*
X173034578Y-56538053D01*
X172993193Y-56568698D01*
X172943837Y-56591815D01*
X172895188Y-56605640D01*
X172840683Y-56613934D01*
X172790788Y-56616623D01*
X172780321Y-56616699D01*
X172725753Y-56614755D01*
X172675621Y-56608924D01*
X172621319Y-56596794D01*
X172573406Y-56579065D01*
X172525581Y-56551306D01*
X172507746Y-56537076D01*
X172472343Y-56499773D01*
X172445636Y-56457749D01*
X172427624Y-56411003D01*
X172418308Y-56359535D01*
X172416888Y-56328004D01*
X172421120Y-56276129D01*
X172432541Y-56228101D01*
X172442533Y-56200021D01*
X172463313Y-56154386D01*
X172489313Y-56110684D01*
X172504815Y-56089623D01*
X172635730Y-56089623D01*
X172635730Y-56322631D01*
X172807676Y-56322631D01*
X172807676Y-55884215D01*
X172399302Y-55884215D01*
X172365978Y-55924731D01*
X172338302Y-55968336D01*
X172315588Y-56012351D01*
X172294277Y-56061835D01*
X172291347Y-56069351D01*
X172273265Y-56122504D01*
X172259624Y-56175960D01*
X172250424Y-56229721D01*
X172245666Y-56283785D01*
X172244941Y-56314815D01*
X172133830Y-56314815D01*
X172133830Y-55105813D01*
X172260573Y-55105813D01*
X172936881Y-55511745D01*
X172260573Y-55511745D01*
X172260573Y-55700544D01*
X173276623Y-55700544D01*
X173276623Y-55502708D01*
X172590056Y-55090670D01*
X173276623Y-55090670D01*
X173276623Y-54901870D01*
X172260573Y-54901870D01*
X172260573Y-55105813D01*
X172133830Y-55105813D01*
X172133830Y-54310558D01*
X172260573Y-54310558D01*
X172260573Y-54338158D01*
X172260573Y-54693287D01*
X173276623Y-54693287D01*
X173276623Y-54321549D01*
X173275699Y-54269382D01*
X173272383Y-54216774D01*
X173265769Y-54166531D01*
X173257328Y-54129819D01*
X173239244Y-54082075D01*
X173214669Y-54038311D01*
X173183602Y-53998526D01*
X173163538Y-53978144D01*
X173123361Y-53944956D01*
X173078393Y-53916560D01*
X173028633Y-53892956D01*
X172998919Y-53881912D01*
X172947460Y-53867487D01*
X172897750Y-53858245D01*
X172843669Y-53852159D01*
X172793835Y-53849455D01*
X172758828Y-53848939D01*
X172705659Y-53850424D01*
X172655785Y-53854877D01*
X172602823Y-53863601D01*
X172554165Y-53876202D01*
X172542673Y-53879958D01*
X172496182Y-53897969D01*
X172448001Y-53922358D01*
X172405102Y-53950809D01*
X172367485Y-53983320D01*
X172363154Y-53987669D01*
X172330101Y-54028465D01*
X172304761Y-54073116D01*
X172285789Y-54119460D01*
X172282066Y-54130551D01*
X172269829Y-54182236D01*
X172263595Y-54232466D01*
X172260908Y-54283115D01*
X172260573Y-54310558D01*
X172133830Y-54310558D01*
X172133830Y-53737828D01*
X173403365Y-53737828D01*
X173403365Y-56937126D01*
G37*
G36*
X249598306Y-94257846D02*
G01*
X249648037Y-94259400D01*
X249700836Y-94263608D01*
X249730000Y-94269393D01*
X249772536Y-94294381D01*
X249786909Y-94311159D01*
X249805642Y-94358836D01*
X249807669Y-94385164D01*
X249799091Y-94435113D01*
X249780559Y-94465520D01*
X249740443Y-94493853D01*
X249703866Y-94504110D01*
X249654468Y-94506675D01*
X249604947Y-94507366D01*
X249555611Y-94507530D01*
X249396853Y-94507530D01*
X249396853Y-94257425D01*
X249547307Y-94257425D01*
X249598306Y-94257846D01*
G37*
G36*
X252635391Y-94296565D02*
G01*
X252673859Y-94320196D01*
X252700521Y-94363369D01*
X252706832Y-94407634D01*
X252697595Y-94457501D01*
X252674104Y-94491654D01*
X252630913Y-94517131D01*
X252588130Y-94523161D01*
X252538121Y-94515162D01*
X252499470Y-94491166D01*
X252472808Y-94448876D01*
X252466497Y-94406902D01*
X252474618Y-94357320D01*
X252498981Y-94319951D01*
X252542602Y-94294672D01*
X252585932Y-94288688D01*
X252635391Y-94296565D01*
G37*
G36*
X252639768Y-93812432D02*
G01*
X252682716Y-93839816D01*
X252690224Y-93847586D01*
X252715684Y-93889436D01*
X252727665Y-93939302D01*
X252729547Y-93973371D01*
X252723948Y-94023242D01*
X252703265Y-94071354D01*
X252689735Y-94088653D01*
X252650833Y-94118540D01*
X252600125Y-94131989D01*
X252588863Y-94132373D01*
X252537279Y-94124190D01*
X252495071Y-94097075D01*
X252483350Y-94082791D01*
X252459641Y-94037985D01*
X252449209Y-93989907D01*
X252448667Y-93975569D01*
X252453487Y-93924173D01*
X252469739Y-93877651D01*
X252489456Y-93849295D01*
X252529193Y-93818407D01*
X252576597Y-93804816D01*
X252591549Y-93804110D01*
X252639768Y-93812432D01*
G37*
G36*
X251860775Y-94369777D02*
G01*
X251629477Y-94038584D01*
X251860775Y-94038584D01*
X251860775Y-94369777D01*
G37*
G36*
X255436226Y-94806219D02*
G01*
X249082532Y-94806219D01*
X249082532Y-94507530D01*
X249193643Y-94507530D01*
X249193643Y-94679477D01*
X249621556Y-94679477D01*
X249678990Y-94678515D01*
X249730206Y-94675630D01*
X249782102Y-94669833D01*
X249831050Y-94660002D01*
X249856030Y-94652122D01*
X249902941Y-94628264D01*
X249942927Y-94594306D01*
X249973266Y-94554669D01*
X249996450Y-94508878D01*
X250011047Y-94459128D01*
X250017058Y-94405418D01*
X250017230Y-94394201D01*
X250013062Y-94339430D01*
X250000560Y-94289665D01*
X249979723Y-94244908D01*
X249950552Y-94205157D01*
X249913198Y-94171345D01*
X249867570Y-94144402D01*
X249820859Y-94126462D01*
X249767813Y-94113781D01*
X249751494Y-94111124D01*
X249794089Y-94083530D01*
X249834304Y-94051387D01*
X249860182Y-94025883D01*
X249888259Y-93991689D01*
X250151563Y-93991689D01*
X250349400Y-94007320D01*
X250362327Y-93956973D01*
X250383489Y-93910547D01*
X250415031Y-93871050D01*
X250421696Y-93865171D01*
X250463812Y-93839307D01*
X250514932Y-93824178D01*
X250569219Y-93819742D01*
X250620623Y-93822968D01*
X250668765Y-93834121D01*
X250714069Y-93858021D01*
X250717230Y-93860530D01*
X250751290Y-93899052D01*
X250766617Y-93946136D01*
X250767055Y-93956274D01*
X250754235Y-94004818D01*
X250746051Y-94016113D01*
X250705123Y-94045756D01*
X250673022Y-94059100D01*
X250624169Y-94074046D01*
X250574347Y-94087704D01*
X250525632Y-94100516D01*
X250510112Y-94104529D01*
X250461429Y-94118022D01*
X250409291Y-94135379D01*
X250364005Y-94154006D01*
X250319831Y-94177344D01*
X250280768Y-94206134D01*
X250244604Y-94244657D01*
X250217322Y-94286710D01*
X250198923Y-94332293D01*
X250189406Y-94381405D01*
X250187956Y-94411054D01*
X250193093Y-94463268D01*
X250208504Y-94513116D01*
X250231431Y-94556378D01*
X250262500Y-94595643D01*
X250301059Y-94628564D01*
X250347107Y-94655139D01*
X250357216Y-94659693D01*
X250406181Y-94676813D01*
X250454183Y-94687327D01*
X250506397Y-94693414D01*
X250555541Y-94695108D01*
X250612480Y-94693027D01*
X250664840Y-94686784D01*
X250712620Y-94676379D01*
X250763911Y-94658398D01*
X250808607Y-94634424D01*
X250840817Y-94609868D01*
X250878452Y-94569852D01*
X250907368Y-94524389D01*
X250927566Y-94473481D01*
X250937938Y-94425510D01*
X250941689Y-94382477D01*
X250738235Y-94382477D01*
X250724301Y-94432772D01*
X250697367Y-94476430D01*
X250682303Y-94490189D01*
X250636462Y-94512729D01*
X250584072Y-94522002D01*
X250553343Y-94523161D01*
X250501804Y-94519679D01*
X250453706Y-94507804D01*
X250414613Y-94487502D01*
X250384923Y-94446423D01*
X250382373Y-94425953D01*
X250399409Y-94379195D01*
X250412659Y-94366113D01*
X250456909Y-94341647D01*
X250503620Y-94324611D01*
X250555788Y-94309229D01*
X250599505Y-94297969D01*
X250652470Y-94284362D01*
X250699992Y-94270652D01*
X250748553Y-94254527D01*
X250794978Y-94235926D01*
X250819079Y-94224208D01*
X250860472Y-94198004D01*
X250899006Y-94162954D01*
X250930210Y-94121382D01*
X250953154Y-94072940D01*
X250965748Y-94022642D01*
X250970352Y-93972274D01*
X250970510Y-93960426D01*
X250965811Y-93907155D01*
X250954639Y-93866637D01*
X251448737Y-93866637D01*
X251448737Y-94037851D01*
X251449249Y-94038584D01*
X251885688Y-94663845D01*
X252047621Y-94663845D01*
X252047621Y-94038584D01*
X252172673Y-94038584D01*
X252172673Y-93957006D01*
X252258158Y-93957006D01*
X252259616Y-93975569D01*
X252262117Y-94007420D01*
X252273996Y-94055161D01*
X252293793Y-94100232D01*
X252298702Y-94108925D01*
X252328622Y-94149049D01*
X252367701Y-94183019D01*
X252410703Y-94208330D01*
X252426686Y-94215660D01*
X252379984Y-94239924D01*
X252340096Y-94272713D01*
X252317753Y-94301633D01*
X252295772Y-94348017D01*
X252284997Y-94397868D01*
X252284551Y-94406902D01*
X252283803Y-94422045D01*
X252288719Y-94475427D01*
X252303465Y-94523955D01*
X252328042Y-94567629D01*
X252362450Y-94606448D01*
X252405925Y-94638398D01*
X252450778Y-94658866D01*
X252501989Y-94672345D01*
X252550944Y-94678336D01*
X252586176Y-94679477D01*
X252637690Y-94676909D01*
X252692104Y-94667424D01*
X252740393Y-94650950D01*
X252788081Y-94623564D01*
X252808926Y-94606448D01*
X252843654Y-94567629D01*
X252868460Y-94523955D01*
X252883343Y-94475427D01*
X252888305Y-94422045D01*
X252883153Y-94372002D01*
X252865943Y-94322672D01*
X252851668Y-94298214D01*
X252817222Y-94258549D01*
X252776767Y-94229377D01*
X252749330Y-94215660D01*
X252793285Y-94194071D01*
X252834692Y-94164237D01*
X252868276Y-94128249D01*
X252876825Y-94116253D01*
X252901716Y-94069023D01*
X252915379Y-94021930D01*
X252920502Y-93970878D01*
X252920545Y-93965555D01*
X252919840Y-93954075D01*
X253042422Y-93954075D01*
X253234641Y-93976057D01*
X253245403Y-93926209D01*
X253267294Y-93881664D01*
X253283489Y-93861752D01*
X253324183Y-93831598D01*
X253373505Y-93819783D01*
X253376790Y-93819742D01*
X253426191Y-93828157D01*
X253468393Y-93853402D01*
X253479128Y-93863706D01*
X253506328Y-93907001D01*
X253518512Y-93955159D01*
X253521138Y-93996818D01*
X253516231Y-94049282D01*
X253497782Y-94098484D01*
X253479616Y-94121870D01*
X253438470Y-94150421D01*
X253387693Y-94162983D01*
X253371417Y-94163636D01*
X253321185Y-94156003D01*
X253274292Y-94133105D01*
X253234944Y-94099446D01*
X253222429Y-94085478D01*
X253065869Y-94109658D01*
X253164787Y-94663845D01*
X253675011Y-94663845D01*
X253675011Y-94476267D01*
X253311089Y-94476267D01*
X253280803Y-94299923D01*
X253325479Y-94320226D01*
X253375007Y-94332762D01*
X253412694Y-94335583D01*
X253467019Y-94331130D01*
X253517580Y-94317771D01*
X253564378Y-94295507D01*
X253607413Y-94264336D01*
X253630314Y-94242526D01*
X253665146Y-94199256D01*
X253691423Y-94150657D01*
X253707704Y-94101110D01*
X254226267Y-94101110D01*
X254605576Y-94101110D01*
X254605576Y-93929163D01*
X254226267Y-93929163D01*
X254226267Y-94101110D01*
X253707704Y-94101110D01*
X253709144Y-94096728D01*
X253717525Y-94046261D01*
X253719707Y-94001214D01*
X253716259Y-93948407D01*
X253705916Y-93898125D01*
X253688677Y-93850367D01*
X253664543Y-93805133D01*
X253647656Y-93780419D01*
X253615106Y-93742212D01*
X253571120Y-93704911D01*
X253521758Y-93676936D01*
X253482110Y-93663427D01*
X254648318Y-93663427D01*
X254656562Y-93713191D01*
X254670300Y-93761612D01*
X254689534Y-93808690D01*
X254714264Y-93854424D01*
X254743437Y-93896778D01*
X254776611Y-93937565D01*
X254810014Y-93974715D01*
X254848653Y-94014740D01*
X254892527Y-94057638D01*
X254931396Y-94094027D01*
X254969762Y-94129829D01*
X255009283Y-94167771D01*
X255046406Y-94205112D01*
X255079915Y-94242166D01*
X255091619Y-94257425D01*
X255115879Y-94301732D01*
X255129526Y-94349267D01*
X255131431Y-94374662D01*
X255124792Y-94424998D01*
X255100948Y-94468671D01*
X255096748Y-94473092D01*
X255052454Y-94499963D01*
X255001005Y-94507530D01*
X254949693Y-94499587D01*
X254907027Y-94473606D01*
X254904773Y-94471382D01*
X254877944Y-94426974D01*
X254865985Y-94376302D01*
X254863496Y-94351214D01*
X254671033Y-94370265D01*
X254678171Y-94419654D01*
X254691474Y-94472891D01*
X254709947Y-94519551D01*
X254738032Y-94565675D01*
X254773153Y-94602846D01*
X254778744Y-94607425D01*
X254820657Y-94635500D01*
X254866894Y-94656679D01*
X254917455Y-94670963D01*
X254972341Y-94678351D01*
X255005646Y-94679477D01*
X255059275Y-94676660D01*
X255108422Y-94668211D01*
X255160096Y-94651234D01*
X255205668Y-94626591D01*
X255239875Y-94599365D01*
X255273089Y-94562541D01*
X255301058Y-94515849D01*
X255318373Y-94464241D01*
X255324782Y-94415052D01*
X255325115Y-94400307D01*
X255321681Y-94350459D01*
X255311377Y-94302396D01*
X255300691Y-94271347D01*
X255278389Y-94224693D01*
X255250945Y-94180418D01*
X255223510Y-94143119D01*
X255189232Y-94104285D01*
X255153156Y-94067946D01*
X255113626Y-94030455D01*
X255096993Y-94015136D01*
X255060231Y-93981363D01*
X255022376Y-93945771D01*
X254986389Y-93909914D01*
X254981221Y-93904250D01*
X254950906Y-93865684D01*
X254941654Y-93851005D01*
X255325115Y-93851005D01*
X255325115Y-93663427D01*
X254648318Y-93663427D01*
X253482110Y-93663427D01*
X253467021Y-93658286D01*
X253417300Y-93649867D01*
X253374836Y-93647795D01*
X253324350Y-93650714D01*
X253270028Y-93661500D01*
X253220639Y-93680233D01*
X253176182Y-93706914D01*
X253147446Y-93730838D01*
X253112367Y-93769904D01*
X253084067Y-93814439D01*
X253062546Y-93864445D01*
X253049494Y-93911660D01*
X253042422Y-93954075D01*
X252919840Y-93954075D01*
X252917410Y-93914470D01*
X252905832Y-93859559D01*
X252885721Y-93809697D01*
X252857078Y-93764885D01*
X252831396Y-93735967D01*
X252789695Y-93701611D01*
X252742385Y-93675693D01*
X252689464Y-93658214D01*
X252639639Y-93649948D01*
X252594969Y-93647795D01*
X252545026Y-93650362D01*
X252490862Y-93659848D01*
X252441115Y-93676322D01*
X252395786Y-93699785D01*
X252366113Y-93720824D01*
X252329425Y-93755396D01*
X252296216Y-93801396D01*
X252273339Y-93853497D01*
X252261953Y-93903011D01*
X252258158Y-93957006D01*
X252172673Y-93957006D01*
X252172673Y-93866637D01*
X252047621Y-93866637D01*
X252047621Y-93663427D01*
X251860775Y-93663427D01*
X251860775Y-93866637D01*
X251448737Y-93866637D01*
X250954639Y-93866637D01*
X250951714Y-93856031D01*
X250928220Y-93807054D01*
X250922394Y-93797516D01*
X250892180Y-93757880D01*
X250855667Y-93724426D01*
X250812856Y-93697155D01*
X250786351Y-93684676D01*
X250739685Y-93668540D01*
X250687615Y-93657015D01*
X250637622Y-93650712D01*
X250583491Y-93647939D01*
X250567265Y-93647795D01*
X250509742Y-93649936D01*
X250456549Y-93656358D01*
X250407685Y-93667061D01*
X250354763Y-93685557D01*
X250308074Y-93710218D01*
X250273929Y-93735478D01*
X250238446Y-93771276D01*
X250208751Y-93812724D01*
X250184842Y-93859822D01*
X250166722Y-93912569D01*
X250156042Y-93960842D01*
X250151563Y-93991689D01*
X249888259Y-93991689D01*
X249893256Y-93985604D01*
X249921733Y-93945579D01*
X249949706Y-93903143D01*
X249975953Y-93861263D01*
X250099051Y-93663427D01*
X249855785Y-93663427D01*
X249708751Y-93886909D01*
X249681094Y-93927309D01*
X249649640Y-93971799D01*
X249619038Y-94012343D01*
X249601529Y-94032722D01*
X249562229Y-94064268D01*
X249540468Y-94074243D01*
X249492219Y-94083328D01*
X249442474Y-94085467D01*
X249438130Y-94085478D01*
X249396853Y-94085478D01*
X249396853Y-93663427D01*
X249193643Y-93663427D01*
X249193643Y-94507530D01*
X249082532Y-94507530D01*
X249082532Y-93536684D01*
X255436226Y-93536684D01*
X255436226Y-94806219D01*
G37*
G36*
X252498039Y-66729372D02*
G01*
X252361996Y-66369847D01*
X252636769Y-66369847D01*
X252498039Y-66729372D01*
G37*
G36*
X255337831Y-67106219D02*
G01*
X250946140Y-67106219D01*
X250946140Y-66470475D01*
X251057251Y-66470475D01*
X251059277Y-66531016D01*
X251065357Y-66588078D01*
X251075489Y-66641658D01*
X251089674Y-66691759D01*
X251107912Y-66738379D01*
X251136409Y-66791759D01*
X251171239Y-66839701D01*
X251186944Y-66857355D01*
X251229541Y-66897040D01*
X251276121Y-66929998D01*
X251326685Y-66956231D01*
X251381231Y-66975737D01*
X251439761Y-66988517D01*
X251489453Y-66993898D01*
X251528395Y-66995108D01*
X251584475Y-66992282D01*
X251637155Y-66983803D01*
X251686436Y-66969670D01*
X251732319Y-66949885D01*
X251774803Y-66924447D01*
X251813887Y-66893356D01*
X251828570Y-66879337D01*
X251860749Y-66841296D01*
X251888653Y-66795806D01*
X251909564Y-66749891D01*
X251927202Y-66698273D01*
X251931640Y-66682477D01*
X251730384Y-66651214D01*
X251713537Y-66702001D01*
X251687513Y-66744881D01*
X251655890Y-66776999D01*
X251614047Y-66803281D01*
X251566432Y-66818653D01*
X251518137Y-66823161D01*
X251464831Y-66818185D01*
X251416776Y-66803256D01*
X251373973Y-66778373D01*
X251336420Y-66743538D01*
X251305966Y-66697544D01*
X251286457Y-66647156D01*
X251275036Y-66596432D01*
X251268511Y-66538753D01*
X251266811Y-66485373D01*
X251268487Y-66428880D01*
X251273514Y-66377706D01*
X251283969Y-66323318D01*
X251299251Y-66276590D01*
X251323178Y-66231754D01*
X251335443Y-66215729D01*
X251372339Y-66180574D01*
X251414395Y-66155462D01*
X251461610Y-66140396D01*
X251513985Y-66135373D01*
X251567049Y-66141607D01*
X251614746Y-66160309D01*
X251653448Y-66188130D01*
X251686711Y-66227018D01*
X251711143Y-66272132D01*
X251728480Y-66320279D01*
X251737223Y-66354215D01*
X251934327Y-66291689D01*
X251918663Y-66241728D01*
X251900066Y-66195952D01*
X251873877Y-66146548D01*
X251843463Y-66103171D01*
X251808824Y-66065821D01*
X251783385Y-66044271D01*
X251741908Y-66016796D01*
X251696431Y-65995006D01*
X251646951Y-65978901D01*
X251593471Y-65968479D01*
X251535989Y-65963742D01*
X251515939Y-65963427D01*
X252000761Y-65963427D01*
X252157663Y-66369847D01*
X252393015Y-66979477D01*
X252607949Y-66979477D01*
X253115485Y-66979477D01*
X253313322Y-66979477D01*
X253725360Y-66292910D01*
X253725360Y-66979477D01*
X253914159Y-66979477D01*
X254517928Y-66979477D01*
X254721138Y-66979477D01*
X254721138Y-66135373D01*
X255226720Y-66135373D01*
X255226720Y-65963427D01*
X254517928Y-65963427D01*
X254517928Y-66979477D01*
X253914159Y-66979477D01*
X253914159Y-65963427D01*
X253710217Y-65963427D01*
X253304285Y-66639735D01*
X253304285Y-65963427D01*
X253115485Y-65963427D01*
X253115485Y-66979477D01*
X252607949Y-66979477D01*
X253011194Y-65963427D01*
X252790154Y-65963427D01*
X252702226Y-66197900D01*
X252299470Y-66197900D01*
X252216427Y-65963427D01*
X252000761Y-65963427D01*
X251515939Y-65963427D01*
X251466922Y-65965548D01*
X251408786Y-65974168D01*
X251354132Y-65989419D01*
X251302960Y-66011301D01*
X251255271Y-66039813D01*
X251211064Y-66074957D01*
X251186211Y-66099226D01*
X251149059Y-66144096D01*
X251118205Y-66193831D01*
X251093647Y-66248433D01*
X251078534Y-66295618D01*
X251067452Y-66345917D01*
X251060399Y-66399329D01*
X251057377Y-66455856D01*
X251057251Y-66470475D01*
X250946140Y-66470475D01*
X250946140Y-65852316D01*
X255337831Y-65852316D01*
X255337831Y-67106219D01*
G37*
G36*
X188187734Y-57196582D02*
G01*
X186949462Y-57196582D01*
X186949462Y-57085471D01*
X187060573Y-57085471D01*
X188076623Y-57085471D01*
X188076623Y-56882261D01*
X187232519Y-56882261D01*
X187232519Y-56376678D01*
X187060573Y-56376678D01*
X187060573Y-57085471D01*
X186949462Y-57085471D01*
X186949462Y-56242345D01*
X187060573Y-56242345D01*
X188076623Y-56242345D01*
X188076623Y-56039135D01*
X187060573Y-56039135D01*
X187060573Y-56242345D01*
X186949462Y-56242345D01*
X186949462Y-55250475D01*
X187060573Y-55250475D01*
X187736881Y-55656406D01*
X187060573Y-55656406D01*
X187060573Y-55845206D01*
X188076623Y-55845206D01*
X188076623Y-55647369D01*
X187390056Y-55235332D01*
X188076623Y-55235332D01*
X188076623Y-55046532D01*
X187060573Y-55046532D01*
X187060573Y-55250475D01*
X186949462Y-55250475D01*
X186949462Y-54935421D01*
X188187734Y-54935421D01*
X188187734Y-57196582D01*
G37*
G36*
X252498039Y-63729372D02*
G01*
X252361996Y-63369847D01*
X252636769Y-63369847D01*
X252498039Y-63729372D01*
G37*
G36*
X255074782Y-64106219D02*
G01*
X250946140Y-64106219D01*
X250946140Y-63470475D01*
X251057251Y-63470475D01*
X251059277Y-63531016D01*
X251065357Y-63588078D01*
X251075489Y-63641658D01*
X251089674Y-63691759D01*
X251107912Y-63738379D01*
X251136409Y-63791759D01*
X251171239Y-63839701D01*
X251186944Y-63857355D01*
X251229541Y-63897040D01*
X251276121Y-63929998D01*
X251326685Y-63956231D01*
X251381231Y-63975737D01*
X251439761Y-63988517D01*
X251489453Y-63993898D01*
X251528395Y-63995108D01*
X251584475Y-63992282D01*
X251637155Y-63983803D01*
X251686436Y-63969670D01*
X251732319Y-63949885D01*
X251774803Y-63924447D01*
X251813887Y-63893356D01*
X251828570Y-63879337D01*
X251860749Y-63841296D01*
X251888653Y-63795806D01*
X251909564Y-63749891D01*
X251927202Y-63698273D01*
X251931640Y-63682477D01*
X251730384Y-63651214D01*
X251713537Y-63702001D01*
X251687513Y-63744881D01*
X251655890Y-63776999D01*
X251614047Y-63803281D01*
X251566432Y-63818653D01*
X251518137Y-63823161D01*
X251464831Y-63818185D01*
X251416776Y-63803256D01*
X251373973Y-63778373D01*
X251336420Y-63743538D01*
X251305966Y-63697544D01*
X251286457Y-63647156D01*
X251275036Y-63596432D01*
X251268511Y-63538753D01*
X251266811Y-63485373D01*
X251268487Y-63428880D01*
X251273514Y-63377706D01*
X251283969Y-63323318D01*
X251299251Y-63276590D01*
X251323178Y-63231754D01*
X251335443Y-63215729D01*
X251372339Y-63180574D01*
X251414395Y-63155462D01*
X251461610Y-63140396D01*
X251513985Y-63135373D01*
X251567049Y-63141607D01*
X251614746Y-63160309D01*
X251653448Y-63188130D01*
X251686711Y-63227018D01*
X251711143Y-63272132D01*
X251728480Y-63320279D01*
X251737223Y-63354215D01*
X251934327Y-63291689D01*
X251918663Y-63241728D01*
X251900066Y-63195952D01*
X251873877Y-63146548D01*
X251843463Y-63103171D01*
X251808824Y-63065821D01*
X251783385Y-63044271D01*
X251741908Y-63016796D01*
X251696431Y-62995006D01*
X251646951Y-62978901D01*
X251593471Y-62968479D01*
X251535989Y-62963742D01*
X251515939Y-62963427D01*
X252000761Y-62963427D01*
X252157663Y-63369847D01*
X252393015Y-63979477D01*
X252607949Y-63979477D01*
X253115485Y-63979477D01*
X253313322Y-63979477D01*
X253725360Y-63292910D01*
X253725360Y-63979477D01*
X253914159Y-63979477D01*
X253914159Y-63541794D01*
X254521347Y-63541794D01*
X254521347Y-63729372D01*
X254569804Y-63748730D01*
X254615619Y-63773413D01*
X254658094Y-63801127D01*
X254685478Y-63821207D01*
X254726328Y-63856562D01*
X254760217Y-63894724D01*
X254787144Y-63935696D01*
X254807111Y-63979477D01*
X254963671Y-63979477D01*
X254963671Y-62963427D01*
X254770719Y-62963427D01*
X254770719Y-63698597D01*
X254729729Y-63660788D01*
X254686077Y-63626859D01*
X254639764Y-63596811D01*
X254590788Y-63570645D01*
X254539151Y-63548359D01*
X254521347Y-63541794D01*
X253914159Y-63541794D01*
X253914159Y-62963427D01*
X253710217Y-62963427D01*
X253304285Y-63639735D01*
X253304285Y-62963427D01*
X253115485Y-62963427D01*
X253115485Y-63979477D01*
X252607949Y-63979477D01*
X253011194Y-62963427D01*
X252790154Y-62963427D01*
X252702226Y-63197900D01*
X252299470Y-63197900D01*
X252216427Y-62963427D01*
X252000761Y-62963427D01*
X251515939Y-62963427D01*
X251466922Y-62965548D01*
X251408786Y-62974168D01*
X251354132Y-62989419D01*
X251302960Y-63011301D01*
X251255271Y-63039813D01*
X251211064Y-63074957D01*
X251186211Y-63099226D01*
X251149059Y-63144096D01*
X251118205Y-63193831D01*
X251093647Y-63248433D01*
X251078534Y-63295618D01*
X251067452Y-63345917D01*
X251060399Y-63399329D01*
X251057377Y-63455856D01*
X251057251Y-63470475D01*
X250946140Y-63470475D01*
X250946140Y-62852316D01*
X255074782Y-62852316D01*
X255074782Y-64106219D01*
G37*
G36*
X249498306Y-74057846D02*
G01*
X249548037Y-74059400D01*
X249600836Y-74063608D01*
X249630000Y-74069393D01*
X249672536Y-74094381D01*
X249686909Y-74111159D01*
X249705642Y-74158836D01*
X249707669Y-74185164D01*
X249699091Y-74235113D01*
X249680559Y-74265520D01*
X249640443Y-74293853D01*
X249603866Y-74304110D01*
X249554468Y-74306675D01*
X249504947Y-74307366D01*
X249455611Y-74307530D01*
X249296853Y-74307530D01*
X249296853Y-74057425D01*
X249447307Y-74057425D01*
X249498306Y-74057846D01*
G37*
G36*
X252535391Y-74096565D02*
G01*
X252573859Y-74120196D01*
X252600521Y-74163369D01*
X252606832Y-74207634D01*
X252597595Y-74257501D01*
X252574104Y-74291654D01*
X252530913Y-74317131D01*
X252488130Y-74323161D01*
X252438121Y-74315162D01*
X252399470Y-74291166D01*
X252372808Y-74248876D01*
X252366497Y-74206902D01*
X252374618Y-74157320D01*
X252398981Y-74119951D01*
X252442602Y-74094672D01*
X252485932Y-74088688D01*
X252535391Y-74096565D01*
G37*
G36*
X252539768Y-73612432D02*
G01*
X252582716Y-73639816D01*
X252590224Y-73647586D01*
X252615684Y-73689436D01*
X252627665Y-73739302D01*
X252629547Y-73773371D01*
X252623948Y-73823242D01*
X252603265Y-73871354D01*
X252589735Y-73888653D01*
X252550833Y-73918540D01*
X252500125Y-73931989D01*
X252488863Y-73932373D01*
X252437279Y-73924190D01*
X252395071Y-73897075D01*
X252383350Y-73882791D01*
X252359641Y-73837985D01*
X252349209Y-73789907D01*
X252348667Y-73775569D01*
X252353487Y-73724173D01*
X252369739Y-73677651D01*
X252389456Y-73649295D01*
X252429193Y-73618407D01*
X252476597Y-73604816D01*
X252491549Y-73604110D01*
X252539768Y-73612432D01*
G37*
G36*
X251760775Y-74169777D02*
G01*
X251529477Y-73838584D01*
X251760775Y-73838584D01*
X251760775Y-74169777D01*
G37*
G36*
X255178201Y-74606219D02*
G01*
X248982532Y-74606219D01*
X248982532Y-74307530D01*
X249093643Y-74307530D01*
X249093643Y-74479477D01*
X249521556Y-74479477D01*
X249578990Y-74478515D01*
X249630206Y-74475630D01*
X249682102Y-74469833D01*
X249731050Y-74460002D01*
X249756030Y-74452122D01*
X249802941Y-74428264D01*
X249842927Y-74394306D01*
X249873266Y-74354669D01*
X249896450Y-74308878D01*
X249911047Y-74259128D01*
X249917058Y-74205418D01*
X249917230Y-74194201D01*
X249913062Y-74139430D01*
X249900560Y-74089665D01*
X249879723Y-74044908D01*
X249850552Y-74005157D01*
X249813198Y-73971345D01*
X249767570Y-73944402D01*
X249720859Y-73926462D01*
X249667813Y-73913781D01*
X249651494Y-73911124D01*
X249694089Y-73883530D01*
X249734304Y-73851387D01*
X249760182Y-73825883D01*
X249788259Y-73791689D01*
X250051563Y-73791689D01*
X250249400Y-73807320D01*
X250262327Y-73756973D01*
X250283489Y-73710547D01*
X250315031Y-73671050D01*
X250321696Y-73665171D01*
X250363812Y-73639307D01*
X250414932Y-73624178D01*
X250469219Y-73619742D01*
X250520623Y-73622968D01*
X250568765Y-73634121D01*
X250614069Y-73658021D01*
X250617230Y-73660530D01*
X250651290Y-73699052D01*
X250666617Y-73746136D01*
X250667055Y-73756274D01*
X250654235Y-73804818D01*
X250646051Y-73816113D01*
X250605123Y-73845756D01*
X250573022Y-73859100D01*
X250524169Y-73874046D01*
X250474347Y-73887704D01*
X250425632Y-73900516D01*
X250410112Y-73904529D01*
X250361429Y-73918022D01*
X250309291Y-73935379D01*
X250264005Y-73954006D01*
X250219831Y-73977344D01*
X250180768Y-74006134D01*
X250144604Y-74044657D01*
X250117322Y-74086710D01*
X250098923Y-74132293D01*
X250089406Y-74181405D01*
X250087956Y-74211054D01*
X250093093Y-74263268D01*
X250108504Y-74313116D01*
X250131431Y-74356378D01*
X250162500Y-74395643D01*
X250201059Y-74428564D01*
X250247107Y-74455139D01*
X250257216Y-74459693D01*
X250306181Y-74476813D01*
X250354183Y-74487327D01*
X250406397Y-74493414D01*
X250455541Y-74495108D01*
X250512480Y-74493027D01*
X250564840Y-74486784D01*
X250612620Y-74476379D01*
X250663911Y-74458398D01*
X250708607Y-74434424D01*
X250740817Y-74409868D01*
X250778452Y-74369852D01*
X250807368Y-74324389D01*
X250827566Y-74273481D01*
X250837938Y-74225510D01*
X250841689Y-74182477D01*
X250638235Y-74182477D01*
X250624301Y-74232772D01*
X250597367Y-74276430D01*
X250582303Y-74290189D01*
X250536462Y-74312729D01*
X250484072Y-74322002D01*
X250453343Y-74323161D01*
X250401804Y-74319679D01*
X250353706Y-74307804D01*
X250314613Y-74287502D01*
X250284923Y-74246423D01*
X250282373Y-74225953D01*
X250299409Y-74179195D01*
X250312659Y-74166113D01*
X250356909Y-74141647D01*
X250403620Y-74124611D01*
X250455788Y-74109229D01*
X250499505Y-74097969D01*
X250552470Y-74084362D01*
X250599992Y-74070652D01*
X250648553Y-74054527D01*
X250694978Y-74035926D01*
X250719079Y-74024208D01*
X250760472Y-73998004D01*
X250799006Y-73962954D01*
X250830210Y-73921382D01*
X250853154Y-73872940D01*
X250865748Y-73822642D01*
X250870352Y-73772274D01*
X250870510Y-73760426D01*
X250865811Y-73707155D01*
X250854639Y-73666637D01*
X251348737Y-73666637D01*
X251348737Y-73837851D01*
X251349249Y-73838584D01*
X251785688Y-74463845D01*
X251947621Y-74463845D01*
X251947621Y-73838584D01*
X252072673Y-73838584D01*
X252072673Y-73757006D01*
X252158158Y-73757006D01*
X252159616Y-73775569D01*
X252162117Y-73807420D01*
X252173996Y-73855161D01*
X252193793Y-73900232D01*
X252198702Y-73908925D01*
X252228622Y-73949049D01*
X252267701Y-73983019D01*
X252310703Y-74008330D01*
X252326686Y-74015660D01*
X252279984Y-74039924D01*
X252240096Y-74072713D01*
X252217753Y-74101633D01*
X252195772Y-74148017D01*
X252184997Y-74197868D01*
X252184551Y-74206902D01*
X252183803Y-74222045D01*
X252188719Y-74275427D01*
X252203465Y-74323955D01*
X252228042Y-74367629D01*
X252262450Y-74406448D01*
X252305925Y-74438398D01*
X252350778Y-74458866D01*
X252401989Y-74472345D01*
X252450944Y-74478336D01*
X252486176Y-74479477D01*
X252537690Y-74476909D01*
X252592104Y-74467424D01*
X252640393Y-74450950D01*
X252688081Y-74423564D01*
X252708926Y-74406448D01*
X252743654Y-74367629D01*
X252768460Y-74323955D01*
X252783343Y-74275427D01*
X252788305Y-74222045D01*
X252783153Y-74172002D01*
X252765943Y-74122672D01*
X252751668Y-74098214D01*
X252717222Y-74058549D01*
X252676767Y-74029377D01*
X252649330Y-74015660D01*
X252693285Y-73994071D01*
X252734692Y-73964237D01*
X252768276Y-73928249D01*
X252776825Y-73916253D01*
X252801716Y-73869023D01*
X252815379Y-73821930D01*
X252820502Y-73770878D01*
X252820545Y-73765555D01*
X252819840Y-73754075D01*
X252942422Y-73754075D01*
X253134641Y-73776057D01*
X253145403Y-73726209D01*
X253167294Y-73681664D01*
X253183489Y-73661752D01*
X253224183Y-73631598D01*
X253273505Y-73619783D01*
X253276790Y-73619742D01*
X253326191Y-73628157D01*
X253368393Y-73653402D01*
X253379128Y-73663706D01*
X253406328Y-73707001D01*
X253418512Y-73755159D01*
X253421138Y-73796818D01*
X253416231Y-73849282D01*
X253397782Y-73898484D01*
X253379616Y-73921870D01*
X253338470Y-73950421D01*
X253287693Y-73962983D01*
X253271417Y-73963636D01*
X253221185Y-73956003D01*
X253174292Y-73933105D01*
X253134944Y-73899446D01*
X253122429Y-73885478D01*
X252965869Y-73909658D01*
X253064787Y-74463845D01*
X253575011Y-74463845D01*
X253575011Y-74276267D01*
X253211089Y-74276267D01*
X253180803Y-74099923D01*
X253225479Y-74120226D01*
X253275007Y-74132762D01*
X253312694Y-74135583D01*
X253367019Y-74131130D01*
X253417580Y-74117771D01*
X253464378Y-74095507D01*
X253507413Y-74064336D01*
X253530314Y-74042526D01*
X253530903Y-74041794D01*
X254624766Y-74041794D01*
X254624766Y-74229372D01*
X254673224Y-74248730D01*
X254719038Y-74273413D01*
X254761513Y-74301127D01*
X254788898Y-74321207D01*
X254829747Y-74356562D01*
X254863636Y-74394724D01*
X254890564Y-74435696D01*
X254910531Y-74479477D01*
X255067090Y-74479477D01*
X255067090Y-73463427D01*
X254874138Y-73463427D01*
X254874138Y-74198597D01*
X254833149Y-74160788D01*
X254789497Y-74126859D01*
X254743183Y-74096811D01*
X254694208Y-74070645D01*
X254642570Y-74048359D01*
X254624766Y-74041794D01*
X253530903Y-74041794D01*
X253565146Y-73999256D01*
X253591423Y-73950657D01*
X253607704Y-73901110D01*
X254126267Y-73901110D01*
X254505576Y-73901110D01*
X254505576Y-73729163D01*
X254126267Y-73729163D01*
X254126267Y-73901110D01*
X253607704Y-73901110D01*
X253609144Y-73896728D01*
X253617525Y-73846261D01*
X253619707Y-73801214D01*
X253616259Y-73748407D01*
X253605916Y-73698125D01*
X253588677Y-73650367D01*
X253564543Y-73605133D01*
X253547656Y-73580419D01*
X253515106Y-73542212D01*
X253471120Y-73504911D01*
X253421758Y-73476936D01*
X253367021Y-73458286D01*
X253317300Y-73449867D01*
X253274836Y-73447795D01*
X253224350Y-73450714D01*
X253170028Y-73461500D01*
X253120639Y-73480233D01*
X253076182Y-73506914D01*
X253047446Y-73530838D01*
X253012367Y-73569904D01*
X252984067Y-73614439D01*
X252962546Y-73664445D01*
X252949494Y-73711660D01*
X252942422Y-73754075D01*
X252819840Y-73754075D01*
X252817410Y-73714470D01*
X252805832Y-73659559D01*
X252785721Y-73609697D01*
X252757078Y-73564885D01*
X252731396Y-73535967D01*
X252689695Y-73501611D01*
X252642385Y-73475693D01*
X252589464Y-73458214D01*
X252539639Y-73449948D01*
X252494969Y-73447795D01*
X252445026Y-73450362D01*
X252390862Y-73459848D01*
X252341115Y-73476322D01*
X252295786Y-73499785D01*
X252266113Y-73520824D01*
X252229425Y-73555396D01*
X252196216Y-73601396D01*
X252173339Y-73653497D01*
X252161953Y-73703011D01*
X252158158Y-73757006D01*
X252072673Y-73757006D01*
X252072673Y-73666637D01*
X251947621Y-73666637D01*
X251947621Y-73463427D01*
X251760775Y-73463427D01*
X251760775Y-73666637D01*
X251348737Y-73666637D01*
X250854639Y-73666637D01*
X250851714Y-73656031D01*
X250828220Y-73607054D01*
X250822394Y-73597516D01*
X250792180Y-73557880D01*
X250755667Y-73524426D01*
X250712856Y-73497155D01*
X250686351Y-73484676D01*
X250639685Y-73468540D01*
X250587615Y-73457015D01*
X250537622Y-73450712D01*
X250483491Y-73447939D01*
X250467265Y-73447795D01*
X250409742Y-73449936D01*
X250356549Y-73456358D01*
X250307685Y-73467061D01*
X250254763Y-73485557D01*
X250208074Y-73510218D01*
X250173929Y-73535478D01*
X250138446Y-73571276D01*
X250108751Y-73612724D01*
X250084842Y-73659822D01*
X250066722Y-73712569D01*
X250056042Y-73760842D01*
X250051563Y-73791689D01*
X249788259Y-73791689D01*
X249793256Y-73785604D01*
X249821733Y-73745579D01*
X249849706Y-73703143D01*
X249875953Y-73661263D01*
X249999051Y-73463427D01*
X249755785Y-73463427D01*
X249608751Y-73686909D01*
X249581094Y-73727309D01*
X249549640Y-73771799D01*
X249519038Y-73812343D01*
X249501529Y-73832722D01*
X249462229Y-73864268D01*
X249440468Y-73874243D01*
X249392219Y-73883328D01*
X249342474Y-73885467D01*
X249338130Y-73885478D01*
X249296853Y-73885478D01*
X249296853Y-73463427D01*
X249093643Y-73463427D01*
X249093643Y-74307530D01*
X248982532Y-74307530D01*
X248982532Y-73336684D01*
X255178201Y-73336684D01*
X255178201Y-74606219D01*
G37*
G36*
X171887734Y-56896582D02*
G01*
X170649462Y-56896582D01*
X170649462Y-56785471D01*
X170760573Y-56785471D01*
X171776623Y-56785471D01*
X171776623Y-56582261D01*
X170932519Y-56582261D01*
X170932519Y-56076678D01*
X170760573Y-56076678D01*
X170760573Y-56785471D01*
X170649462Y-56785471D01*
X170649462Y-55942345D01*
X170760573Y-55942345D01*
X171776623Y-55942345D01*
X171776623Y-55739135D01*
X170760573Y-55739135D01*
X170760573Y-55942345D01*
X170649462Y-55942345D01*
X170649462Y-54950475D01*
X170760573Y-54950475D01*
X171436881Y-55356406D01*
X170760573Y-55356406D01*
X170760573Y-55545206D01*
X171776623Y-55545206D01*
X171776623Y-55347369D01*
X171090056Y-54935332D01*
X171776623Y-54935332D01*
X171776623Y-54746532D01*
X170760573Y-54746532D01*
X170760573Y-54950475D01*
X170649462Y-54950475D01*
X170649462Y-54635421D01*
X171887734Y-54635421D01*
X171887734Y-56896582D01*
G37*
G36*
X252498039Y-108829372D02*
G01*
X252361996Y-108469847D01*
X252636769Y-108469847D01*
X252498039Y-108829372D01*
G37*
G36*
X255429178Y-109206219D02*
G01*
X250946140Y-109206219D01*
X250946140Y-108570475D01*
X251057251Y-108570475D01*
X251059277Y-108631016D01*
X251065357Y-108688078D01*
X251075489Y-108741658D01*
X251089674Y-108791759D01*
X251107912Y-108838379D01*
X251136409Y-108891759D01*
X251171239Y-108939701D01*
X251186944Y-108957355D01*
X251229541Y-108997040D01*
X251276121Y-109029998D01*
X251326685Y-109056231D01*
X251381231Y-109075737D01*
X251439761Y-109088517D01*
X251489453Y-109093898D01*
X251528395Y-109095108D01*
X251584475Y-109092282D01*
X251637155Y-109083803D01*
X251686436Y-109069670D01*
X251732319Y-109049885D01*
X251774803Y-109024447D01*
X251813887Y-108993356D01*
X251828570Y-108979337D01*
X251860749Y-108941296D01*
X251888653Y-108895806D01*
X251909564Y-108849891D01*
X251927202Y-108798273D01*
X251931640Y-108782477D01*
X251730384Y-108751214D01*
X251713537Y-108802001D01*
X251687513Y-108844881D01*
X251655890Y-108876999D01*
X251614047Y-108903281D01*
X251566432Y-108918653D01*
X251518137Y-108923161D01*
X251464831Y-108918185D01*
X251416776Y-108903256D01*
X251373973Y-108878373D01*
X251336420Y-108843538D01*
X251305966Y-108797544D01*
X251286457Y-108747156D01*
X251275036Y-108696432D01*
X251268511Y-108638753D01*
X251266811Y-108585373D01*
X251268487Y-108528880D01*
X251273514Y-108477706D01*
X251283969Y-108423318D01*
X251299251Y-108376590D01*
X251323178Y-108331754D01*
X251335443Y-108315729D01*
X251372339Y-108280574D01*
X251414395Y-108255462D01*
X251461610Y-108240396D01*
X251513985Y-108235373D01*
X251567049Y-108241607D01*
X251614746Y-108260309D01*
X251653448Y-108288130D01*
X251686711Y-108327018D01*
X251711143Y-108372132D01*
X251728480Y-108420279D01*
X251737223Y-108454215D01*
X251934327Y-108391689D01*
X251918663Y-108341728D01*
X251900066Y-108295952D01*
X251873877Y-108246548D01*
X251843463Y-108203171D01*
X251808824Y-108165821D01*
X251783385Y-108144271D01*
X251741908Y-108116796D01*
X251696431Y-108095006D01*
X251646951Y-108078901D01*
X251593471Y-108068479D01*
X251535989Y-108063742D01*
X251515939Y-108063427D01*
X252000761Y-108063427D01*
X252157663Y-108469847D01*
X252393015Y-109079477D01*
X252607949Y-109079477D01*
X253115485Y-109079477D01*
X253313322Y-109079477D01*
X253725360Y-108392910D01*
X253725360Y-109079477D01*
X253914159Y-109079477D01*
X254513043Y-109079477D01*
X254716253Y-109079477D01*
X254716253Y-108673057D01*
X255114857Y-108673057D01*
X255114857Y-109079477D01*
X255318067Y-109079477D01*
X255318067Y-108063427D01*
X255114857Y-108063427D01*
X255114857Y-108501110D01*
X254716253Y-108501110D01*
X254716253Y-108063427D01*
X254513043Y-108063427D01*
X254513043Y-109079477D01*
X253914159Y-109079477D01*
X253914159Y-108063427D01*
X253710217Y-108063427D01*
X253304285Y-108739735D01*
X253304285Y-108063427D01*
X253115485Y-108063427D01*
X253115485Y-109079477D01*
X252607949Y-109079477D01*
X253011194Y-108063427D01*
X252790154Y-108063427D01*
X252702226Y-108297900D01*
X252299470Y-108297900D01*
X252216427Y-108063427D01*
X252000761Y-108063427D01*
X251515939Y-108063427D01*
X251466922Y-108065548D01*
X251408786Y-108074168D01*
X251354132Y-108089419D01*
X251302960Y-108111301D01*
X251255271Y-108139813D01*
X251211064Y-108174957D01*
X251186211Y-108199226D01*
X251149059Y-108244096D01*
X251118205Y-108293831D01*
X251093647Y-108348433D01*
X251078534Y-108395618D01*
X251067452Y-108445917D01*
X251060399Y-108499329D01*
X251057377Y-108555856D01*
X251057251Y-108570475D01*
X250946140Y-108570475D01*
X250946140Y-107952316D01*
X255429178Y-107952316D01*
X255429178Y-109206219D01*
G37*
G36*
X252598039Y-107329372D02*
G01*
X252461996Y-106969847D01*
X252736769Y-106969847D01*
X252598039Y-107329372D01*
G37*
G36*
X255332807Y-107706219D02*
G01*
X251046140Y-107706219D01*
X251046140Y-107070475D01*
X251157251Y-107070475D01*
X251159277Y-107131016D01*
X251165357Y-107188078D01*
X251175489Y-107241658D01*
X251189674Y-107291759D01*
X251207912Y-107338379D01*
X251236409Y-107391759D01*
X251271239Y-107439701D01*
X251286944Y-107457355D01*
X251329541Y-107497040D01*
X251376121Y-107529998D01*
X251426685Y-107556231D01*
X251481231Y-107575737D01*
X251539761Y-107588517D01*
X251589453Y-107593898D01*
X251628395Y-107595108D01*
X251684475Y-107592282D01*
X251737155Y-107583803D01*
X251786436Y-107569670D01*
X251832319Y-107549885D01*
X251874803Y-107524447D01*
X251913887Y-107493356D01*
X251928570Y-107479337D01*
X251960749Y-107441296D01*
X251988653Y-107395806D01*
X252009564Y-107349891D01*
X252027202Y-107298273D01*
X252031640Y-107282477D01*
X251830384Y-107251214D01*
X251813537Y-107302001D01*
X251787513Y-107344881D01*
X251755890Y-107376999D01*
X251714047Y-107403281D01*
X251666432Y-107418653D01*
X251618137Y-107423161D01*
X251564831Y-107418185D01*
X251516776Y-107403256D01*
X251473973Y-107378373D01*
X251436420Y-107343538D01*
X251405966Y-107297544D01*
X251386457Y-107247156D01*
X251375036Y-107196432D01*
X251368511Y-107138753D01*
X251366811Y-107085373D01*
X251368487Y-107028880D01*
X251373514Y-106977706D01*
X251383969Y-106923318D01*
X251399251Y-106876590D01*
X251423178Y-106831754D01*
X251435443Y-106815729D01*
X251472339Y-106780574D01*
X251514395Y-106755462D01*
X251561610Y-106740396D01*
X251613985Y-106735373D01*
X251667049Y-106741607D01*
X251714746Y-106760309D01*
X251753448Y-106788130D01*
X251786711Y-106827018D01*
X251811143Y-106872132D01*
X251828480Y-106920279D01*
X251837223Y-106954215D01*
X252034327Y-106891689D01*
X252018663Y-106841728D01*
X252000066Y-106795952D01*
X251973877Y-106746548D01*
X251943463Y-106703171D01*
X251908824Y-106665821D01*
X251883385Y-106644271D01*
X251841908Y-106616796D01*
X251796431Y-106595006D01*
X251746951Y-106578901D01*
X251693471Y-106568479D01*
X251635989Y-106563742D01*
X251615939Y-106563427D01*
X252100761Y-106563427D01*
X252257663Y-106969847D01*
X252493015Y-107579477D01*
X252707949Y-107579477D01*
X253215485Y-107579477D01*
X253413322Y-107579477D01*
X253825360Y-106892910D01*
X253825360Y-107579477D01*
X254014159Y-107579477D01*
X254014159Y-106563427D01*
X254544899Y-106563427D01*
X254553142Y-106613191D01*
X254566881Y-106661612D01*
X254586115Y-106708690D01*
X254610845Y-106754424D01*
X254640018Y-106796778D01*
X254673191Y-106837565D01*
X254706595Y-106874715D01*
X254745233Y-106914740D01*
X254789108Y-106957638D01*
X254827977Y-106994027D01*
X254866342Y-107029829D01*
X254905864Y-107067771D01*
X254942986Y-107105112D01*
X254976496Y-107142166D01*
X254988200Y-107157425D01*
X255012460Y-107201732D01*
X255026106Y-107249267D01*
X255028011Y-107274662D01*
X255021373Y-107324998D01*
X254997529Y-107368671D01*
X254993329Y-107373092D01*
X254949034Y-107399963D01*
X254897586Y-107407530D01*
X254846273Y-107399587D01*
X254803607Y-107373606D01*
X254801354Y-107371382D01*
X254774524Y-107326974D01*
X254762566Y-107276302D01*
X254760077Y-107251214D01*
X254567614Y-107270265D01*
X254574751Y-107319654D01*
X254588055Y-107372891D01*
X254606528Y-107419551D01*
X254634613Y-107465675D01*
X254669733Y-107502846D01*
X254675325Y-107507425D01*
X254717237Y-107535500D01*
X254763474Y-107556679D01*
X254814036Y-107570963D01*
X254868922Y-107578351D01*
X254902226Y-107579477D01*
X254955856Y-107576660D01*
X255005003Y-107568211D01*
X255056676Y-107551234D01*
X255102249Y-107526591D01*
X255136455Y-107499365D01*
X255169669Y-107462541D01*
X255197639Y-107415849D01*
X255214953Y-107364241D01*
X255221363Y-107315052D01*
X255221696Y-107300307D01*
X255218261Y-107250459D01*
X255207957Y-107202396D01*
X255197272Y-107171347D01*
X255174969Y-107124693D01*
X255147525Y-107080418D01*
X255120091Y-107043119D01*
X255085813Y-107004285D01*
X255049736Y-106967946D01*
X255010207Y-106930455D01*
X254993573Y-106915136D01*
X254956811Y-106881363D01*
X254918957Y-106845771D01*
X254882970Y-106809914D01*
X254877802Y-106804250D01*
X254847487Y-106765684D01*
X254838235Y-106751005D01*
X255221696Y-106751005D01*
X255221696Y-106563427D01*
X254544899Y-106563427D01*
X254014159Y-106563427D01*
X253810217Y-106563427D01*
X253404285Y-107239735D01*
X253404285Y-106563427D01*
X253215485Y-106563427D01*
X253215485Y-107579477D01*
X252707949Y-107579477D01*
X253111194Y-106563427D01*
X252890154Y-106563427D01*
X252802226Y-106797900D01*
X252399470Y-106797900D01*
X252316427Y-106563427D01*
X252100761Y-106563427D01*
X251615939Y-106563427D01*
X251566922Y-106565548D01*
X251508786Y-106574168D01*
X251454132Y-106589419D01*
X251402960Y-106611301D01*
X251355271Y-106639813D01*
X251311064Y-106674957D01*
X251286211Y-106699226D01*
X251249059Y-106744096D01*
X251218205Y-106793831D01*
X251193647Y-106848433D01*
X251178534Y-106895618D01*
X251167452Y-106945917D01*
X251160399Y-106999329D01*
X251157377Y-107055856D01*
X251157251Y-107070475D01*
X251046140Y-107070475D01*
X251046140Y-106452316D01*
X255332807Y-106452316D01*
X255332807Y-107706219D01*
G37*
G36*
X190198090Y-53490588D02*
G01*
X186887417Y-53490588D01*
X186887417Y-53379477D01*
X186998528Y-53379477D01*
X187201738Y-53379477D01*
X187841654Y-53379477D01*
X188044864Y-53379477D01*
X188238793Y-53379477D01*
X188436630Y-53379477D01*
X188848667Y-52692910D01*
X188848667Y-53379477D01*
X189037467Y-53379477D01*
X189037467Y-52941794D01*
X189644655Y-52941794D01*
X189644655Y-53129372D01*
X189693112Y-53148730D01*
X189738926Y-53173413D01*
X189781402Y-53201127D01*
X189808786Y-53221207D01*
X189849636Y-53256562D01*
X189883524Y-53294724D01*
X189910452Y-53335696D01*
X189930419Y-53379477D01*
X190086979Y-53379477D01*
X190086979Y-52363427D01*
X189894027Y-52363427D01*
X189894027Y-53098597D01*
X189853037Y-53060788D01*
X189809385Y-53026859D01*
X189763072Y-52996811D01*
X189714096Y-52970645D01*
X189662459Y-52948359D01*
X189644655Y-52941794D01*
X189037467Y-52941794D01*
X189037467Y-52363427D01*
X188833524Y-52363427D01*
X188427593Y-53039735D01*
X188427593Y-52363427D01*
X188238793Y-52363427D01*
X188238793Y-53379477D01*
X188044864Y-53379477D01*
X188044864Y-52363427D01*
X187841654Y-52363427D01*
X187841654Y-53379477D01*
X187201738Y-53379477D01*
X187201738Y-52535373D01*
X187707321Y-52535373D01*
X187707321Y-52363427D01*
X186998528Y-52363427D01*
X186998528Y-53379477D01*
X186887417Y-53379477D01*
X186887417Y-52252316D01*
X190198090Y-52252316D01*
X190198090Y-53490588D01*
G37*
M02*
