M48
; DRILL file {KiCad 8.0.5} date 2025-03-07T14:52:13+0530
; FORMAT={-:-/ absolute / metric / decimal}
; #@! TF.CreationDate,2025-03-07T14:52:13+05:30
; #@! TF.GenerationSoftware,Kicad,Pcbnew,8.0.5
; #@! TF.FileFunction,MixedPlating,1,4
FMAT,2
METRIC
; #@! TA.AperFunction,Plated,PTH,ViaDrill
T1C0.350
; #@! TA.AperFunction,Plated,PTH,ViaDrill
T2C0.400
; #@! TA.AperFunction,Plated,PTH,ViaDrill
T3C0.450
; #@! TA.AperFunction,Plated,PTH,ComponentDrill
T4C1.000
; #@! TA.AperFunction,Plated,PTH,ComponentDrill
T5C1.300
; #@! TA.AperFunction,Plated,PTH,ComponentDrill
T6C1.600
%
G90
G05
T1
X7.794Y9.477
X7.794Y8.477
X7.794Y7.477
X7.794Y6.477
X8.794Y9.477
X8.794Y8.477
X8.794Y7.477
X8.794Y6.477
X8.924Y13.112
X9.2Y18.8
X9.524Y12.112
X9.794Y9.477
X9.794Y8.477
X9.794Y7.477
X9.794Y6.477
X10.324Y13.112
X11.0Y18.8
X11.124Y12.012
X12.024Y13.112
X12.4Y18.8
X12.824Y12.112
X13.8Y18.8
X14.224Y41.874
X14.374Y53.462
X14.824Y62.012
X15.2Y18.8
X17.324Y32.162
X17.324Y31.162
X17.374Y30.212
X17.374Y29.312
X18.624Y15.412
X18.674Y3.512
X19.224Y14.712
X19.824Y15.612
X20.124Y3.462
X20.324Y14.812
X20.424Y45.012
X21.324Y3.462
X21.403Y9.333
X21.674Y55.662
X21.794Y34.477
X21.794Y33.477
X22.324Y15.312
X22.624Y62.012
X22.674Y3.462
X22.794Y34.477
X22.794Y33.477
X22.824Y38.312
X22.924Y48.112
X23.124Y14.512
X23.794Y34.477
X23.794Y33.477
X24.524Y28.012
X24.794Y34.477
X24.794Y33.477
X26.324Y26.512
X26.324Y25.112
X26.324Y13.112
X26.824Y12.212
X27.024Y25.812
X27.824Y26.512
X27.824Y25.112
X28.724Y25.812
X28.724Y24.312
X28.724Y23.212
X28.794Y10.477
X28.794Y9.477
X28.794Y8.477
X28.794Y7.477
X28.794Y6.477
X29.724Y26.512
X29.724Y25.112
X29.724Y23.712
X29.794Y10.477
X29.794Y9.477
X29.794Y8.477
X29.794Y7.477
X29.794Y6.477
X33.674Y14.112
X38.324Y16.412
X38.674Y46.662
X38.674Y45.562
X38.724Y44.412
X38.774Y43.112
X38.824Y41.762
X39.074Y63.512
X39.624Y62.562
X40.174Y63.562
X41.574Y63.612
X42.136Y18.062
X42.174Y62.612
X42.624Y63.612
X42.624Y26.162
X42.674Y24.812
X42.674Y23.712
X42.724Y22.062
X42.774Y41.312
X43.174Y20.062
X44.074Y43.812
X44.074Y42.512
X44.074Y41.312
X44.124Y14.612
X44.224Y13.712
X45.124Y14.612
X45.324Y13.712
X46.574Y76.662
X46.624Y71.112
X48.524Y23.362
X49.524Y57.862
X49.574Y56.612
X50.424Y46.412
X50.474Y45.362
X51.424Y62.862
X51.624Y45.312
X51.674Y46.462
X51.924Y62.012
X52.024Y26.862
X52.274Y25.362
X52.374Y62.912
X52.724Y20.612
X52.924Y22.612
X53.124Y19.712
X53.524Y22.012
X53.824Y62.712
X54.024Y20.612
X54.224Y61.812
X54.224Y22.612
X54.624Y19.812
X54.824Y62.712
X55.024Y21.912
X55.074Y41.112
X56.374Y41.062
X56.424Y44.112
X56.424Y43.112
X56.424Y42.062
X58.405Y24.812
X59.124Y77.312
X59.124Y71.112
X59.205Y27.412
X61.024Y31.112
X61.824Y15.112
X62.024Y57.762
X62.124Y56.162
X62.524Y25.112
X62.624Y31.012
X62.724Y57.012
X63.324Y27.912
X63.624Y24.712
X63.724Y16.012
X63.924Y14.612
X64.024Y27.212
X64.124Y35.712
X64.324Y16.612
X64.424Y30.912
X65.324Y35.712
X66.624Y35.612
X66.824Y14.612
X67.524Y34.412
X68.524Y25.287
X70.524Y28.312
X72.024Y62.012
X72.524Y61.062
X73.024Y61.962
X74.424Y61.662
X74.724Y42.762
X74.774Y45.462
X74.774Y43.962
X74.824Y46.962
X75.124Y60.962
X75.624Y46.212
X76.724Y62.212
X77.524Y39.612
X78.024Y57.812
X78.024Y28.862
X78.324Y39.212
X80.824Y32.612
X81.124Y76.612
X81.208Y70.996
X81.324Y16.812
X81.724Y32.312
X84.224Y15.612
X85.424Y17.412
X85.424Y13.112
X85.724Y62.212
X85.924Y20.312
X87.624Y61.862
X88.274Y61.062
X88.724Y61.862
X88.724Y17.512
X89.074Y42.712
X89.074Y41.462
X89.074Y40.412
X89.124Y43.962
X89.924Y61.912
X90.124Y19.062
X90.474Y61.112
X90.874Y61.962
X92.204Y63.102
X92.524Y39.012
X93.699Y58.172
X93.724Y42.212
X93.774Y43.162
X93.824Y44.412
X94.2Y14.4
X94.2Y13.2
X96.924Y71.312
X97.024Y77.212
X98.924Y15.012
X99.324Y14.012
X99.324Y12.912
X100.824Y17.612
X100.824Y16.612
X101.524Y63.092
X102.424Y55.912
X102.774Y56.762
X103.074Y55.162
X107.6Y42.4
X112.024Y48.012
X112.124Y46.812
X112.124Y45.612
X112.124Y44.312
X114.724Y37.512
X115.624Y21.612
X115.824Y32.612
X115.824Y16.912
X116.724Y21.612
X116.924Y16.712
X117.524Y54.112
X117.924Y21.612
X118.024Y51.862
X118.124Y16.712
X118.924Y44.512
X119.024Y46.612
X119.024Y45.612
X123.474Y57.162
T2
X73.024Y34.212
X83.074Y41.662
X89.6Y37.8
X96.5Y38.4
T3
X50.386Y12.262
X50.986Y11.262
X51.786Y12.262
X62.224Y46.512
X62.324Y45.112
X84.824Y31.112
X86.724Y30.312
X87.124Y47.312
X87.124Y46.112
X102.824Y47.512
X102.824Y46.012
X108.324Y16.112
X108.424Y22.112
X110.424Y44.412
T4
X35.591Y55.169
X35.591Y52.629
X35.591Y50.09
X35.591Y47.549
X36.524Y5.927
X36.524Y3.387
X46.234Y29.612
X48.774Y29.612
X51.314Y29.612
X52.704Y4.912
X53.249Y15.062
X55.244Y4.912
X55.789Y15.062
X57.784Y4.912
X60.324Y4.912
X62.864Y4.912
X65.404Y4.912
X67.944Y4.912
X69.992Y54.969
X69.992Y52.429
X69.992Y49.889
X69.992Y47.349
X70.484Y4.912
X73.024Y4.912
X75.564Y4.912
X78.104Y4.912
X80.644Y4.912
X83.184Y4.912
X85.724Y4.912
X88.264Y4.912
X90.804Y4.912
X93.344Y4.912
X95.884Y4.912
X98.424Y4.912
X100.964Y4.912
X119.724Y71.832
X119.724Y69.292
X119.724Y66.752
X119.724Y64.212
X119.724Y61.672
X122.124Y34.112
X124.024Y27.442
X124.024Y24.902
X124.024Y22.362
X124.024Y19.822
X124.024Y17.282
X124.024Y14.742
X124.664Y34.112
T5
X5.424Y13.012
X5.424Y8.012
X41.424Y5.912
X44.324Y79.312
X46.424Y5.912
X49.324Y79.312
X56.724Y79.312
X61.724Y79.312
X78.824Y79.312
X83.824Y79.312
X94.424Y79.362
X99.424Y79.362
X124.624Y44.312
X124.624Y39.312
T6
X20.124Y78.512
X20.824Y69.212
X33.124Y74.912
X71.724Y74.712
M30
