M48
; DRILL file {KiCad 8.0.5} date 2024-11-25T16:01:17+0530
; FORMAT={-:-/ absolute / metric / decimal}
; #@! TF.CreationDate,2024-11-25T16:01:17+05:30
; #@! TF.GenerationSoftware,Kicad,Pcbnew,8.0.5
; #@! TF.FileFunction,MixedPlating,1,6
FMAT,2
METRIC
; #@! TA.AperFunction,Plated,PTH,ViaDrill
T1C0.350
; #@! TA.AperFunction,Plated,PTH,ViaDrill
T2C0.400
; #@! TA.AperFunction,Plated,PTH,ViaDrill
T3C0.450
; #@! TA.AperFunction,Plated,PTH,ViaDrill
T4C0.500
; #@! TA.AperFunction,Plated,PTH,ComponentDrill
T5C0.500
; #@! TA.AperFunction,Plated,PTH,ComponentDrill
T6C0.600
; #@! TA.AperFunction,Plated,PTH,ComponentDrill
T7C1.000
; #@! TA.AperFunction,Plated,PTH,ComponentDrill
T8C1.600
; #@! TA.AperFunction,Plated,PTH,ComponentDrill
T9C2.200
; #@! TA.AperFunction,Plated,PTH,ComponentDrill
T10C2.700
%
G90
G05
T1
X128.423Y-83.26
X128.423Y-88.26
X129.423Y-83.26
X129.423Y-88.26
X130.423Y-83.26
X130.423Y-88.26
X131.423Y-83.26
X131.423Y-88.26
X131.986Y-73.435
X132.423Y-83.26
X132.423Y-84.26
X132.423Y-87.26
X132.423Y-88.26
X132.686Y-72.635
X133.423Y-83.26
X133.423Y-84.26
X133.423Y-85.26
X133.423Y-86.26
X133.423Y-87.26
X133.423Y-88.26
X133.686Y-73.535
X134.078Y-79.071
X134.186Y-72.635
X134.423Y-83.26
X134.423Y-84.26
X134.423Y-85.26
X134.423Y-86.26
X134.423Y-87.26
X134.423Y-88.26
X134.586Y-77.785
X135.221Y-79.071
X135.423Y-83.26
X135.423Y-84.26
X135.423Y-85.26
X135.423Y-86.26
X135.423Y-87.26
X135.423Y-88.26
X135.856Y-77.928
X136.423Y-83.26
X136.423Y-84.26
X136.423Y-85.26
X136.423Y-86.26
X136.423Y-87.26
X136.423Y-88.26
X136.486Y-78.835
X137.38Y-77.928
X137.423Y-83.26
X137.423Y-84.26
X137.423Y-85.26
X137.423Y-86.26
X137.423Y-87.26
X137.423Y-88.26
X137.888Y-78.944
X139.412Y-78.685
X139.636Y-76.585
X140.431Y-71.964
X141.423Y-71.964
X142.036Y-76.385
X142.423Y-71.964
X142.936Y-76.385
X143.423Y-71.964
X144.423Y-71.964
X144.423Y-106.26
X144.423Y-107.26
X144.423Y-108.26
X144.423Y-109.26
X144.936Y-76.385
X145.423Y-71.964
X145.423Y-93.26
X145.423Y-94.26
X145.423Y-95.26
X145.423Y-96.26
X145.423Y-106.26
X145.423Y-107.26
X145.423Y-108.26
X145.423Y-109.26
X145.936Y-76.385
X146.423Y-71.964
X146.423Y-93.26
X147.423Y-71.964
X147.423Y-93.26
X148.423Y-93.26
X148.423Y-94.26
X148.423Y-95.26
X148.423Y-96.26
X148.423Y-106.26
X148.423Y-107.26
X148.423Y-108.26
X148.423Y-109.26
X149.423Y-106.26
X149.423Y-107.26
X149.423Y-108.26
X149.423Y-109.26
X150.836Y-76.285
X150.836Y-78.335
X151.286Y-73.735
X151.423Y-72.26
X151.736Y-78.985
X151.836Y-76.585
X152.686Y-78.235
X155.925Y-73.488
X155.925Y-74.377
X155.936Y-75.685
X156.236Y-76.585
X156.56Y-97.635
X156.814Y-73.996
X156.936Y-75.885
X162.636Y-64.385
X163.036Y-65.385
X163.736Y-64.485
X164.136Y-65.285
X168.036Y-97.685
X170.019Y-86.685
X171.038Y-84.41
X171.546Y-85.172
X171.886Y-86.585
X172.054Y-84.41
X173.451Y-63.328
X174.34Y-63.735
X177.036Y-66.685
X177.036Y-69.585
X177.486Y-80.435
X179.236Y-64.685
X179.636Y-65.685
X179.674Y-76.409
X180.236Y-64.885
X180.986Y-76.435
X181.036Y-86.385
X181.036Y-87.585
X181.436Y-83.385
X182.186Y-95.085
X182.236Y-96.185
X189.423Y-91.26
X189.809Y-63.608
X190.698Y-64.014
X190.977Y-71.964
X190.977Y-73.785
X191.566Y-93.585
X191.586Y-92.505
X191.936Y-73.035
X192.356Y-94.375
X192.446Y-93.065
X192.486Y-89.435
X192.566Y-91.895
X192.586Y-90.775
X193.39Y-80.473
X193.517Y-88.855
X194.914Y-76.917
X194.914Y-77.679
X194.914Y-78.695
X200.629Y-63.455
X200.756Y-106.635
X201.386Y-107.485
X201.436Y-62.635
X201.899Y-73.488
X201.936Y-90.635
X202.026Y-71.202
X202.026Y-92.919
X202.136Y-106.635
X202.286Y-63.385
X202.534Y-72.091
X202.636Y-91.535
X202.661Y-93.808
X202.686Y-107.485
X202.788Y-73.869
X202.915Y-71.202
X203.169Y-92.919
X203.386Y-90.635
X206.598Y-100.031
X206.976Y-80.214
X207.233Y-100.92
X207.865Y-81.23
X207.868Y-99.904
X207.995Y-101.555
X208.503Y-100.539
X209.008Y-80.087
X209.138Y-101.428
X222.092Y-79.965
X222.186Y-81.335
X222.219Y-75.266
X222.473Y-95.332
X222.473Y-100.031
X223.235Y-75.266
X223.362Y-95.332
X223.616Y-79.965
X223.616Y-101.555
X223.836Y-81.285
X223.997Y-100.031
X224.124Y-75.266
X224.251Y-95.332
X224.886Y-101.555
X225.14Y-75.266
X227.934Y-71.456
X227.986Y-91.585
X228.061Y-72.599
X228.061Y-105.746
X228.536Y-92.585
X228.569Y-61.677
X228.696Y-60.534
X228.696Y-104.603
X229.286Y-91.535
X229.331Y-71.456
X229.331Y-72.599
X229.736Y-105.235
X229.839Y-61.55
X230.474Y-60.661
X230.728Y-104.476
T2
X137.383Y-113.366
X145.23Y-113.339
T3
X135.076Y-65.685
X135.076Y-68.225
X137.616Y-65.685
X137.616Y-68.225
X140.156Y-65.685
X140.156Y-68.225
X142.696Y-65.685
X142.696Y-68.225
X143.336Y-86.485
X143.336Y-87.785
X144.036Y-87.185
X145.236Y-65.685
X145.236Y-68.225
X147.776Y-65.685
X147.776Y-68.225
X148.936Y-68.3
X148.936Y-86.085
T4
X126.936Y-97.81
X126.936Y-103.36
X129.361Y-100.585
X131.786Y-97.81
X131.786Y-103.36
X137.316Y-57.299
X140.047Y-52.655
X144.074Y-58.148
X144.449Y-59.899
X145.636Y-87.077
X146.4Y-57.232
X148.536Y-97.935
X148.536Y-100.085
X148.686Y-102.063
X148.686Y-104.857
X149.191Y-52.655
X149.336Y-103.435
X149.486Y-98.985
X150.157Y-82.685
X150.83Y-80.585
X153.454Y-58.403
X153.512Y-60.153
X157.561Y-78.456
X157.561Y-82.49
X160.24Y-54.435
X163.418Y-85.154
X163.672Y-82.417
X165.636Y-104.349
X165.714Y-60.925
X165.76Y-78.385
X166.006Y-71.885
X166.724Y-68.785
X167.636Y-61.323
X168.9Y-83.521
X168.93Y-102.648
X174.367Y-78.976
X176.292Y-61.757
X178.036Y-71.583
X178.174Y-76.433
X178.236Y-53.463
X180.534Y-95.049
X181.936Y-61.193
X183.936Y-61.875
X184.262Y-67.027
X185.262Y-80.473
X192.62Y-61.685
X203.804Y-59.518
X204.236Y-103.409
X205.836Y-59.899
X206.136Y-103.633
X207.614Y-60.026
X207.741Y-67.265
X207.836Y-103.936
X207.844Y-111.294
X222.936Y-103.669
X223.086Y-59.54
X223.387Y-67.305
X223.514Y-111.374
X224.536Y-103.618
X224.736Y-59.414
X226.436Y-103.232
X226.586Y-58.932
X229.608Y-81.385
X229.753Y-101.469
X231.111Y-71.077
X231.124Y-91.029
X241.845Y-76.985
X242.256Y-65.585
X242.268Y-109.285
X242.364Y-96.935
X247.306Y-76.985
X247.475Y-109.285
X247.844Y-65.585
X248.25Y-96.987
T5
X171.636Y-57.685
X172.886Y-57.685
X187.886Y-57.885
X189.136Y-57.885
X250.336Y-65.06
X250.336Y-66.31
X250.336Y-76.385
X250.336Y-77.635
X250.336Y-96.413
X250.336Y-97.663
X250.336Y-108.635
X250.336Y-109.885
T7
X160.856Y-113.885
X163.396Y-113.885
X165.936Y-113.885
X166.636Y-55.11
X166.636Y-57.65
X168.476Y-113.885
X172.611Y-113.885
X175.151Y-113.885
X177.691Y-113.885
X180.231Y-113.885
X182.771Y-113.885
X183.136Y-55.41
X183.136Y-57.95
X186.686Y-113.885
X189.226Y-113.885
X191.766Y-113.885
X194.152Y-56.851
X194.306Y-113.885
X196.692Y-56.851
X196.846Y-113.885
X199.232Y-56.851
X199.386Y-113.885
X201.772Y-56.851
X204.312Y-56.851
X211.574Y-58.753
X211.574Y-118.253
X214.114Y-58.753
X214.114Y-118.253
X216.654Y-58.753
X216.654Y-118.253
X219.194Y-58.753
X219.194Y-118.253
T8
X127.858Y-64.725
X152.886Y-115.235
X239.618Y-57.235
X239.886Y-117.049
T9
X126.886Y-56.235
X126.886Y-116.235
X251.886Y-56.235
X251.886Y-116.235
T10
X130.236Y-78.485
X130.236Y-85.685
T6
G00X124.786Y-75.335
M15
G01X123.686Y-75.335
M16
G05
G00X124.786Y-88.835
M15
G01X123.686Y-88.835
M16
G05
M30
